<svg xmlns="http://www.w3.org/2000/svg" width="40" height="40" viewBox="0 0 40 40">
  <g id="positive" transform="translate(-4 -4)">
    <path id="Path_11571" data-name="Path 11571" d="M44,24A20,20,0,1,1,24,4,20,20,0,0,1,44,24ZM13,24a1,1,0,0,1,1-1h9V14a1,1,0,0,1,2,0v9h9a1,1,0,0,1,0,2H25v9a1,1,0,0,1-2,0V25H14A1,1,0,0,1,13,24Z" fill="#005b8e" fill-rule="evenodd"/>
    <path id="Path_11572" data-name="Path 11572" d="M24,42A18,18,0,1,0,6,24,18,18,0,0,0,24,42ZM11,24a3,3,0,0,1,3-3h7V14a3,3,0,0,1,6,0v7h7a3,3,0,0,1,0,6H27v7a3,3,0,0,1-6,0V27H14A3,3,0,0,1,11,24Zm3-1a1,1,0,0,0,0,2h9v9a1,1,0,0,0,2,0V25h9a1,1,0,0,0,0-2H25V14a1,1,0,0,0-2,0v9ZM24,44A20,20,0,1,0,4,24,20,20,0,0,0,24,44Z" fill="#005b8e" fill-rule="evenodd"/>
  </g>
</svg>
