<svg xmlns="http://www.w3.org/2000/svg" xmlns:xlink="http://www.w3.org/1999/xlink" width="317.424" height="180.128" viewBox="0 0 317.424 180.128">
  <defs>
    <linearGradient id="linear-gradient" x1="-0.052" y1="0.133" x2="1.738" y2="1.386" gradientUnits="objectBoundingBox">
      <stop offset="0" stop-color="#007487"/>
      <stop offset="0.277" stop-color="#003955"/>
      <stop offset="0.772" stop-color="#003955"/>
      <stop offset="1" stop-color="#00536b"/>
    </linearGradient>
    <linearGradient id="linear-gradient-2" x1="-0.025" y1="0.202" x2="1.605" y2="1.315" xlink:href="#linear-gradient"/>
    <linearGradient id="linear-gradient-3" x1="-0.01" y1="0.256" x2="1.435" y2="1.243" xlink:href="#linear-gradient"/>
    <linearGradient id="linear-gradient-4" x1="0.012" y1="0.037" x2="1.049" y2="1.041" xlink:href="#linear-gradient"/>
    <linearGradient id="linear-gradient-5" x1="-0.231" y1="-0.024" x2="2.127" y2="1.461" xlink:href="#linear-gradient"/>
    <linearGradient id="linear-gradient-6" x1="0.016" y1="-0.079" x2="0.995" y2="0.934" xlink:href="#linear-gradient"/>
    <linearGradient id="linear-gradient-7" x1="-0.787" y1="-0.139" x2="2.885" y2="1.63" xlink:href="#linear-gradient"/>
    <linearGradient id="linear-gradient-8" x1="-0.1" y1="0.046" x2="1.887" y2="1.41" xlink:href="#linear-gradient"/>
    <linearGradient id="linear-gradient-9" x1="-0.043" y1="-0.039" x2="0.969" y2="0.683" xlink:href="#linear-gradient"/>
    <linearGradient id="linear-gradient-10" x1="0.013" y1="-0.12" x2="0.985" y2="0.87" xlink:href="#linear-gradient"/>
    <linearGradient id="linear-gradient-11" x1="-0.021" y1="-0.066" x2="0.967" y2="0.692" xlink:href="#linear-gradient"/>
    <linearGradient id="linear-gradient-12" x1="-0.094" y1="-0.083" x2="0.99" y2="0.707" xlink:href="#linear-gradient"/>
    <linearGradient id="linear-gradient-13" x1="0.008" y1="-0.145" x2="0.978" y2="0.806" xlink:href="#linear-gradient"/>
    <linearGradient id="linear-gradient-14" x1="0.002" y1="-0.162" x2="0.973" y2="0.747" xlink:href="#linear-gradient"/>
    <linearGradient id="linear-gradient-15" x1="-0.008" y1="-0.117" x2="0.969" y2="0.712" xlink:href="#linear-gradient"/>
    <linearGradient id="linear-gradient-16" x1="0.016" y1="-0.027" x2="1.01" y2="0.99" xlink:href="#linear-gradient"/>
    <linearGradient id="linear-gradient-17" x1="0.002" y1="0.5" x2="1.004" y2="0.5" gradientUnits="objectBoundingBox">
      <stop offset="0.002" stop-color="#021111" stop-opacity="0"/>
      <stop offset="0.455" stop-color="#021111"/>
      <stop offset="1" stop-color="#021111" stop-opacity="0"/>
    </linearGradient>
    <linearGradient id="linear-gradient-18" x1="0.002" y1="0.5" x2="1.004" y2="0.5" xlink:href="#linear-gradient-17"/>
    <linearGradient id="linear-gradient-19" x1="0.903" y1="0.498" x2="-0.001" y2="0.498" gradientUnits="objectBoundingBox">
      <stop offset="0" stop-color="#79e2df"/>
      <stop offset="1" stop-color="#4abcb6"/>
    </linearGradient>
    <linearGradient id="linear-gradient-21" x1="0.955" y1="0.5" x2="0.013" y2="0.5" gradientUnits="objectBoundingBox">
      <stop offset="0" stop-color="#f5f5f5"/>
      <stop offset="1" stop-color="#cecece"/>
    </linearGradient>
    <linearGradient id="linear-gradient-22" x1="0.854" y1="0.505" x2="-0.135" y2="0.505" gradientUnits="objectBoundingBox">
      <stop offset="0" stop-color="#00416d"/>
      <stop offset="1" stop-color="#0fbab6"/>
    </linearGradient>
    <linearGradient id="linear-gradient-23" x1="0.5" y1="-0.132" x2="0.5" y2="1.042" gradientUnits="objectBoundingBox">
      <stop offset="0" stop-color="#f37949"/>
      <stop offset="1" stop-color="#f3826f"/>
    </linearGradient>
    <linearGradient id="linear-gradient-24" x1="112.453" y1="-2.187" x2="112.628" y2="-0.889" gradientUnits="objectBoundingBox">
      <stop offset="0" stop-color="#101719"/>
      <stop offset="1" stop-color="#243137"/>
    </linearGradient>
    <linearGradient id="linear-gradient-25" x1="273.147" y1="4.942" x2="270.685" y2="7.068" gradientUnits="objectBoundingBox">
      <stop offset="0" stop-color="#ffd1ae"/>
      <stop offset="1" stop-color="#f9ac78"/>
    </linearGradient>
    <linearGradient id="linear-gradient-26" x1="152.031" y1="-0.124" x2="151.754" y2="0.391" xlink:href="#linear-gradient-24"/>
    <linearGradient id="linear-gradient-27" x1="117.288" y1="0.478" x2="117.074" y2="1.089" xlink:href="#linear-gradient-24"/>
    <linearGradient id="linear-gradient-28" x1="293.42" y1="56.823" x2="290.895" y2="58.796" xlink:href="#linear-gradient-25"/>
    <linearGradient id="linear-gradient-29" x1="164.008" y1="-4.843" x2="164.263" y2="-3.827" xlink:href="#linear-gradient-24"/>
    <linearGradient id="linear-gradient-30" x1="0.728" y1="0.339" x2="0.382" y2="0.887" gradientUnits="objectBoundingBox">
      <stop offset="0" stop-color="#e5e5e5"/>
      <stop offset="1" stop-color="#c1c1c1"/>
    </linearGradient>
    <linearGradient id="linear-gradient-31" x1="100.504" y1="6.49" x2="100.819" y2="5.385" xlink:href="#linear-gradient-24"/>
    <linearGradient id="linear-gradient-32" x1="0.502" y1="1.16" x2="0.502" y2="-0.154" xlink:href="#linear-gradient-24"/>
    <linearGradient id="linear-gradient-33" x1="714.658" y1="1.16" x2="714.658" y2="-0.153" xlink:href="#linear-gradient-24"/>
    <linearGradient id="linear-gradient-34" x1="0.363" y1="0.461" x2="0.62" y2="0.872" xlink:href="#linear-gradient-30"/>
    <linearGradient id="linear-gradient-35" x1="0.538" y1="0.491" x2="0.996" y2="0.248" gradientUnits="objectBoundingBox">
      <stop offset="0" stop-color="#fcbc8f"/>
      <stop offset="1" stop-color="#fba05f"/>
    </linearGradient>
    <linearGradient id="linear-gradient-36" x1="158.623" y1="1.085" x2="158.623" y2="0.051" gradientUnits="objectBoundingBox">
      <stop offset="0" stop-color="#ccc" stop-opacity="0.502"/>
      <stop offset="1" stop-color="#ccc" stop-opacity="0.502"/>
    </linearGradient>
    <linearGradient id="linear-gradient-37" x1="552.297" y1="1.304" x2="552.297" y2="-0.015" gradientUnits="objectBoundingBox">
      <stop offset="0" stop-color="#ccc"/>
      <stop offset="1" stop-color="#ccc" stop-opacity="0.502"/>
    </linearGradient>
    <linearGradient id="linear-gradient-38" x1="0.329" y1="0.508" x2="0.86" y2="0.491" xlink:href="#linear-gradient-35"/>
    <linearGradient id="linear-gradient-39" x1="0.697" y1="0.745" x2="0.092" y2="0.174" xlink:href="#linear-gradient-35"/>
    <linearGradient id="linear-gradient-40" x1="0.501" y1="0.835" x2="0.501" y2="0.146" xlink:href="#linear-gradient-35"/>
    <linearGradient id="linear-gradient-41" x1="0.536" y1="-0.049" x2="0.471" y2="1.073" xlink:href="#linear-gradient-24"/>
    <linearGradient id="linear-gradient-42" x1="-0.155" y1="0.165" x2="1.322" y2="0.823" xlink:href="#linear-gradient-35"/>
    <linearGradient id="linear-gradient-43" x1="0.297" y1="0.247" x2="0.672" y2="0.889" xlink:href="#linear-gradient-30"/>
    <linearGradient id="linear-gradient-44" x1="-0.133" y1="-0.493" x2="0.344" y2="0.245" xlink:href="#linear-gradient-35"/>
    <linearGradient id="linear-gradient-45" x1="17.889" y1="101.929" x2="16.088" y2="103.726" xlink:href="#linear-gradient-25"/>
    <linearGradient id="linear-gradient-46" x1="1.823" y1="-3.505" x2="0.619" y2="-4.284" xlink:href="#linear-gradient-24"/>
    <linearGradient id="linear-gradient-47" x1="0.737" y1="0.791" x2="-0.426" y2="-0.579" xlink:href="#linear-gradient-24"/>
    <linearGradient id="linear-gradient-48" x1="0.787" y1="0.495" x2="0.352" y2="0.528" xlink:href="#linear-gradient-24"/>
    <linearGradient id="linear-gradient-49" x1="63.657" y1="98.012" x2="61.323" y2="99.825" xlink:href="#linear-gradient-25"/>
    <linearGradient id="linear-gradient-50" x1="1.122" y1="-1.436" x2="1.134" y2="-1.863" xlink:href="#linear-gradient-24"/>
    <linearGradient id="linear-gradient-51" x1="0.547" y1="-0.255" x2="0.441" y2="1.376" xlink:href="#linear-gradient-24"/>
    <linearGradient id="linear-gradient-52" x1="0.7" y1="0.425" x2="-3.886" y2="1.162" xlink:href="#linear-gradient-25"/>
    <linearGradient id="linear-gradient-53" x1="65.025" y1="1.085" x2="65.025" y2="0.051" gradientUnits="objectBoundingBox">
      <stop offset="0" stop-color="#d2d4d5"/>
      <stop offset="1" stop-color="#d9dadb"/>
    </linearGradient>
    <linearGradient id="linear-gradient-54" x1="295.888" y1="-0.043" x2="296.154" y2="1.026" gradientUnits="objectBoundingBox">
      <stop offset="0" stop-color="#ccc"/>
      <stop offset="1" stop-color="#ededed"/>
    </linearGradient>
    <linearGradient id="linear-gradient-55" x1="0.5" y1="0.771" x2="0.5" y2="0.042" gradientUnits="objectBoundingBox">
      <stop offset="0" stop-color="#e25030"/>
      <stop offset="1" stop-color="#ea816a"/>
    </linearGradient>
    <linearGradient id="linear-gradient-56" x1="0.5" y1="0.98" x2="0.5" y2="0.082" gradientUnits="objectBoundingBox">
      <stop offset="0" stop-color="#002457"/>
      <stop offset="1" stop-color="#00416d"/>
    </linearGradient>
    <linearGradient id="linear-gradient-57" x1="0.758" y1="0.117" x2="-0.385" y2="2.329" gradientUnits="objectBoundingBox">
      <stop offset="0" stop-color="#e5e5e5"/>
      <stop offset="1" stop-color="#00416d"/>
    </linearGradient>
    <linearGradient id="linear-gradient-58" x1="0.648" y1="0.251" x2="0.356" y2="0.929" xlink:href="#linear-gradient-30"/>
    <linearGradient id="linear-gradient-59" x1="0.364" y1="0.479" x2="1.258" y2="-0.239" xlink:href="#linear-gradient-35"/>
    <linearGradient id="linear-gradient-60" x1="0.496" y1="0.559" x2="0.541" y2="-0.952" xlink:href="#linear-gradient-35"/>
    <linearGradient id="linear-gradient-61" x1="59.251" y1="0.98" x2="59.251" y2="0.082" xlink:href="#linear-gradient-56"/>
    <linearGradient id="linear-gradient-62" x1="40.421" y1="0.772" x2="40.421" y2="0.043" xlink:href="#linear-gradient-55"/>
  </defs>
  <g id="students-studying-on-a-pile-of-books" transform="translate(-16.28 -34.935)">
    <path id="Path_45" data-name="Path 45" d="M55.85,106.33C61.26,32.87,173.7,19.3,204.77,67.76c26.74,41.71,35.69,44.18,71.7,37.67,31.06-5.61,49.74-1.98,56.09,19.52,7.89,26.73-26.37,62.1-61.39,76.15C187.92,234.48,48.22,209.97,55.85,106.33Z" fill="#005b8e"/>
    <g id="Group_48" data-name="Group 48" opacity="0.25">
      <path id="Path_46" data-name="Path 46" d="M138.23,77.62c21.9,14.02,45.12,17.42,66.01,17.42,6.88,0,13.51-.37,19.76-.85-.28-.31-.57-.62-.85-.94-24.94,1.87-55.83,1.81-84.38-16.47-16.42-10.51-39.6-20-63.58-12.52-.51.5-1.01,1.02-1.5,1.54C97.96,57.37,121.61,66.98,138.23,77.62Z" opacity="0.7" fill="url(#linear-gradient)"/>
      <path id="Path_47" data-name="Path 47" d="M133.55,88.55c19.34,13.86,40.48,18.07,60.77,18.07,13.71,0,27.02-1.93,39.13-4.11-.39-.26-.78-.53-1.16-.81-29.66,5.27-66.43,8.76-98.15-13.97C106.27,67.76,84.18,66.93,69.45,70.7c-.34.43-.67.87-1,1.3C82.94,67.94,105.19,68.23,133.55,88.55Z" opacity="0.8" fill="url(#linear-gradient-2)"/>
      <path id="Path_48" data-name="Path 48" d="M128.87,99.48c18.4,14.43,38.98,19.22,59.39,19.22,22,0,43.8-5.57,62.44-10.63-.98-.05-1.94-.14-2.88-.26-35.39,9.53-81.4,19.84-118.33-9.12-26.75-20.98-48.1-23.62-61.31-22.14-1.07.12-2.09.27-3.09.44-.23.38-.46.76-.68,1.15,1.24-.23,2.52-.44,3.88-.6C81.31,76.09,102.38,78.71,128.87,99.48Z" opacity="0.9" fill="url(#linear-gradient-3)"/>
      <path id="Path_49" data-name="Path 49" d="M130.06,110.16a91.6,91.6,0,0,0,42.28,16.9,118.959,118.959,0,0,0,16.51,1.12c24.98,0,49.49-7.09,69.9-12.99,10.2-2.95,19-5.5,26.37-6.74,14.82-2.5,25.65-3.1,33.66-1.4a29.711,29.711,0,0,0-4.19-1.75c-7.95-.83-17.75.16-29.64,2.17-7.42,1.25-16.26,3.81-26.48,6.77-24.8,7.18-55.67,16.1-85.99,11.85a90.632,90.632,0,0,1-41.82-16.72C103.97,89.6,82.75,86.01,69.62,86.47a57.779,57.779,0,0,0-9.7,1.15c-.15.4-.28.8-.43,1.2C73.01,85.85,97.6,86.11,130.06,110.16Z" fill="url(#linear-gradient-4)"/>
      <path id="Path_50" data-name="Path 50" d="M147.62,55.76c23.52,10.64,44.49,15.31,61.34,19.06.17.04.33.07.5.11-.26-.4-.53-.8-.8-1.2-16.72-3.72-37.44-8.39-60.63-18.88-16.77-7.59-33-9.87-48.51-6.87-1.4.62-2.78,1.28-4.14,1.96C112,45.63,129.49,47.56,147.62,55.76Z" opacity="0.5" fill="url(#linear-gradient-5)"/>
      <path id="Path_51" data-name="Path 51" d="M132.43,131.5a97.713,97.713,0,0,0,43.27,14.9,127.2,127.2,0,0,0,13.9.75c29.24,0,57.76-9.36,79.39-16.46,7.09-2.33,13.78-4.52,19.53-6.08,19.88-5.38,33.54-7.8,42.23-4.59-.2-.44-.4-.86-.61-1.28-8.95-2.78-22.53-.33-41.88,4.91-5.77,1.56-12.48,3.76-19.58,6.09-24.96,8.19-59.14,19.41-92.87,15.67a96.748,96.748,0,0,1-42.84-14.75c-38.7-25.11-66.04-25.75-77.1-24.56a1.636,1.636,0,0,0-.02.22c-.02.26-.02.52-.04.78C66.54,105.91,93.72,106.38,132.43,131.5Z" opacity="0.8" fill="url(#linear-gradient-6)"/>
      <path id="Path_52" data-name="Path 52" d="M201.51,63.25c-.49-.6-.98-1.18-1.5-1.76-13-5.74-28.82-11.4-47.36-17.6a95.456,95.456,0,0,0-19.04-4.34c-1.79.14-3.58.32-5.36.55a91.2,91.2,0,0,1,24.08,4.74C171.76,51.34,188.2,57.24,201.51,63.25Z" opacity="0.4" fill="url(#linear-gradient-7)"/>
      <path id="Path_53" data-name="Path 53" d="M142.92,66.69c26.51,14.66,52.1,17.17,73.56,18.27-.25-.34-.51-.69-.77-1.04-21.19-1.11-46.32-3.73-72.3-18.1-17.65-9.76-34.86-13.39-51.15-10.8a64,64,0,0,0-8.47,1.96c-.92.67-1.83,1.36-2.72,2.07C100.43,52.12,121.16,54.66,142.92,66.69Z" opacity="0.6" fill="url(#linear-gradient-8)"/>
      <path id="Path_54" data-name="Path 54" d="M298.2,172.22c-20.01,12.24-61.23,32.55-112.38,31.19a136.531,136.531,0,0,1-45.89-8.83c-38.19-14.69-64.34-31.85-74.73-39.27.35.66.7,1.32,1.06,1.97,11.4,7.97,36.92,24.23,73.31,38.23a137.8,137.8,0,0,0,46.23,8.89c1.66.04,3.31.07,4.95.07,49.11,0,88.52-19.5,107.98-31.4,12.64-7.73,23.29-15.96,31.41-24.16.35-.82.68-1.64.98-2.46C322.86,155.18,311.67,163.98,298.2,172.22Z" opacity="0.2" fill="url(#linear-gradient-9)"/>
      <path id="Path_55" data-name="Path 55" d="M177.38,156.07c4.2.4,8.39.58,12.56.58,31.98,0,62.58-10.79,85.64-18.93,5.24-1.85,10.19-3.59,14.64-5.03,20.42-6.59,33.79-10.01,42.1-8.53-.11-.35-.22-.71-.34-1.05-8.59-1.28-21.98,2.15-42.07,8.63-4.47,1.44-9.42,3.19-14.67,5.04-25.98,9.16-61.56,21.72-97.77,18.3-16.18-1.53-30.76-6.16-43.34-13.76-41.04-24.8-69.11-27.09-78.56-27.03,0,.33-.01.67-.01,1,9.26-.07,37.13,2.16,78.05,26.89C146.33,149.85,161.05,154.53,177.38,156.07Z" opacity="0.7" fill="url(#linear-gradient-10)"/>
      <path id="Path_56" data-name="Path 56" d="M184.15,193.74a126.741,126.741,0,0,1-45.38-9.81c-42.36-18.14-70.12-33.86-77.93-38.44.19.51.39,1,.59,1.5,9.11,5.28,36.32,20.46,76.95,37.86a127.672,127.672,0,0,0,45.74,9.89c2.32.09,4.64.14,6.98.14,34.17,0,69.77-10.04,105.93-29.88,14.51-7.96,26.83-16.22,35.69-23.79.13-.54.25-1.09.35-1.63-8.86,7.76-21.5,16.3-36.53,24.54C258.07,185.24,220.24,195.21,184.15,193.74Z" opacity="0.3" fill="url(#linear-gradient-11)"/>
      <path id="Path_57" data-name="Path 57" d="M187.49,213.08a149.629,149.629,0,0,1-46.41-7.84A238.862,238.862,0,0,1,75.21,170.3c1.01,1.22,2.07,2.4,3.15,3.57a240.866,240.866,0,0,0,62.41,32.32,150.734,150.734,0,0,0,46.72,7.89c.9.01,1.8.02,2.7.02,39.75,0,78.8-11.65,110.24-32.94a158.251,158.251,0,0,0,18.72-14.77c1.47-1.78,2.85-3.59,4.14-5.41a150.469,150.469,0,0,1-23.42,19.36C267.87,201.99,228,213.62,187.49,213.08Z" opacity="0.1" fill="url(#linear-gradient-12)"/>
      <path id="Path_58" data-name="Path 58" d="M179.07,165.74q5.715.45,11.36.45c35.47,0,68.47-12.71,93.2-22.25,2.9-1.12,5.67-2.18,8.29-3.17,18.96-7.14,32.75-12.15,41.35-12.8-.06-.33-.12-.66-.19-.99-8.67.68-22.17,5.58-41.51,12.86-2.63.99-5.4,2.06-8.3,3.17-27.26,10.51-64.6,24.89-104.12,21.73-16.29-1.3-31.05-5.6-43.85-12.77-43.06-24.11-71.62-28.98-79.42-29.9.03.34.05.68.08,1.01,7.98.97,36.28,5.92,78.85,29.76C147.74,160.08,162.63,164.42,179.07,165.74Z" opacity="0.6" fill="url(#linear-gradient-13)"/>
      <path id="Path_59" data-name="Path 59" d="M180.75,175.41c3.32.22,6.63.32,9.91.32,40.7,0,77.79-16.01,102.96-26.88,6.09-2.63,11.63-5.07,16.52-7.23,9.99-4.41,17.84-7.87,23.54-9.87l-.06-1.05c-5.66,1.97-13.48,5.41-23.88,10-4.89,2.16-10.43,4.6-16.51,7.23-27.12,11.71-68.09,29.4-112.41,26.48-16.37-1.08-31.29-5.04-44.36-11.79-44.43-22.92-73.2-31.26-79.71-32.99.06.37.13.72.2,1.09,7.22,1.95,35.62,10.38,79.05,32.79C149.19,170.32,164.25,174.32,180.75,175.41Z" opacity="0.5" fill="url(#linear-gradient-14)"/>
      <path id="Path_60" data-name="Path 60" d="M182.48,184.08a118.411,118.411,0,0,1-44.87-10.8c-44.41-20.96-72.96-33.29-79.3-36,.1.41.22.82.33,1.23,7.57,3.25,35.65,15.43,78.54,35.67a119.419,119.419,0,0,0,45.25,10.89c2.85.15,5.67.23,8.48.23,41.35,0,79.05-15.98,104.4-28.38,17.37-8.5,30.13-15.93,38.26-20.97q.06-.615.09-1.23a434.311,434.311,0,0,1-38.78,21.3C267.9,169.22,226.9,186.47,182.48,184.08Z" opacity="0.4" fill="url(#linear-gradient-15)"/>
      <path id="Path_61" data-name="Path 61" d="M286.6,115.55c-6.71,1.47-14.43,3.85-23.38,6.59-25.5,7.84-57.24,17.59-89.08,13.6a93.293,93.293,0,0,1-42.33-15.73C95.96,95.14,69.69,95.1,57.11,97.33c-.07.34-.14.69-.2,1.04,12.18-2.28,38.3-2.53,74.33,22.46a94.2,94.2,0,0,0,42.78,15.9,122.451,122.451,0,0,0,15.38.94c26.73,0,52.63-7.96,74.12-14.57,8.92-2.74,16.63-5.11,23.3-6.57,20.13-4.42,32.74-5.24,40.88-1.84-.39-.53-.79-1.04-1.21-1.53C317.4,110.05,304.38,111.65,286.6,115.55Z" opacity="0.9" fill="url(#linear-gradient-16)"/>
    </g>
    <ellipse id="Ellipse_19" data-name="Ellipse 19" cx="78.06" cy="2.1" rx="78.06" ry="2.1" transform="translate(91.19 198.99)" opacity="0.25" fill="url(#linear-gradient-17)"/>
    <ellipse id="Ellipse_20" data-name="Ellipse 20" cx="24.13" cy="1.22" rx="24.13" ry="1.22" transform="translate(50.11 199.87)" opacity="0.15" fill="url(#linear-gradient-18)"/>
    <path id="Path_62" data-name="Path 62" d="M232.04,198.93a2.164,2.164,0,0,1-2.16,2.16H105.91a2.164,2.164,0,0,1-2.16-2.16V178.32a2.164,2.164,0,0,1,2.16-2.16H229.88a2.164,2.164,0,0,1,2.16,2.16v20.61Z" fill="#002535"/>
    <rect id="Rectangle_17" data-name="Rectangle 17" width="8.48" height="24.93" transform="translate(120.6 176.16)" fill="#00416d"/>
    <rect id="Rectangle_18" data-name="Rectangle 18" width="8.48" height="24.93" transform="translate(206.7 176.16)" fill="#00416d"/>
    <path id="Path_63" data-name="Path 63" d="M116.88,153.88a1.415,1.415,0,0,0-1.41,1.41v16.95a1.415,1.415,0,0,0,1.41,1.41H226.43V153.87H116.88Z" fill="#f5f5f5"/>
    <path id="Path_64" data-name="Path 64" d="M116.88,173.66a1.415,1.415,0,0,1-1.41-1.41V155.3a1.415,1.415,0,0,1,1.41-1.41h110.8a1.25,1.25,0,0,0,1.25-1.25h0a1.25,1.25,0,0,0-1.25-1.25H116.88a3.909,3.909,0,0,0-3.91,3.91v16.96a3.909,3.909,0,0,0,3.91,3.91h110.8a1.25,1.25,0,0,0,1.25-1.25h0a1.25,1.25,0,0,0-1.25-1.25H116.88Z" fill="#79e2df"/>
    <path id="Path_65" data-name="Path 65" d="M115.46,161.09c33.91.13,80.28.23,110.96.27v-.54c-30.75-.02-77.12-.08-110.96-.18Zm0-2.63v.45c33.5.05,79.88.07,110.96.1v-.54C195.2,158.47,148.84,158.47,115.46,158.46Zm.18-3.83a1.567,1.567,0,0,0-.15.43l110.94.11v-.55Zm-.18,2.35c32.81.13,79.31.22,110.96.27v-.54c-31.86-.02-78.35-.08-110.96-.18Zm0,8.41v.45c33.96.03,80.29.07,110.96.13v-.54C195.81,165.39,149.46,165.38,115.46,165.39Zm.14,7.44c31.2-.07,78.02-.11,110.83-.12v-.54c-32.69.04-79.4.12-110.95.22A1.245,1.245,0,0,0,115.6,172.83Zm-.14-1.83c32.65.02,79.2.04,110.96.04v-.55c-31.7.02-78.16.04-110.96.05Zm0-2.75v.45c33.42.02,79.74.05,110.96.09v-.54C195.34,168.23,149,168.23,115.46,168.25Zm0-4.58c34.08.01,80.42.02,110.96.05v-.54c-30.54,0-76.89.01-110.96.04Z" fill="#cecece" opacity="0.5"/>
    <path id="Path_66" data-name="Path 66" d="M148.03,160.74a2.422,2.422,0,0,0-2.42,2.42v18.87a.792.792,0,0,0,1.34.57l6.31-6.06a.792.792,0,0,1,1.09,0l6.31,6.06a.792.792,0,0,0,1.34-.57V163.16a2.422,2.422,0,0,1,2.42-2.42Z" fill="#ea816a"/>
    <path id="Path_67" data-name="Path 67" d="M227.67,153.88a1.25,1.25,0,0,0,1.25-1.25h0a1.25,1.25,0,0,0-1.25-1.25H175.3a1.25,1.25,0,0,1,1.25,1.25h0a1.25,1.25,0,0,1-1.25,1.25h52.37Z" fill="url(#linear-gradient-19)"/>
    <path id="Path_68" data-name="Path 68" d="M175.3,173.66a1.25,1.25,0,0,1,0,2.5h52.37a1.25,1.25,0,0,0,0-2.5H175.3Z" fill="url(#linear-gradient-19)"/>
    <path id="Path_69" data-name="Path 69" d="M226.42,153.88H174.05v19.78h52.37Z" opacity="0.25" fill="url(#linear-gradient-21)"/>
    <path id="Path_70" data-name="Path 70" d="M221.19,123.49H102.35a1.25,1.25,0,0,0,0,2.5H151.4a1.415,1.415,0,0,1,1.41,1.41v20.06a1.415,1.415,0,0,1-1.41,1.41H102.35a1.25,1.25,0,0,0-1.25,1.25h0a1.25,1.25,0,0,0,1.25,1.25H221.19a3.916,3.916,0,0,0,3.91-3.91V127.4A3.9,3.9,0,0,0,221.19,123.49Z" fill="#ea816a"/>
    <path id="Path_71" data-name="Path 71" d="M103.52,148.88H151.4a1.415,1.415,0,0,0,1.41-1.41V127.4a1.415,1.415,0,0,0-1.41-1.41H103.52a26.128,26.128,0,0,1,0,22.89Z" fill="#f5f5f5"/>
    <path id="Path_72" data-name="Path 72" d="M151.4,123.49H102.35a1.25,1.25,0,0,0-1.25,1.25h0a1.25,1.25,0,0,0,1.25,1.25H151.4a1.415,1.415,0,0,1,1.41,1.41v20.06a1.415,1.415,0,0,1-1.41,1.41H102.35a1.25,1.25,0,0,0-1.25,1.25h0a1.25,1.25,0,0,0,1.25,1.25H151.4a3.909,3.909,0,0,0,3.91-3.91V127.4A3.909,3.909,0,0,0,151.4,123.49Z" fill="#cc5440"/>
    <path id="Path_73" data-name="Path 73" d="M221.19,123.49h-69.8a3.909,3.909,0,0,1,3.91,3.91v20.06a3.909,3.909,0,0,1-3.91,3.91h69.8a3.916,3.916,0,0,0,3.91-3.91V127.4A3.9,3.9,0,0,0,221.19,123.49Z" fill="#ea816a"/>
    <path id="Path_74" data-name="Path 74" d="M222.1,147.47V127.39a.911.911,0,0,0-.91-.9H159.22a.911.911,0,0,0-.91.9v20.08a.911.911,0,0,0,.91.9h61.97A.9.9,0,0,0,222.1,147.47Z" fill="#cc5440" opacity="0.5"/>
    <path id="Path_75" data-name="Path 75" d="M104.83,145.66c14.62.02,34.01.04,47.98.04v-.62c-13.89.02-33.15.04-47.8.05C104.95,145.32,104.89,145.49,104.83,145.66Zm1.25-6.35c-.01.17-.03.34-.04.52,14.92.03,33.58.07,46.77.13v-.61C139.65,139.32,121.01,139.31,106.08,139.31Zm-2.03,8.41c14.14-.07,34.09-.11,48.74-.12,0-.05.01-.09.01-.14v-.47c-14.52.05-34.28.12-48.55.22A5.376,5.376,0,0,1,104.05,147.72Zm48.73-20.59-48.73.02c.07.16.14.33.2.49l48.55.11v-.36A.782.782,0,0,0,152.78,127.13Zm-47.13,15.41c-.03.17-.07.35-.11.52,14.8.02,33.72.05,47.26.09v-.61C139.35,142.53,120.48,142.53,105.65,142.54Zm-.61-12.71c14.66.13,33.91.22,47.77.27v-.6c-13.99-.02-33.33-.08-47.93-.18C104.93,129.49,104.99,129.66,105.04,129.83Zm.44,1.65c.04.17.07.34.11.52,14.83.05,33.74.07,47.22.1v-.61C139.25,131.49,120.28,131.5,105.48,131.48Zm.67,5.9c14.94.01,33.54.03,46.66.06v-.61c-13.12,0-31.73.01-46.67.04C106.14,137.03,106.15,137.2,106.15,137.38Zm-.16-2.89c14.91.13,33.61.22,46.82.27v-.6c-13.26-.02-31.99-.08-46.88-.18Z" fill="#cecece" opacity="0.5"/>
    <path id="Path_76" data-name="Path 76" d="M184.77,102.33H222.2a1.25,1.25,0,0,0,1.25-1.25h0a1.25,1.25,0,0,0-1.25-1.25H120.91a12.05,12.05,0,0,0-12.12,10.69,11.848,11.848,0,0,0,11.78,12.97H222.21a1.25,1.25,0,0,0,0-2.5H185.1a9.542,9.542,0,0,1-9.63-8.71A9.313,9.313,0,0,1,184.77,102.33Z" fill="#00416d"/>
    <path id="Path_77" data-name="Path 77" d="M222.2,120.99H185.09a9.542,9.542,0,0,1-9.63-8.71,9.332,9.332,0,0,1,9.31-9.95H222.2a1.25,1.25,0,0,0,1.25-1.25h0a1.25,1.25,0,0,0-1.25-1.25H185.12A12.05,12.05,0,0,0,173,110.52a11.848,11.848,0,0,0,11.78,12.97h37.43a1.25,1.25,0,0,0,1.25-1.25h0A1.266,1.266,0,0,0,222.2,120.99Z" fill="#002535"/>
    <path id="Path_78" data-name="Path 78" d="M218.59,111.66c0-5.15,1.12-9.33,2.5-9.33H184.77a9.33,9.33,0,0,0,0,18.66h36.32C219.71,120.99,218.59,116.81,218.59,111.66Z" fill="#f5f5f5"/>
    <path id="Path_79" data-name="Path 79" d="M218.87,115.99H176.51c.08.15.17.3.26.45,13.69.01,28.9.03,42.18.05C218.93,116.32,218.9,116.16,218.87,115.99Zm.43,2.17-41.18.03c.16.16.32.31.49.46,13.25.01,27.93.02,40.84.02A3.8,3.8,0,0,1,219.3,118.16Zm-.67-4.89c-13.47-.01-29.04-.02-43.04-.02.03.15.05.3.09.45,13.97.02,29.52.04,42.98.07C218.64,113.61,218.64,113.44,218.63,113.27Zm-38.24,6.62a8.829,8.829,0,0,0,.99.45c12.54-.03,26.4-.05,38.76-.06a3.87,3.87,0,0,1-.28-.5C207.27,119.81,193.14,119.85,180.39,119.89Zm38.59-13.26H176.92c-.09.15-.19.3-.27.45,13.72.02,28.97.04,42.25.05C218.93,106.95,218.96,106.79,218.98,106.63Zm.38-1.7c-12.96-.02-27.68-.05-40.94-.09-.15.14-.3.29-.45.44,13.37.06,28.21.11,41.25.15C219.27,105.25,219.32,105.09,219.36,104.93Zm.85-1.99-38.75.01c-.34.13-.68.28-1,.44l39.44.06A2.987,2.987,0,0,1,220.21,102.94Zm-1.51,5.93c-13.41-.02-28.89-.06-42.8-.11-.05.15-.09.29-.13.44,13.94.07,29.46.12,42.89.16C218.68,109.2,218.69,109.04,218.7,108.87Zm-.11,2.28c-13.49,0-29.1.01-43.13.02-.01.15-.02.3-.02.45l43.14.03C218.59,111.48,218.59,111.31,218.59,111.15Z" fill="#cecece" opacity="0.5"/>
    <g id="Group_49" data-name="Group 49">
      <path id="Path_80" data-name="Path 80" d="M236.85,100.02a.9.9,0,0,1-.9-.89l-.04-18.85a.9.9,0,0,1,.89-.9l15.26-.03a.9.9,0,0,1,.9.89L253,99.09a.9.9,0,0,1-.89.9Z" fill="#ea816a"/>
      <rect id="Rectangle_19" data-name="Rectangle 19" width="136.82" height="20.41" transform="translate(100.971 79.857)" fill="#0fbab6"/>
      <path id="Path_81" data-name="Path 81" d="M101.18,94.05l-.02-8.56,132.33-.17.02,8.56Z" opacity="0.5" fill="url(#linear-gradient-22)"/>
      <path id="Path_82" data-name="Path 82" d="M234.39,101.41a.871.871,0,0,1-.87-.87l-.05-21.88a.871.871,0,0,1,.87-.87l4.82-.01a.871.871,0,0,1,.87.87l.05,21.88a.871.871,0,0,1-.87.87Z" fill="#00416d"/>
      <path id="Path_83" data-name="Path 83" d="M101.19,99.86l-.04-20.18L91.81,85.8h0l-4.92,3.22a.875.875,0,0,0,0,1.58l4.93,3.2h0Z" fill="#fff"/>
      <path id="Path_84" data-name="Path 84" d="M90.83,86.43l-3.94,2.58a.875.875,0,0,0,0,1.58l3.95,2.56Z" fill="#002535"/>
    </g>
    <g id="Group_50" data-name="Group 50">
      <path id="Path_85" data-name="Path 85" d="M286.36,144.32a23.95,23.95,0,1,1-23.95-23.95A23.946,23.946,0,0,1,286.36,144.32Z" fill="#0fbab6"/>
      <path id="Path_86" data-name="Path 86" d="M269.1,122.45l-1.69-6.37a1.176,1.176,0,0,0-1.13-.87h-7.75a1.176,1.176,0,0,0-1.13.87c-.51,1.92-1.69,6.37-1.69,6.37H269.1Zm-13.38,43.73,1.69,6.37a1.165,1.165,0,0,0,1.12.87h7.76a1.156,1.156,0,0,0,1.12-.87l1.69-6.37H255.72Zm-4.04-42.05-5.7-3.31a1.163,1.163,0,0,0-1.41.18l-5.48,5.48a1.163,1.163,0,0,0-.18,1.41c1,1.72,3.31,5.7,3.31,5.7h0Zm21.46,40.38,5.7,3.31a1.165,1.165,0,0,0,1.41-.18l5.49-5.49a1.163,1.163,0,0,0,.18-1.41l-3.31-5.7h0Zm-32.59-26.88-6.37,1.69a1.176,1.176,0,0,0-.87,1.13v7.75a1.176,1.176,0,0,0,.87,1.13l6.37,1.69h0Zm43.73,13.38,6.37-1.69a1.165,1.165,0,0,0,.87-1.12v-7.76a1.156,1.156,0,0,0-.87-1.12l-6.37-1.69h0Zm-42.06,4.04-3.31,5.7a1.163,1.163,0,0,0,.18,1.41l5.48,5.48a1.163,1.163,0,0,0,1.41.18c1.72-1,5.7-3.31,5.7-3.31h0Zm40.38-21.46,3.31-5.7a1.165,1.165,0,0,0-.18-1.41l-5.49-5.49a1.163,1.163,0,0,0-1.41-.18l-5.7,3.31h0Z" fill="#0fbab6"/>
      <path id="Path_87" data-name="Path 87" d="M279.73,144.32a17.31,17.31,0,1,1-17.31-17.31A17.31,17.31,0,0,1,279.73,144.32Z" fill="#00416d" opacity="0.25"/>
      <path id="Path_88" data-name="Path 88" d="M277.19,144.32a14.78,14.78,0,1,1-14.78-14.78A14.777,14.777,0,0,1,277.19,144.32Z" fill="#fff"/>
      <path id="Path_89" data-name="Path 89" d="M266.91,139.92a4.29,4.29,0,1,1-4.29-4.29A4.289,4.289,0,0,1,266.91,139.92Zm-2.64,4.89h-3.7a4.255,4.255,0,0,0-4.24,4.24v2.53c0,1.01.44,1.43,1.35,1.43h9.48c.91,0,1.35-.42,1.35-1.43v-2.53A4.262,4.262,0,0,0,264.27,144.81Z" fill="#00416d"/>
      <path id="Path_90" data-name="Path 90" d="M278.12,155.42a4.61,4.61,0,1,0-4.61,4.61A4.611,4.611,0,0,0,278.12,155.42Z" fill="url(#linear-gradient-23)"/>
      <path id="Path_91" data-name="Path 91" d="M278.12,155.42a4.61,4.61,0,1,0-4.61,4.61A4.611,4.611,0,0,0,278.12,155.42Z" fill="#ea816a"/>
      <path id="Path_92" data-name="Path 92" d="M274.33,154.6v-1.84h-1.64v1.84h-1.84v1.64h1.84v1.84h1.64v-1.84h1.84V154.6Z" fill="#fbd7d1"/>
      <path id="Path_93" data-name="Path 93" d="M321.86,131.68a13.87,13.87,0,1,1-13.87-13.87A13.87,13.87,0,0,1,321.86,131.68Z" fill="#ea816a"/>
      <path id="Path_94" data-name="Path 94" d="M311.61,119.34l-.97-3.64a.672.672,0,0,0-.64-.5h-4.03a.653.653,0,0,0-.64.5c-.29,1.1-.97,3.64-.97,3.64h7.25Zm-7.26,24.67.97,3.64a.672.672,0,0,0,.64.5H310a.661.661,0,0,0,.64-.5l.97-3.64h-7.26Zm-2.52-23.62-3.26-1.89a.668.668,0,0,0-.81.11l-2.85,2.85a.679.679,0,0,0-.11.81c.57.98,1.89,3.26,1.89,3.26h0Zm12.31,22.57,3.26,1.89a.664.664,0,0,0,.8-.1l2.86-2.86a.65.65,0,0,0,.1-.8l-1.89-3.26h0Zm-18.49-14.91-3.64.97a.672.672,0,0,0-.5.64v4.03a.653.653,0,0,0,.5.64c1.1.29,3.64.97,3.64.97h0Zm24.66,7.25,3.64-.97a.672.672,0,0,0,.5-.64v-4.04a.661.661,0,0,0-.5-.64l-3.64-.97h0Zm-23.61,2.53-1.89,3.26a.668.668,0,0,0,.11.81l2.85,2.85a.679.679,0,0,0,.81.11c.98-.57,3.26-1.89,3.26-1.89h0Zm22.57-12.31,1.89-3.26a.664.664,0,0,0-.1-.8l-2.86-2.86a.65.65,0,0,0-.8-.1l-3.26,1.89h0Z" fill="#ea816a"/>
      <path id="Path_95" data-name="Path 95" d="M307.98,140.74a9.06,9.06,0,1,1,9.06-9.06A9.065,9.065,0,0,1,307.98,140.74Z" fill="#00416d"/>
      <path id="Path_96" data-name="Path 96" d="M307.98,124.94a6.73,6.73,0,1,0,6.73,6.73A6.739,6.739,0,0,0,307.98,124.94Z" fill="#fbd7d1"/>
    </g>
    <g id="Group_52" data-name="Group 52">
      <path id="Path_97" data-name="Path 97" d="M64.4,145.57c.37-1.93.72-6.52,4.45-6.47,5.02.07,8.96,3.47,7.75,11.7-1.24,8.47-4.29,13.96-5.24,15.08-1.59,1.88-9.86.82-9.68-2.95C61.87,158.66,63.78,148.82,64.4,145.57Z" fill="url(#linear-gradient-24)"/>
      <path id="Path_98" data-name="Path 98" d="M83.42,195.49l-.96-4.98s4.01-.76,4.09-.07c.06.5.31,3.41.39,4.41C86.69,195.34,83.51,195.56,83.42,195.49Z" fill="url(#linear-gradient-25)"/>
      <path id="Path_99" data-name="Path 99" d="M87.02,192.46s-1.1-21.99-1.1-27.36c0-2.95-.4-8.19-5.74-6.94s-4.43,5.02-3.65,8.23c1.8,7.33,6.19,26.69,6.19,26.69Z" fill="url(#linear-gradient-26)"/>
      <path id="Path_100" data-name="Path 100" d="M85.07,199.61a12.379,12.379,0,0,1-3.29-.35.963.963,0,0,0,0,.17h0c.01-.73.04-1.59.1-2.42a5.711,5.711,0,0,1,.42-1.89,2.956,2.956,0,0,1,.35-.61c.21-.27.35-.12.62-.02.54.2.76.82,1.76.81a2.209,2.209,0,0,0,1.84-.81.354.354,0,0,1,.62.02,3.5,3.5,0,0,1,.35.61,5.469,5.469,0,0,1,.42,1.89c.06.76.08,1.56.1,2.25A12.433,12.433,0,0,1,85.07,199.61Z" fill="#e2e2e2"/>
      <path id="Path_101" data-name="Path 101" d="M81.78,199.26a15.638,15.638,0,0,0,6.58,0,2.253,2.253,0,0,1,0,.26c0,.29-.03.59-.05.89-.04.39-.25.56-.77.63a19.913,19.913,0,0,1-2.48.03,19.967,19.967,0,0,1-2.48-.03c-.52-.07-.73-.24-.77-.63a6.734,6.734,0,0,1-.05-.89A2.111,2.111,0,0,0,81.78,199.26Z" fill="#1c5268"/>
      <path id="Path_102" data-name="Path 102" d="M85.11,197.45h.08c1.22,0,1.91.06,1.91.61a.588.588,0,0,1-.12.38,2.186,2.186,0,0,1-1.73.59h-.18a2.186,2.186,0,0,1-1.73-.59.588.588,0,0,1-.12-.38C83.2,197.51,83.89,197.45,85.11,197.45Z" fill="#bcbcbc"/>
      <path id="Path_103" data-name="Path 103" d="M83.58,194.65a2.718,2.718,0,0,1,1.59-.42,2.058,2.058,0,0,1,1.47.49s-.14.66-.33,2.02c-.07.49-.1,1-.12,1.25a6.909,6.909,0,0,0-1.06-.09,7.426,7.426,0,0,0-1.13.09c-.02-.25-.05-.76-.12-1.25C83.71,195.38,83.58,194.65,83.58,194.65Z" fill="#1c5268"/>
      <path id="Path_104" data-name="Path 104" d="M83.64,195c.01.09.03.2.05.32a2.721,2.721,0,0,1,2.86-.05c.02-.13.04-.22.05-.3A2.929,2.929,0,0,0,83.64,195Zm.25,1.69c0,.02.01.04.01.06.01.08.02.17.03.25a3.063,3.063,0,0,1,2.37-.08c.01-.06.01-.12.02-.18s.01-.08.02-.12A3.257,3.257,0,0,0,83.89,196.69Zm-.12-.86c.01.1.03.21.05.31a2.826,2.826,0,0,1,2.6-.07c.02-.1.03-.21.05-.3A3.1,3.1,0,0,0,83.77,195.83Zm.21,1.72c.01.12.02.22.02.31a3.39,3.39,0,0,1,2.21-.08c.01-.09.01-.19.02-.3A3.716,3.716,0,0,0,83.98,197.55Z" fill="#7cd8cf"/>
      <path id="Path_105" data-name="Path 105" d="M72.48,147.4c-.28-1.94-1.43-6.41,2.11-7.57,4.78-1.57,10.85.58,11.54,8.88.38,4.66.59,14.13-.17,16.24-1.76,4.92-8.27,4.98-9.34,1.54C75.34,162.35,72.97,150.78,72.48,147.4Z" fill="url(#linear-gradient-27)"/>
      <path id="Path_106" data-name="Path 106" d="M68.22,195.5" fill="none" stroke="#00425a" stroke-miterlimit="10" stroke-width="0.122"/>
      <path id="Path_107" data-name="Path 107" d="M59.11,198.42c.59-.28,1.5-.45,2.64-.9.04.08.22.35.98.24a8.4,8.4,0,0,0,3.45-1.75c1.04-.88,1.54-1,2.05-.51a1.776,1.776,0,0,0,.25-.45,2.38,2.38,0,0,0,1.7.51,2.848,2.848,0,0,0,1.57-.87c.2-.15.37-.2.56.02a3.4,3.4,0,0,1,.72,2.04c.06.67.09,1.38.1,1.98-.21.01-3.32.19-5.94.57-2.71.39-7.28.57-8.77.04A1.09,1.09,0,0,1,59.11,198.42Z" fill="#e2e2e2"/>
      <path id="Path_108" data-name="Path 108" d="M58.41,199.34c1.49.53,6.06.34,8.77-.04,2.63-.38,5.73-.56,5.94-.57.01.5.01.92.02,1.18.01.56-.12.99-1.37,1.01s-7.28.11-9.89.15-3.34.16-3.41-.61A4.306,4.306,0,0,1,58.41,199.34Z" fill="#1c5268"/>
      <path id="Path_109" data-name="Path 109" d="M68.44,195.12a1.674,1.674,0,0,1-.22.38,2.455,2.455,0,0,0,1.96.74c.89-.09,1.32-1.07,1.67-1.47.02-.02-.01-.06-.04-.04a3.107,3.107,0,0,0-.25.2,2.38,2.38,0,0,1-1.39.7,1.341,1.341,0,0,1-.2.01h0A2.491,2.491,0,0,1,68.44,195.12Z" fill="#e54600"/>
      <path id="Path_110" data-name="Path 110" d="M66.99,195.4a.435.435,0,0,0,.07-.04h0a.25.25,0,0,1-.07.04Zm6.4,2.29h0a.41.41,0,0,0-.01-.11A.375.375,0,0,1,73.39,197.69Zm-6.94-2.24h0a.92.92,0,0,0-.08.05h0C66.4,195.48,66.42,195.47,66.45,195.45Z" fill="#bc5000"/>
      <path id="Path_111" data-name="Path 111" d="M70.18,196.24a2.455,2.455,0,0,1-1.96-.74,2.275,2.275,0,0,1-.28-.31l-.31-4.25s4.04-.56,4.08.13c.03.5.11,2.11.11,3.73C71.48,195.21,71.05,196.15,70.18,196.24Z" fill="url(#linear-gradient-28)"/>
      <path id="Path_112" data-name="Path 112" d="M66.17,196a8.345,8.345,0,0,1-3.45,1.75c-.76.11-.94-.16-.98-.24a11.536,11.536,0,0,0,2.09-1.07c2.11-1.36,3.16-2.41,3.86-2.42a.757.757,0,0,1,.77,1.02,1.462,1.462,0,0,1-.25.46C67.71,195,67.21,195.13,66.17,196Z" fill="#1c5268"/>
      <path id="Path_113" data-name="Path 113" d="M65.28,195.45l.77.66a1.471,1.471,0,0,1,.13-.1l.18-.15-.78-.67a.078.078,0,0,0-.11,0,2.026,2.026,0,0,0-.18.13A.075.075,0,0,0,65.28,195.45Zm-.62.39a.079.079,0,0,0-.11-.01l-.18.12a.085.085,0,0,0-.01.13l.68.72.33-.21Zm1.48-1.01.78.61a1.66,1.66,0,0,1,.39-.18l-.88-.69a.091.091,0,0,0-.1,0,2.026,2.026,0,0,0-.18.13A.08.08,0,0,0,66.14,194.83Zm-2.39,1.63a.083.083,0,0,0-.12-.02c-.06.04-.12.07-.18.11a.1.1,0,0,0-.03.13l.51.7c.12-.05.24-.11.36-.16Zm-1.15.55c-.06.03-.13.06-.19.09a.1.1,0,0,0-.04.13l.35.53a3.7,3.7,0,0,0,.4-.09l-.41-.63A.08.08,0,0,0,62.6,197.01Z" fill="#7cd8cf"/>
      <path id="Path_114" data-name="Path 114" d="M71.98,192.58s-.36-22-.35-27.37c.01-5.27-.18-8.21-5.55-7.11s-4.87,3.37-3.46,10.79c1.43,7.41,5.05,24.19,5.05,24.19Z" fill="url(#linear-gradient-29)"/>
      <path id="Path_115" data-name="Path 115" d="M63.11,197.67h.02c.13-.04.27-.08.41-.13a1.2,1.2,0,0,1-.2.9,1.878,1.878,0,0,1-1.55.57h-.08a11.256,11.256,0,0,1-3.04-.25,1.184,1.184,0,0,1,.44-.33c.59-.28,1.5-.45,2.64-.9a.385.385,0,0,0,.22.19,1.486,1.486,0,0,0,.76.05,2.968,2.968,0,0,1,.38-.1Z" fill="#bcbcbc"/>
      <path id="Path_116" data-name="Path 116" d="M61.61,125.59a63.821,63.821,0,0,0-2.3,6.01c-.24,1.04,1.19,2.5,2.8,1.89.85-.32,2.68-2.72,3.99-5.28C67.12,126.25,61.97,125.35,61.61,125.59Z" fill="#fcbc8f"/>
      <path id="Path_117" data-name="Path 117" d="M71,119.57a50.8,50.8,0,0,1-2.32,10.72c-2.33.97-6.48-.19-8.18-2.5.98-2.53,1.39-3.56,2.68-6.74.88-2.16,1.57-4.24,2.79-5.29a2.952,2.952,0,0,1,2.63-.63C70.29,115.46,71.33,117.05,71,119.57Z" fill="url(#linear-gradient-30)"/>
      <path id="Path_118" data-name="Path 118" d="M77.95,114.53a35.841,35.841,0,0,0-9.93.31,6.247,6.247,0,0,0-1.41.48c-.31,1.88-.61,6.3,3.12,7.44,4.76,1.45,8.39.42,9.86-2.37,1.19-2.26,1.33-4.1,1.85-5.24A18.2,18.2,0,0,0,77.95,114.53Z" fill="#e93701"/>
      <path id="Path_119" data-name="Path 119" d="M77.48,114.5a42.691,42.691,0,0,0-6.88-.02c.22,1.13.24,2.81,1.91,3.41.28.1.41.81.77,1.86a3.4,3.4,0,0,1,1.2-1.74A4.36,4.36,0,0,0,77.48,114.5Z" fill="#fcbc8f"/>
      <path id="Path_120" data-name="Path 120" d="M70.78,112.36a21,21,0,0,1,.64,2.58c.07.36.14.74.2,1.15.2,1.35,1.96,1.1,3.36.81,2.2-.46,1.86-2.12,1.86-2.12s-.97-4.88-1.37-6.5C75.1,106.83,70.81,110.79,70.78,112.36Z" fill="#fcbc8f"/>
      <path id="Path_121" data-name="Path 121" d="M65.28,105.42c.3,2.15,1.41,6.63,3.06,7.79,1.6,1.12,7.76-.76,7.71-3.92a37.456,37.456,0,0,0-.85-6.32,2.281,2.281,0,0,0-1.84-1.8C70.49,100.65,64.55,100.17,65.28,105.42Z" fill="#fcbc8f"/>
      <path id="Path_122" data-name="Path 122" d="M77.26,99.5a2.031,2.031,0,0,0-1.5-.02s.17-.9-1.02-1.52a7.791,7.791,0,0,0-5.62-.19c-2.83.94-5.67.75-6.48,2.27-1.17,2.19.96,4.99,1.74,5.37,2.77,1.35,6.41-1.75,7.82-1.19.68.27,1.03,1.45,1.03,1.45s1.4-1.72,2.17-.3c.73,1.35-1.36,2.61-1.36,2.61s.78,3.45,1.81,3.42c.52-.01,2.98-2.18,3.34-6.33C79.42,102.3,78.84,100.51,77.26,99.5Z" fill="url(#linear-gradient-31)"/>
      <path id="Path_123" data-name="Path 123" d="M78.09,114.55a5.151,5.151,0,0,0-1.44-.67,4.3,4.3,0,0,1-.14,1.96A4.536,4.536,0,0,1,74.47,118a3.166,3.166,0,0,1,1.5,2.36.372.372,0,0,0,.65.16,7.143,7.143,0,0,0,.9-1.54A9.151,9.151,0,0,0,78.09,114.55Z" fill="url(#linear-gradient-32)"/>
      <path id="Path_124" data-name="Path 124" d="M72.51,117.88a2.407,2.407,0,0,1-1.19-1.77,3.451,3.451,0,0,1,0-1.6l-.1-.47s-1.05.21-1.28.5a7.454,7.454,0,0,0-.47,3.99,3.922,3.922,0,0,0,.63,1.49.412.412,0,0,0,.73-.1C71.1,119.15,71.63,118.01,72.51,117.88Z" fill="url(#linear-gradient-33)"/>
      <path id="Path_125" data-name="Path 125" d="M85.73,129.56" fill="none" stroke="#e93701" stroke-miterlimit="10" stroke-width="1"/>
      <path id="Path_126" data-name="Path 126" d="M84.88,119.29c-.33-1.96-.85-3.43-3.81-4.24h0a21.468,21.468,0,0,0-.89,2.68q-.15.54-.33,1.11c-.83,2.76-3.04,4.24-6.13,4.24a12.745,12.745,0,0,1-3.54-.55,4.1,4.1,0,0,1-2.65-2.12,8.326,8.326,0,0,1-.28-5.36c-1.26.43-1.82,1.07-1.88,1.97a29.808,29.808,0,0,0,.11,5.28c.24,4,.47,15.92-1.62,24.56,1.89,2.07,5.59,2.98,15.75,2.97,5.87-.01,6.62-1.88,6.62-1.88S87.07,132.09,84.88,119.29Z" fill="#e5e5e5"/>
      <path id="Path_127" data-name="Path 127" d="M90.28,125.48a63.51,63.51,0,0,1,2.51,5.93c.28,1.03-1.1,2.54-2.74,1.99-.87-.29-2.77-2.62-4.18-5.14C84.8,126.34,89.91,125.25,90.28,125.48Z" fill="#fcbc8f"/>
      <path id="Path_128" data-name="Path 128" d="M80.97,121.75a6.249,6.249,0,0,0,.59,3.7c.51,1.25,1.44,2.89,2.42,4.8a7.477,7.477,0,0,0,7.7-2.64,34.2,34.2,0,0,0-3.15-5.69c-1.88-3.09-4.41-5.54-5.52-6.02C81.34,116.24,81.25,118.98,80.97,121.75Z" fill="url(#linear-gradient-34)"/>
      <path id="Path_129" data-name="Path 129" d="M73.73,123.6a13.209,13.209,0,0,1-3.68-.57,4.62,4.62,0,0,1-2.97-2.38,8.459,8.459,0,0,1-.4-5.36c.02-.12.21-.43.81-.57.98-.22,1.14,0,1.14,0l-.04.24c-.3,1.17-.69,3.37.08,4.88a2.874,2.874,0,0,0,1.87,1.47,12,12,0,0,0,3.22.5c2.53,0,4.22-1.16,4.88-3.34.11-.37.22-.73.32-1.08a24.058,24.058,0,0,1,.87-2.64,1.069,1.069,0,0,1,.86-.13c.85.19.88.57.88.57a22.671,22.671,0,0,0-.89,2.68L80.35,119C79.45,121.96,77.1,123.6,73.73,123.6Z" fill="#00416d"/>
      <path id="Path_130" data-name="Path 130" d="M57.46,128.88a18.1,18.1,0,0,0,2.09,3.73,1.9,1.9,0,0,0,3.01.31c1.2-.97-.45-2.82-2.78-5.6C58.32,125.59,57.17,128.12,57.46,128.88Z" fill="#fcbc8f"/>
      <path id="Path_131" data-name="Path 131" d="M57.48,126.62c.37-1.29,1.57-2.73,2.26-2.51.73.23.23,1.21-.17,2.66a2.514,2.514,0,0,1-1.41,1.86C57.63,128.79,57.07,128.05,57.48,126.62Z" fill="url(#linear-gradient-35)"/>
      <path id="Path_132" data-name="Path 132" d="M59.08,121.66l-.02.02h.01A.035.035,0,0,0,59.08,121.66Z" fill="#e2e2e2"/>
      <path id="Path_133" data-name="Path 133" d="M67,129.82l-1.47-8.26a.556.556,0,0,0-.53-.44H59.7a.377.377,0,0,0-.29.13h0l-.32.4h0a.34.34,0,0,0-.08.31l1.47,8.26a.538.538,0,0,0,.53.42h5.3a.389.389,0,0,0,.31-.15h0l.29-.37.03-.03.03-.04-.01-.01A.262.262,0,0,0,67,129.82Z" fill="#afafaf"/>
      <path id="Path_134" data-name="Path 134" d="M66.68,130.22a.348.348,0,0,1-.37.42h-5.3a.547.547,0,0,1-.53-.42l-1.47-8.26a.363.363,0,0,1,.37-.44h5.3a.565.565,0,0,1,.53.44Z" fill="url(#linear-gradient-36)"/>
      <path id="Path_135" data-name="Path 135" d="M63.72,124.34a.972.972,0,0,1-.98,1.18,1.47,1.47,0,0,1-1.39-1.18.972.972,0,0,1,.98-1.18A1.479,1.479,0,0,1,63.72,124.34Z" fill="#fff"/>
      <path id="Path_136" data-name="Path 136" d="M62.9,125.36a1.47,1.47,0,0,1-1.39-1.18,1.03,1.03,0,0,1,.19-.82.963.963,0,0,0-.35.98,1.461,1.461,0,0,0,1.39,1.18.969.969,0,0,0,.79-.37A.977.977,0,0,1,62.9,125.36Z" opacity="0.25" fill="url(#linear-gradient-37)"/>
      <path id="Path_137" data-name="Path 137" d="M57.39,127.02c.28-1.53.95-1.13,2.25-1.08a9.325,9.325,0,0,0,2.24-.11c1.21-.23,1.24,4.78.02,4.89a17.672,17.672,0,0,1-2.07,0C57.72,130.58,57.07,128.74,57.39,127.02Z" fill="url(#linear-gradient-38)"/>
      <path id="Path_138" data-name="Path 138" d="M90.73,129.73c2.05.6,2.5,1.76,1.77,3.26-.46.95-3.12.67-4.88.38-3.36-.55-9.56-1.98-15.46-3.13a.831.831,0,0,1-.73-1.1h0a1.028,1.028,0,0,1,1.13-.84C80.21,128.58,85.79,128.29,90.73,129.73Z" fill="#fcbc8f"/>
      <g id="Group_51" data-name="Group 51">
        <path id="Path_139" data-name="Path 139" d="M69.66,129.37c-.52-.42-1.04-1.06-.77-1.49.37-.59,1.37.38,2.85.78.96.26,1.63,1.56.77,1.56A3.982,3.982,0,0,1,69.66,129.37Z" fill="url(#linear-gradient-39)"/>
        <path id="Path_140" data-name="Path 140" d="M73.65,130.22c1.65,0,1.62-2.43,1.11-3.56-.6-1.31-6.29-1.17-6.18-.1.06.62,1.25.42,1.41.43.01,1.25.74,3.22,2.43,3.22C73.15,130.22,73.03,130.22,73.65,130.22Z" fill="url(#linear-gradient-40)"/>
      </g>
    </g>
    <g id="Group_54" data-name="Group 54">
      <path id="Path_141" data-name="Path 141" d="M174.24,56.77c-2.9-1.64-1.26-5.77,2.53-4.58.62-3.1,1.8-7.9,3.21-9.39a3.854,3.854,0,0,1,4.56-1.03s1.45-2.18,6.39-.64,3.81,7.8,2.21,11.73c-1.68,4.11-2.46,4.69-3.9,4.95C185.65,58.43,175.72,57.61,174.24,56.77Z" fill="url(#linear-gradient-41)"/>
      <path id="Path_142" data-name="Path 142" d="M193.41,68.48a53.415,53.415,0,0,1,3.38,5.58c.39.99-1.01,2.64-2.69,2.28-.89-.19-3.04-2.28-4.73-4.6C188.09,69.96,193.02,68.3,193.41,68.48Z" fill="url(#linear-gradient-42)"/>
      <path id="Path_143" data-name="Path 143" d="M189.2,59.52a64.73,64.73,0,0,1,5.46,10.36c-1.08,2.27-6.43,4.21-9.23,3.62-.96-2.53-3.18-7.44-4.2-10.7C180.35,59.99,186.64,55.58,189.2,59.52Z" fill="url(#linear-gradient-43)"/>
      <path id="Path_144" data-name="Path 144" d="M194.89,72.53c-2,.72-2.37,1.91-1.55,3.36.24.43.95.56,1.81.53a16.493,16.493,0,0,0,3.07-.47c3.3-.76,11.74-3.07,17.53-4.59a1.129,1.129,0,0,0,.97-1.23h0a1.037,1.037,0,0,0-1.18-.77C207.95,70.13,199.71,70.78,194.89,72.53Z" fill="url(#linear-gradient-44)"/>
      <path id="Path_145" data-name="Path 145" d="M118.82,48.27" fill="none" stroke="#00425a" stroke-miterlimit="10" stroke-width="0.115"/>
      <path id="Path_146" data-name="Path 146" d="M109.37,49.58c.65,0,1.55-.24,2.76-.33,0-.09.04-.41.77-.63a8.279,8.279,0,0,1,3.85.08c1.31.34,1.82.24,2.06-.43a1.723,1.723,0,0,1,.42.3,2.39,2.39,0,0,1,1.31-1.19,2.894,2.894,0,0,1,1.78.1c.25.05.42.02.5-.26a3.314,3.314,0,0,0-.24-2.14c-.24-.63-.52-1.28-.76-1.82-.19.08-3.06,1.26-5.58,2.05-2.6.82-6.79,2.62-7.89,3.74A1.114,1.114,0,0,0,109.37,49.58Z" fill="#e2e2e2"/>
      <path id="Path_147" data-name="Path 147" d="M108.35,49.05c1.11-1.12,5.3-2.92,7.89-3.74,2.52-.79,5.39-1.97,5.58-2.05-.2-.45-.38-.83-.49-1.06-.23-.51-.54-.84-1.67-.32s-6.58,3.04-8.95,4.13-3.07,1.3-2.8,2.02A4.687,4.687,0,0,0,108.35,49.05Z" fill="#01121c"/>
      <path id="Path_148" data-name="Path 148" d="M120.33,47.38h0c.06-.03.12-.05.19-.08a2.432,2.432,0,0,1,1.55.03c.12.03.22.06.31.08.03.01.05-.04.02-.05-.49-.21-1.3-.91-2.14-.6a2.441,2.441,0,0,0-1.44,1.51,1.743,1.743,0,0,1,.36.24A2.536,2.536,0,0,1,120.33,47.38Z" fill="#e54600"/>
      <path id="Path_149" data-name="Path 149" d="M117.76,48.88h.08a.11.11,0,0,1-.08,0Z" fill="#bc5000"/>
      <path id="Path_150" data-name="Path 150" d="M113.14,47.71a1.891,1.891,0,0,0-1.64.15c-.02.01-.05.02-.07.03a11.76,11.76,0,0,0-2.65,1.55,1.291,1.291,0,0,0,.59.12c.65,0,1.55-.24,2.76-.33,0-.09.04-.41.77-.63a4.023,4.023,0,0,1,.82-.15h0A1.257,1.257,0,0,0,113.14,47.71Z" fill="#bcbcbc"/>
      <path id="Path_151" data-name="Path 151" d="M122.24,44.21h0c.01.03.03.07.04.1C122.27,44.28,122.25,44.24,122.24,44.21Zm-4.58,4.67h0c-.03,0-.06-.01-.09-.01h0A.277.277,0,0,1,117.66,48.88Z" fill="#bc5000"/>
      <path id="Path_152" data-name="Path 152" d="M120.25,46.76a2.441,2.441,0,0,0-1.44,1.51,1.628,1.628,0,0,0-.11.4l3.15,4.1s3.16-2.55,2.69-3.06c-.34-.36-1.54-1.67-2.18-2.37C121.87,47.12,121.07,46.46,120.25,46.76Z" fill="url(#linear-gradient-45)"/>
      <path id="Path_153" data-name="Path 153" d="M116.76,48.7a8.279,8.279,0,0,0-3.85-.08c-.73.23-.78.55-.77.63a11.79,11.79,0,0,1,2.34.06c2.48.31,3.88.8,4.51.51a.762.762,0,0,0,.26-1.25,1.723,1.723,0,0,0-.42-.3C118.57,48.94,118.07,49.04,116.76,48.7Z" fill="#01121c"/>
      <path id="Path_154" data-name="Path 154" d="M116.25,49.7c.07.01.14.03.21.04a.072.072,0,0,0,.09-.05l.41-.93c-.07-.02-.14-.04-.22-.06-.05-.01-.1-.03-.16-.04l-.41.92A.121.121,0,0,0,116.25,49.7Zm-.47-1.19c-.13-.02-.26-.03-.39-.04l-.3.94a.085.085,0,0,0,.07.11l.21.03a.1.1,0,0,0,.1-.06Zm1.52,1.38c.08.01.15.03.22.04a.076.076,0,0,0,.09-.05l.49-1a1.541,1.541,0,0,1-.43,0l-.44.89A.089.089,0,0,0,117.3,49.89Zm-2.74-1.46c-.13,0-.26,0-.39.01l-.16.85a.085.085,0,0,0,.08.1c.07.01.14.01.21.02a.075.075,0,0,0,.09-.07Zm-1.35.83.1-.74c-.15.03-.28.06-.4.09l-.08.62a.086.086,0,0,0,.09.1h.21A.1.1,0,0,0,113.21,49.26Z" fill="#7cd8cf"/>
      <path id="Path_155" data-name="Path 155" d="M123.61,48.5s12.34,11.8,16.25,15.45c3.84,3.59,9.25,9.18,4.78,12.33s-9.02-3.08-13.44-9.16-10.89-15.83-10.89-15.83Z" fill="url(#linear-gradient-46)"/>
      <path id="Path_156" data-name="Path 156" d="M154.21,61.47c1.92-.4,6.42-1.46,8.14,1.83,2.31,4.44,3.66,8.85-4.38,10.87-4.74,1.19-6.1,1.41-10.37,2.48-7.03,1.76-9.33-.49-10.21-3.76C135.9,67.35,143.42,63.7,154.21,61.47Z" fill="url(#linear-gradient-47)"/>
      <path id="Path_157" data-name="Path 157" d="M158.3,63.64c1.96,0,6.48,2.79,7.27,6.41,1.07,4.89,1.21,9.5-7.08,9.34-4.88-.1-6.25-.24-10.66-.33-7.25-.14-8.88-2.92-8.87-6.31C139,67.03,149.67,63.64,158.3,63.64Z" fill="url(#linear-gradient-48)"/>
      <path id="Path_158" data-name="Path 158" d="M135.63,41.13" fill="none" stroke="#00425a" stroke-miterlimit="10" stroke-width="0.115"/>
      <path id="Path_159" data-name="Path 159" d="M126.78,37.56c.56.32,1.46.56,2.56,1.09.04-.07.24-.33.99-.16a8.3,8.3,0,0,1,3.3,1.99c.97.95,1.46,1.11,2,.66a1.485,1.485,0,0,1,.21.47,2.366,2.366,0,0,1,1.73-.38,2.807,2.807,0,0,1,1.49.98c.19.17.36.23.56.02a3.326,3.326,0,0,0,.86-1.98c.11-.66.19-1.37.25-1.96-.21-.03-3.28-.44-5.86-1-2.66-.59-7.19-1.11-8.71-.69A1.117,1.117,0,0,0,126.78,37.56Z" fill="#e2e2e2"/>
      <path id="Path_160" data-name="Path 160" d="M126.16,36.59c1.52-.42,6.05.1,8.71.69,2.58.57,5.65.98,5.86,1,.05-.5.08-.91.1-1.17.05-.56-.05-1-1.29-1.11l-9.82-.87c-2.6-.23-3.31-.4-3.44.36A6.062,6.062,0,0,0,126.16,36.59Z" fill="#01121c"/>
      <path id="Path_161" data-name="Path 161" d="M137.38,41.12h0a1.38,1.38,0,0,1,.2.03,2.4,2.4,0,0,1,1.33.8,2.281,2.281,0,0,0,.23.22.028.028,0,0,0,.04-.04c-.32-.42-.68-1.43-1.55-1.59a2.439,2.439,0,0,0-2,.59,1.593,1.593,0,0,1,.19.39A2.5,2.5,0,0,1,137.38,41.12Z" fill="#e54600"/>
      <path id="Path_162" data-name="Path 162" d="M134.4,41.14c.02.02.05.03.07.05h0a.231.231,0,0,0-.07-.05Z" fill="#bc5000"/>
      <path id="Path_163" data-name="Path 163" d="M130.98,37.82a1.838,1.838,0,0,0-1.49-.68.22.22,0,0,1-.08-.01,11.475,11.475,0,0,0-3.07.03,1.276,1.276,0,0,0,.45.4c.56.32,1.46.56,2.56,1.09.04-.07.24-.33.99-.16a4.147,4.147,0,0,1,.78.28h0A1.3,1.3,0,0,0,130.98,37.82Z" fill="#bcbcbc"/>
      <path id="Path_164" data-name="Path 164" d="M140.61,39.31h0c0,.04-.01.07-.01.11A.375.375,0,0,0,140.61,39.31Zm-6.29,1.77h0c-.02-.02-.05-.03-.07-.05h0C134.27,41.04,134.29,41.06,134.32,41.08Z" fill="#bc5000"/>
      <path id="Path_165" data-name="Path 165" d="M137.63,40.54a2.439,2.439,0,0,0-2,.59,2.113,2.113,0,0,0-.3.29l.69,5.12s4.01-.64,3.85-1.31c-.12-.49-.5-2.22-.71-3.14C138.84,41.65,138.48,40.69,137.63,40.54Z" fill="url(#linear-gradient-49)"/>
      <path id="Path_166" data-name="Path 166" d="M133.63,40.48a8.3,8.3,0,0,0-3.3-1.99c-.75-.17-.95.09-.99.16a11.315,11.315,0,0,1,2,1.22c2,1.51,2.96,2.63,3.65,2.69a.753.753,0,0,0,.84-.95,1.485,1.485,0,0,0-.21-.47C135.08,41.59,134.59,41.43,133.63,40.48Z" fill="#01121c"/>
      <path id="Path_167" data-name="Path 167" d="M132.69,41.1l.17.14a.078.078,0,0,0,.11,0l.82-.6c-.05-.05-.11-.1-.16-.16-.04-.04-.08-.07-.12-.11l-.81.6A.079.079,0,0,0,132.69,41.1Zm.19-1.27a3.712,3.712,0,0,0-.32-.23l-.73.67a.085.085,0,0,0,0,.13c.06.04.11.09.17.13a.09.09,0,0,0,.11,0Zm.63,1.95c.06.05.12.1.17.14a.076.076,0,0,0,.1,0l.93-.62a2.021,2.021,0,0,1-.37-.21l-.82.55A.08.08,0,0,0,133.51,41.78Zm-1.66-2.63c-.12-.07-.23-.13-.34-.19l-.56.66a.087.087,0,0,0,.02.13c.06.04.11.08.17.12a.091.091,0,0,0,.12-.01Zm-1.58.05.46-.59q-.21-.075-.39-.12l-.38.5a.089.089,0,0,0,.03.13,1.739,1.739,0,0,1,.18.11A.107.107,0,0,0,130.27,39.2Z" fill="#7cd8cf"/>
      <path id="Path_168" data-name="Path 168" d="M139.67,43.72s4.82,16.38,6.39,21.49c1.54,5.02,3.45,12.57-1.99,13.08s-6.28-7.16-7.09-14.64-1.56-19.15-1.56-19.15Z" fill="url(#linear-gradient-50)"/>
      <path id="Path_169" data-name="Path 169" d="M188.55,58.73c2.36,3.23,2.82,9.89-.95,15.57-1.61,2.43-3.83,5.09-8.27,5.09h-21.1a36.067,36.067,0,0,1-1.05-8.79c-.06-2.52-.22-6.81,2.04-9.49,3.18.3,5.46,1.66,8.77,1.66,5.37,0,3.51-1.96,6.58-4.27C176.77,56.83,187.09,56.73,188.55,58.73Z" fill="#e5e5e5"/>
      <path id="Path_170" data-name="Path 170" d="M187.13,55.73s-.08,1.01-.08,2.13a3.586,3.586,0,0,1-.05,1.86c-.14.69-.31.99-.72,1.2-.26.14-.7,4.94-.99,6.75,0-1.82-.03-6.26-1.13-6.61a3.636,3.636,0,0,1-2.57-2.76s.72-4.55.99-6.18C182.82,50.65,186.97,54.17,187.13,55.73Z" fill="#fcbc8f"/>
      <path id="Path_171" data-name="Path 171" d="M193.35,49.01c-.21,2.16-1.64,6.43-3.25,7.65-1.55,1.18-7.76-.39-7.85-3.54a36.672,36.672,0,0,1,.6-6.32c.15-.92,1.36-1.49,2.27-1.69C187.98,44.46,193.87,43.76,193.35,49.01Z" fill="#fcbc8f"/>
      <path id="Path_172" data-name="Path 172" d="M193.85,48.06a4.03,4.03,0,0,1-.47,2.02,19.233,19.233,0,0,1-6.66-1.1,7.6,7.6,0,0,0,.45-2.53,11.053,11.053,0,0,1-1.13,2.09,2.346,2.346,0,0,1-1.2.73s-1.44-1.52-2.14-.08c-.67,1.37,1.43,2.42,1.43,2.42s-.1,3.89-2.77,3.39c-.49-.17-.86-4.05-.44-7.75.44-3.9,2.13-4.36,6.79-4.05C188.68,43.25,194.15,42.41,193.85,48.06Z" fill="url(#linear-gradient-51)"/>
      <path id="Path_173" data-name="Path 173" d="M197.77,76.93c.6-.25,1.76-.76,1.74-1.27-.04-.8-1.42-.36-2.94-.57-.98-.14-2.44,2.43-1.58,2.43A7.612,7.612,0,0,0,197.77,76.93Z" fill="url(#linear-gradient-52)"/>
      <path id="Path_174" data-name="Path 174" d="M200.28,78.56a.688.688,0,0,0,.72.83h17.31a1.061,1.061,0,0,0,1.03-.83l2.21-12.35a.711.711,0,0,0-.72-.86H203.52a1.1,1.1,0,0,0-1.03.86Z" fill="#e2e2e2"/>
      <path id="Path_175" data-name="Path 175" d="M221.41,65.63l-.02-.02c.01.01.01.02.02.02ZM188.58,78.9v.22a.275.275,0,0,0,.31.27H201a.683.683,0,0,1-.72-.83l2.21-12.35a1.088,1.088,0,0,1,1.03-.86h17.31a.744.744,0,0,1,.57.25l-.45-.54h0l-.01-.01h-.01a.709.709,0,0,0-.55-.24H203.07a1.1,1.1,0,0,0-1.03.86l-1.78,9.94h0l-.53,2.94H188.9A.342.342,0,0,0,188.58,78.9Z" fill="#e2e2e2"/>
      <path id="Path_176" data-name="Path 176" d="M200.28,78.56a.688.688,0,0,0,.72.83h17.31a1.061,1.061,0,0,0,1.03-.83l2.21-12.35a.711.711,0,0,0-.72-.86H203.52a1.1,1.1,0,0,0-1.03.86Z" fill="url(#linear-gradient-53)"/>
      <path id="Path_177" data-name="Path 177" d="M208.4,72.37a2.055,2.055,0,0,0,2.08,2.51,3.108,3.108,0,0,0,2.94-2.51,2.059,2.059,0,0,0-2.08-2.51A3.119,3.119,0,0,0,208.4,72.37Z" fill="#fff"/>
      <path id="Path_178" data-name="Path 178" d="M210.13,74.53a3.108,3.108,0,0,0,2.94-2.51,2.162,2.162,0,0,0-.4-1.73,2.1,2.1,0,0,1,.75,2.08,3.1,3.1,0,0,1-2.94,2.51,2.084,2.084,0,0,1-1.67-.77A2.125,2.125,0,0,0,210.13,74.53Z" opacity="0.25" fill="url(#linear-gradient-54)"/>
      <path id="Path_179" data-name="Path 179" d="M180.14,58.18a1.092,1.092,0,0,1,.6-.94c.21-.13,1.12-.59,1.12-.59a3.778,3.778,0,0,0,2.31,4.4,3.2,3.2,0,0,0-1.72,2.14.351.351,0,0,1-.62.15,6.728,6.728,0,0,1-.86-1.47A8.855,8.855,0,0,1,180.14,58.18Zm6.14,2.74c.9-.58.89-2.61.77-3.06v-.49l.55.27a1.492,1.492,0,0,1,.72.82,5.62,5.62,0,0,1,.51,3.25,3.533,3.533,0,0,1-.61,1.43.394.394,0,0,1-.7-.1C187.27,62.3,187.12,61.04,186.28,60.92Z" fill="#00416d"/>
      <path id="Path_180" data-name="Path 180" d="M215,61.01c0,.6.37.76.82.37l4.4-3.86H215Z" fill="#ea816a"/>
      <path id="Path_181" data-name="Path 181" d="M236.07,38.95H210.49a1.468,1.468,0,0,0-1.46,1.46V56.07a1.468,1.468,0,0,0,1.46,1.46h25.58a1.468,1.468,0,0,0,1.46-1.46V40.41A1.462,1.462,0,0,0,236.07,38.95Z" fill="#ea816a"/>
      <path id="Path_182" data-name="Path 182" d="M209.04,43.73V56.07a1.468,1.468,0,0,0,1.46,1.46H215v3.49c0,.6.37.76.82.37l4.4-3.86h15.86a1.468,1.468,0,0,0,1.46-1.46V43.73Z" fill="url(#linear-gradient-55)"/>
      <path id="Path_183" data-name="Path 183" d="M220.96,44.76c-.41-.24-.75-.05-.75.42v6.11c0,.48.34.67.75.42l5.08-3.03a.476.476,0,0,0,0-.89Z" fill="#fcebf2"/>
      <path id="Path_184" data-name="Path 184" d="M250.78,65.9a1.468,1.468,0,0,1-1.46,1.46H232.21a1.468,1.468,0,0,1-1.46-1.46V52.81a1.468,1.468,0,0,1,1.46-1.46h17.11a1.468,1.468,0,0,1,1.46,1.46Z" fill="#00416d"/>
      <path id="Path_185" data-name="Path 185" d="M230.75,55.25V65.9a1.468,1.468,0,0,0,1.46,1.46h17.11a1.468,1.468,0,0,0,1.46-1.46V55.25Z" fill="url(#linear-gradient-56)"/>
      <path id="Path_186" data-name="Path 186" d="M238.76,59.25a.41.41,0,0,1,.58,0l.23.23a.41.41,0,0,0,.58,0l1.13-1.13a.41.41,0,0,1,.58,0l2.02,2.02c.16.16.11.29-.12.29h-6.01c-.23,0-.28-.13-.12-.29Z" fill="#f4f5f5"/>
      <path id="Path_187" data-name="Path 187" d="M240.33,58.56a.5.5,0,1,1-.5-.5A.5.5,0,0,1,240.33,58.56Z" fill="#f4f5f5"/>
      <path id="Path_188" data-name="Path 188" d="M186.11,61.46c-.26,1.33-.59,4.75-.82,6.2h0c0-1.52-.02-4.85-.67-6.12a3.724,3.724,0,0,0-.46.35,15.685,15.685,0,0,1,.5,1.81,19.2,19.2,0,0,1,.26,3.91c-.59,4.34-2.07,9.05-8.12,11.78h1.68c5.24-2.92,6.61-7.47,7.18-11.68.19-1.61.85-6.11.85-6.11Z" fill="url(#linear-gradient-57)"/>
      <path id="Path_189" data-name="Path 189" d="M174.04,75.09c-2.09.38-2.65,1.49-2.09,3.05.17.46.84.7,1.69.82a16.944,16.944,0,0,0,3.1.05c3.38-.2,12.09-1.08,18.05-1.61.67-.06,1.21-.51,1.16-1.06h0a1.022,1.022,0,0,0-1.03-.95C187.32,74.9,179.09,74.16,174.04,75.09Z" fill="#fcbc8f"/>
      <path id="Path_190" data-name="Path 190" d="M176.99,72.06s-1.36,4.75-2.02,6.09c-.47.96-2.5,1.18-3.36-.31-.45-.79-.34-3.78.26-6.59C172.33,69.1,176.86,71.65,176.99,72.06Z" fill="#fcbc8f"/>
      <path id="Path_191" data-name="Path 191" d="M180.4,63a54.519,54.519,0,0,1-3.13,11.34c-2.32.96-6.08-.31-7.76-2.62.99-2.52,2.3-8.55,3.87-11.59C175.17,56.64,181.17,57.2,180.4,63Z" fill="url(#linear-gradient-58)"/>
      <g id="Group_53" data-name="Group 53">
        <path id="Path_192" data-name="Path 192" d="M197.77,76.93c.6-.25,1.76-.76,1.74-1.27-.04-.8-1.42-.36-2.94-.57-.98-.14-2.44,2.43-1.58,2.43A7.612,7.612,0,0,0,197.77,76.93Z" fill="url(#linear-gradient-59)"/>
        <path id="Path_193" data-name="Path 193" d="M194.33,77.44c-1.6-.37-1.41-2.55-.81-3.62.7-1.25,6.26-.94,6.14.42-.05.62-1.28.32-1.43.31A3.227,3.227,0,0,1,194.33,77.44Z" fill="url(#linear-gradient-60)"/>
      </g>
    </g>
    <g id="Group_55" data-name="Group 55">
      <path id="Path_194" data-name="Path 194" d="M16.29,104.33a1.468,1.468,0,0,0,1.46,1.46H34.86a1.468,1.468,0,0,0,1.46-1.46V91.24a1.468,1.468,0,0,0-1.46-1.46H17.74a1.468,1.468,0,0,0-1.46,1.46v13.09Z" fill="#00416d"/>
      <path id="Path_195" data-name="Path 195" d="M36.31,93.68v10.66a1.468,1.468,0,0,1-1.46,1.46H17.74a1.468,1.468,0,0,1-1.46-1.46V93.68Z" fill="url(#linear-gradient-61)"/>
      <path id="Path_196" data-name="Path 196" d="M28.31,97.68a.41.41,0,0,0-.58,0l-.23.23a.41.41,0,0,1-.58,0l-1.13-1.13a.41.41,0,0,0-.58,0L23.19,98.8c-.16.16-.11.29.12.29h6.01c.23,0,.28-.13.12-.29Z" fill="#f4f5f5"/>
      <path id="Path_197" data-name="Path 197" d="M26.73,96.99a.5.5,0,1,0,.5-.5A.5.5,0,0,0,26.73,96.99Z" fill="#f4f5f5"/>
      <path id="Path_198" data-name="Path 198" d="M58.6,100.96H33.02a1.468,1.468,0,0,0-1.46,1.46v15.66a1.468,1.468,0,0,0,1.46,1.46H48.88l4.4,3.86c.45.39.82.23.82-.37v-3.49h4.51a1.468,1.468,0,0,0,1.46-1.46V102.42A1.477,1.477,0,0,0,58.6,100.96Z" fill="#ea816a"/>
      <path id="Path_199" data-name="Path 199" d="M60.06,105.73v12.34a1.468,1.468,0,0,1-1.46,1.46H54.09v3.49c0,.6-.37.76-.82.37l-4.4-3.86H33.02a1.468,1.468,0,0,1-1.46-1.46V105.73h28.5Z" fill="url(#linear-gradient-62)"/>
      <path id="Path_200" data-name="Path 200" d="M33.02,118.78a.713.713,0,0,1-.71-.71V102.41a.713.713,0,0,1,.71-.71H58.6a.713.713,0,0,1,.71.71v15.66a.713.713,0,0,1-.71.71H33.02Z" fill="#fff"/>
      <path id="Path_201" data-name="Path 201" d="M58.6,101.71H33.02a.713.713,0,0,0-.71.71v3.75H59.3v-3.75A.692.692,0,0,0,58.6,101.71Z" fill="#00416d"/>
      <path id="Path_202" data-name="Path 202" d="M59.31,108v-.25H55.02v-1.59h-.25v1.59H50.48v-1.59h-.25v1.59H45.94v-1.59h-.25v1.59H41.4v-1.59h-.25v1.59H36.86v-1.59H36.6v1.59H32.31V108H36.6v1.59H32.31v.25H36.6v1.59H32.31v.25H36.6v1.59H32.31v.25H36.6v1.59H32.31v.25H36.6v1.59H32.31v.25H36.6v1.59h.25V117.2h4.29v1.59h.25V117.2h4.29v1.59h.25V117.2h4.29v1.59h.25V117.2h4.29v1.59h.25V117.2H59.3v-.25H55.01v-1.59H59.3v-.25H55.01v-1.59H59.3v-.25H55.01v-1.59H59.3v-.25H55.01v-1.59H59.3v-.25H55.01V108Zm-18.17,8.94H36.85v-1.59h4.29Zm0-1.84H36.85v-1.59h4.29Zm0-1.84H36.85v-1.59h4.29Zm0-1.83H36.85v-1.59h4.29Zm0-1.84H36.85V108h4.29Zm4.54,7.35H41.39v-1.59h4.29Zm0-1.84H41.39v-1.59h4.29Zm0-1.84H41.39v-1.59h4.29Zm0-1.83H41.39v-1.59h4.29Zm0-1.84H41.39V108h4.29Zm4.55,7.35H45.94v-1.59h4.29Zm0-1.84H45.94v-1.59h4.29Zm0-1.84H45.94v-1.59h4.29Zm0-1.83H45.94v-1.59h4.29Zm0-1.84H45.94V108h4.29Zm4.54,7.35H50.48v-1.59h4.29Zm0-1.84H50.48v-1.59h4.29Zm0-1.84H50.48v-1.59h4.29Zm0-1.83H50.48v-1.59h4.29Zm0-1.84H50.48V108h4.29Z" fill="#e5e5e5"/>
      <path id="Path_203" data-name="Path 203" d="M37.02,105.41h2.62a.205.205,0,0,0,.21-.21v-2.58a.205.205,0,0,0-.21-.21H37.02a.205.205,0,0,0-.21.21v2.58A.205.205,0,0,0,37.02,105.41Z" fill="#0fbab6" opacity="0.5"/>
      <path id="Path_204" data-name="Path 204" d="M44.52,105.41h2.62a.205.205,0,0,0,.21-.21v-2.58a.205.205,0,0,0-.21-.21H44.52a.205.205,0,0,0-.21.21v2.58A.205.205,0,0,0,44.52,105.41Z" fill="#0fbab6"/>
      <path id="Path_205" data-name="Path 205" d="M40.77,105.41h2.62a.205.205,0,0,0,.21-.21v-2.58a.205.205,0,0,0-.21-.21H40.77a.205.205,0,0,0-.21.21v2.58A.205.205,0,0,0,40.77,105.41Z" fill="#0fbab6" opacity="0.75"/>
      <path id="Path_206" data-name="Path 206" d="M52.01,105.41h2.62a.205.205,0,0,0,.21-.21v-2.58a.205.205,0,0,0-.21-.21H52.01a.205.205,0,0,0-.21.21v2.58A.211.211,0,0,0,52.01,105.41Z" fill="#0fbab6" opacity="0.5"/>
      <path id="Path_207" data-name="Path 207" d="M48.27,105.41h2.62a.205.205,0,0,0,.21-.21v-2.58a.205.205,0,0,0-.21-.21H48.27a.205.205,0,0,0-.21.21v2.58A.2.2,0,0,0,48.27,105.41Z" fill="#0fbab6" opacity="0.75"/>
      <path id="Path_208" data-name="Path 208" d="M55.55,102.63v2.58a.205.205,0,0,0,.21.21h2.59a.205.205,0,0,0,.21-.21l.03-2.58a.205.205,0,0,0-.21-.21H55.76A.2.2,0,0,0,55.55,102.63Zm-22.28,2.78h2.62a.205.205,0,0,0,.21-.21v-2.58a.205.205,0,0,0-.21-.21H33.27a.205.205,0,0,0-.21.21v2.58A.205.205,0,0,0,33.27,105.41Z" fill="#0fbab6" opacity="0.25"/>
    </g>
  </g>
</svg>
