<svg xmlns="http://www.w3.org/2000/svg" width="280" height="166.479" viewBox="0 0 280 166.479">
  <g id="business-growth-using-marketing" transform="translate(-148 -356.345)">
    <path id="Path_209" data-name="Path 209" d="M227,526.749a107.749,107.749,0,1,1,215.5,0" transform="translate(-50.009 -39.662)" fill="#005b8e" opacity="0.05"/>
    <path id="Path_210" data-name="Path 210" d="M425.659,644.932h9.969V669.96h-9.969Z" transform="translate(-175.766 -182.684)" fill="#ffbe55"/>
    <path id="Path_211" data-name="Path 211" d="M486.875,585.06h9.97v47h-9.97Z" transform="translate(-214.517 -144.783)" fill="#005b8e"/>
    <path id="Path_212" data-name="Path 212" d="M548.094,598.3h9.969v42.14h-9.969Z" transform="translate(-253.271 -153.166)" fill="#ffbe55"/>
    <path id="Path_213" data-name="Path 213" d="M609.311,533.469h9.97V599.4h-9.97Z" transform="translate(-292.023 -112.124)" fill="#005b8e"/>
    <path id="Path_214" data-name="Path 214" d="M419.193,730.615H156.807a8.807,8.807,0,1,1,0-17.615H419.193a8.807,8.807,0,1,1,0,17.615Z" transform="translate(0 -225.772)" fill="#005b8e"/>
    <path id="Path_215" data-name="Path 215" d="M482.808,412.17c-.051-.853-1.526-2.59-1.3-2.807.162-.156.736.381,1.046.694a.131.131,0,0,0,.225-.082c.067-.838.277-3.183.511-3.2s.356,1.461.389,1.959a.032.032,0,0,0,.062.008c.182-.527.8-2.228,1.061-2.01s-.138,1.837-.3,2.463a.032.032,0,0,0,.019.037.032.032,0,0,0,.04-.014c.317-.561,1.155-1.985,1.381-1.8s-.418,1.728-.659,2.276a.032.032,0,0,0,.053.034c.363-.41,1.312-1.453,1.306-1.146a17.761,17.761,0,0,1-2.22,4.06C483.875,413.163,482.808,412.17,482.808,412.17Z" transform="translate(-211.104 -31.882)" fill="#fa968c"/>
    <path id="Path_216" data-name="Path 216" d="M443.872,430.64a25.342,25.342,0,0,0,4.723,7.3c3.826,3.787,8.737,2.8,10.451-6.059.3-1.335.506-2.664.681-3.99.356-2.65.494-5.291.616-7.924a.723.723,0,0,0-1.43-.177l0,.015c-.519,2.557-1.04,5.108-1.709,7.59-.344,1.237-.7,2.463-1.115,3.645-.36,1.12-1.806,4.6-2.931,4.939-.037-.006-.074.042-.1.021s-.031-.021-.044-.01c-.021-.028-.035-.04-.054-.036a2.651,2.651,0,0,1-.268-.167,4.413,4.413,0,0,1-.9-.873,15.018,15.018,0,0,1-1.8-2.857c-.928-1.8-1.465-3.094-1.465-3.094-1.142-3.131-5.879-1.632-4.735,1.5.021.057.046.119.071.173Z" transform="translate(-187.138 -39.798)" fill="#fa968c"/>
    <path id="Path_217" data-name="Path 217" d="M451.474,447.538l-.013-.018a30.853,30.853,0,0,1-1.607-2.635,29.049,29.049,0,0,1-1.338-2.7l-.017-.042a2.525,2.525,0,1,0-4.561,2.153,31.618,31.618,0,0,0,1.872,3.1q.688.985,1.44,1.923A25.577,25.577,0,0,1,451.474,447.538Z" transform="translate(-187.15 -53.326)" fill="#ffbe55"/>
    <path id="Path_218" data-name="Path 218" d="M432.036,465.085c-2.2,2.52-14.873,3.572-14.873,3.572-.935-1.086.432-6.021.762-11.031.357-5.417.562-11.4.656-14.626a2.462,2.462,0,0,1,2.464-2.391h8.045a2.378,2.378,0,0,1,2.374,2.182c.211,2.558.578,7,.941,11.362C432.772,458.575,433.934,462.907,432.036,465.085Z" transform="translate(-170.184 -53.341)" fill="#fab9af"/>
    <path id="Path_219" data-name="Path 219" d="M437.585,616.554l.018,4.986-.433,2.428a.7.7,0,0,0,.663.822c2.041.063,7.268.2,7.408-.026.657-1.063-2.313-1.472-4.487-2.313s-.674-9.093-.674-9.093Z" transform="translate(-183.045 -162.696)" fill="#fa968c"/>
    <path id="Path_220" data-name="Path 220" d="M440.754,638.106c-.012,0-.022-.012-.033-.017a4.979,4.979,0,0,1-1.757.307,5.11,5.11,0,0,1-1.535-.226l-.259,1.453a.7.7,0,0,0,.663.822c2.041.063,7.268.2,7.408-.026C445.9,639.357,442.927,638.947,440.754,638.106Z" transform="translate(-183.045 -178.352)" fill="#0b4870"/>
    <path id="Path_221" data-name="Path 221" d="M441.416,501.624c.079,3.466-1.284,25.452-3.977,25.513s-5.694-21.826-5.773-25.292,2.04-6.324,4.732-6.385S441.338,498.158,441.416,501.624Z" transform="translate(-179.567 -88.063)" fill="#0091c8"/>
    <path id="Path_222" data-name="Path 222" d="M433.722,522.569a200.35,200.35,0,0,0,.119,20.339h2.451c1.316-6.023,2.723-17.7,2.984-19.561,0-.024,0-.047.008-.071,1.465-6.48,2.192-19.1,2.134-21.653-.078-3.466-2.325-6.225-5.017-6.164s-4.811,2.92-4.732,6.385c.049,2.176,2.181,19.821,2.054,20.725Z" transform="translate(-179.568 -88.063)" fill="#0b4870"/>
    <path id="Path_223" data-name="Path 223" d="M421.555,616.554l.018,4.986-.433,2.428a.7.7,0,0,0,.663.822c2.041.063,7.268.2,7.408-.026.657-1.063-2.313-1.472-4.487-2.313s-.674-9.093-.674-9.093Z" transform="translate(-172.898 -162.696)" fill="#fa968c"/>
    <path id="Path_224" data-name="Path 224" d="M424.724,638.106c-.012,0-.022-.012-.033-.017a4.979,4.979,0,0,1-1.757.307,5.11,5.11,0,0,1-1.535-.226l-.259,1.453a.7.7,0,0,0,.663.822c2.041.063,7.268.2,7.408-.026C429.868,639.357,426.9,638.947,424.724,638.106Z" transform="translate(-172.898 -178.352)" fill="#0b4870"/>
    <path id="Path_225" data-name="Path 225" d="M426.391,501.624c.079,3.466-1.284,25.452-3.977,25.513s-5.112-21.907-5.191-25.373,1.458-6.244,4.15-6.3S426.312,498.158,426.391,501.624Z" transform="translate(-170.424 -88.063)" fill="#0091c8"/>
    <path id="Path_226" data-name="Path 226" d="M418.695,522.569a200.351,200.351,0,0,0,.119,20.339h2.451c1.316-6.023,2.723-17.7,2.984-19.561,0-.024,0-.047.008-.071a153.283,153.283,0,0,0,2.716-21.734c-.079-3.466-2.907-6.145-5.6-6.084s-4.229,2.839-4.15,6.3C417.273,503.94,418.822,521.666,418.695,522.569Z" transform="translate(-170.424 -88.063)" fill="#0b4870"/>
    <path id="Path_227" data-name="Path 227" d="M429.165,440.61h-1.307a3.205,3.205,0,0,1-5.826,0h-1.193a2.249,2.249,0,0,0-2.253,2.183c-.091,3.177-.3,9.3-.662,14.833-.33,5.01-1.7,9.665-.762,11.031,0,0,12.677-1.052,14.873-3.572,1.9-2.178.736-6.51.368-10.932-.366-4.4-.737-8.891-.947-11.436A2.3,2.3,0,0,0,429.165,440.61Z" transform="translate(-170.183 -53.342)" fill="#ffbe55"/>
    <path id="Path_228" data-name="Path 228" d="M432.16,423.744a2.285,2.285,0,0,1-2.726-1.735l-.65-2.922,2.23-.5Z" transform="translate(-177.744 -39.404)" fill="#0b4870"/>
    <path id="Path_229" data-name="Path 229" d="M436.157,433.376h-4.206l1.213-4.194,2.867.355Z" transform="translate(-179.749 -46.108)" fill="#fab9af"/>
    <path id="Path_230" data-name="Path 230" d="M437.148,429.537l-2.867-.355-.565,1.955c.642.724,1.594,1.847,2.637,1.847a1.66,1.66,0,0,0,.9-.265l-.109-3.181Z" transform="translate(-180.866 -46.108)" fill="#fa968c"/>
    <path id="Path_231" data-name="Path 231" d="M435.581,422.815a3.5,3.5,0,0,1-4.18-2.659l-.847-3.809,5.865-1.3a30.5,30.5,0,0,1,.68,5.076c.014,1.577-.556,2.483-1.519,2.7Z" transform="translate(-178.864 -37.157)" fill="#fab9af"/>
    <path id="Path_232" data-name="Path 232" d="M430.617,422.352l1.1-.245.111.5-1.1.245Z" transform="translate(-178.904 -41.629)" fill="#41378c"/>
    <path id="Path_233" data-name="Path 233" d="M431.968,424.374c.165.743-.056,1.425-.5,1.523s-1.139-.769-1.3-1.512a.892.892,0,0,1,.706-1.179C431.313,423.107,431.8,423.63,431.968,424.374Z" transform="translate(-178.597 -42.317)" fill="#fab9af"/>
    <path id="Path_234" data-name="Path 234" d="M436.012,414.108a3.376,3.376,0,0,0-.241-1.479,2.314,2.314,0,0,0-2.96-1.251,3.424,3.424,0,0,1-.385.109l-1.979.439a2.206,2.206,0,0,0-1.675,2.632l.1.461,1.174.681.478.833.077-.017a.729.729,0,0,0,.562-.824,1.149,1.149,0,0,1,.826-1.366l1.757-.391c1.069-.238,1.753.213,1.931,1.012l.1.689Z" transform="translate(-177.702 -34.747)" fill="#0b4870"/>
    <path id="Path_235" data-name="Path 235" d="M432.447,412.921c-.134,1.087,3.771,2.463,4.8,2.591a1.985,1.985,0,0,0,.486-3.935c-1.03-.127-5.153.258-5.287,1.344Z" transform="translate(-180.061 -34.948)" fill="#0b4870"/>
    <path id="Path_236" data-name="Path 236" d="M419.433,444.84a31.707,31.707,0,0,0,6.175,6.093c8.132,5.931,16.835,6.53,23.932-.183a.724.724,0,0,0-.858-1.153l-.033.019c-4.629,2.672-8.773,3.768-13.99,1.576-6.84-2.948-11.693-10.039-11.182-9.363a2.52,2.52,0,0,0-4.044,3.01Z" transform="translate(-171.509 -53.471)" fill="#fab9af"/>
    <path id="Path_237" data-name="Path 237" d="M427.1,392.43a35.607,35.607,0,0,1-3.847-4.515s-1.021-1.207-3.122-.327a2.5,2.5,0,0,0-1.338,2.685c.041.276.6,3.546,4.459,6.438C423.253,396.712,427.386,392.686,427.1,392.43Zm27.83-36.085a15.907,15.907,0,0,0-15.892,15.895c0,4.216,2.145,7.857,4.318,11.12,4.8,7.211,2.073,11.118,4.844,11.118h13.477c2.774,0,.038-3.907,4.841-11.118,2.172-3.263,4.312-6.79,4.312-11A16.01,16.01,0,0,0,454.932,356.345Z" transform="translate(-171.402)" fill="#ffbe55"/>
    <path id="Path_238" data-name="Path 238" d="M494.685,411.1a.494.494,0,1,0-.773.615,3.376,3.376,0,0,0,.294.318l5.271,16.082a.494.494,0,1,0,.938-.308l-4.868-14.858a5.463,5.463,0,0,0,3.866.456,3.089,3.089,0,0,0,.712-.328,3.8,3.8,0,0,0,2.076.616,3.865,3.865,0,0,0,2.409-.807,5.494,5.494,0,0,0,1.249.471,5.2,5.2,0,0,0,3.623-.232l-4.814,14.683a.495.495,0,0,0,.941.308l5.279-16.108c.043-.052.094-.1.137-.151a.494.494,0,1,0-.777-.61A3.692,3.692,0,0,1,506.1,412.4a4.92,4.92,0,0,1-.8-.278,2.628,2.628,0,0,0,.421-1.538,2.411,2.411,0,0,0-1-2.163,1.021,1.021,0,0,0-1.05.059,2.311,2.311,0,0,0-.695,2.163,2.516,2.516,0,0,0,.786,1.633,3.054,3.054,0,0,1-2.893.093,3.275,3.275,0,0,0,.56-1.738,2.221,2.221,0,0,0-.791-2.076,1.082,1.082,0,0,0-1.126-.025,2.235,2.235,0,0,0-.854,2.082,2.846,2.846,0,0,0,.68,1.766,2,2,0,0,1-.227.086A4.751,4.751,0,0,1,494.685,411.1Zm9.538-1.8c.009-.006.014-.01.022-.01a.074.074,0,0,1,.031.01c.145.073.425.444.461,1.323a1.664,1.664,0,0,1-.263.96,1.553,1.553,0,0,1-.509-1.018C503.906,409.805,504.086,409.393,504.223,409.3ZM500,409.39a.1.1,0,0,1,.054-.017.137.137,0,0,1,.066.023c.139.087.365.434.324,1.182a2.326,2.326,0,0,1-.343,1.168,1.858,1.858,0,0,1-.452-1.148c-.013-.789.216-1.131.352-1.208Z" transform="translate(-218.904 -32.892)" fill="#0b4870"/>
    <path id="Path_239" data-name="Path 239" d="M511.219,460.257h-11.2c-.65,0-1.177,1.2-1.177,1.848s.527,1.848,1.177,1.848h3.753l-4.11.766c-.617.2-.956.58-.756,1.2a1.061,1.061,0,0,0,1.12.674,1.445,1.445,0,0,0,.363-.128l11.194-3.667a1.326,1.326,0,0,0,.8-1.425,1.3,1.3,0,0,0-1.164-1.115Zm-.014,8.316h-3.742l4.106-1.856a1.484,1.484,0,0,0,.756-1.744,1.258,1.258,0,0,0-1.483-.888l-11.185,3.565a1.482,1.482,0,0,0-.8,1.543c.089.572.584,1.229,1.163,1.229h1.017l1.779,2.772h5.55l1.807-2.772h1.032c.651,0,1.176-.274,1.176-.924s-.525-.924-1.176-.924Z" transform="translate(-222.093 -65.779)" fill="#0b4870"/>
    <path id="Path_240" data-name="Path 240" d="M418.271,529.615l-5.659-6.761,27.569-23.174,23.973,4,27.2-21.008,1.1.985-25.934,28.871L443,507.413Z" transform="translate(-167.507 -79.965)" fill="#ffbe55"/>
    <path id="Path_241" data-name="Path 241" d="M604.02,485.182l-15.773-15.126,20.363-5.448Z" transform="translate(-278.688 -68.533)" fill="#ffbe55"/>
    <path id="Path_242" data-name="Path 242" d="M498.593,459.493c.556-.648.7-2.923,1.015-2.923.225,0,.265.785.27,1.226a.132.132,0,0,0,.219.1c.631-.556,2.411-2.1,2.594-1.949s-.76,1.3-1.082,1.679a.032.032,0,0,0,0,.04.032.032,0,0,0,.039.009c.5-.252,2.122-1.048,2.16-.707.036.324-1.376,1.225-1.928,1.563a.032.032,0,0,0-.012.04.032.032,0,0,0,.038.018c.618-.183,2.21-.625,2.246-.337s-1.5.952-2.055,1.179a.032.032,0,0,0-.019.037.031.031,0,0,0,.033.024c.545-.043,1.953-.133,1.736.084a17.75,17.75,0,0,1-4.418,1.376c-.759,0-.836-1.456-.836-1.456Z" transform="translate(-221.935 -63.043)" fill="#fab9af"/>
    <path id="Path_243" data-name="Path 243" d="M648.758,618.311a8.589,8.589,0,1,0,0-12.147A8.591,8.591,0,0,0,648.758,618.311Zm1.356-10.791a6.671,6.671,0,1,1,0,9.434A6.667,6.667,0,0,1,650.114,607.521Z" transform="translate(-315.4 -156.548)" fill="#0b4870"/>
    <path id="Path_244" data-name="Path 244" d="M654.557,619.543a5.762,5.762,0,0,1,11.137-2.326,5.759,5.759,0,1,0-11.137,2.326Z" transform="translate(-320.426 -161.673)" fill="#fff" opacity="0.25"/>
    <path id="Path_245" data-name="Path 245" d="M693,650.256a1.113,1.113,0,0,0,0-1.573l-8.181-8.181-1.573,1.573,8.181,8.181A1.113,1.113,0,0,0,693,650.256Z" transform="translate(-338.824 -179.88)" fill="#0b4870"/>
    <path id="Path_246" data-name="Path 246" d="M696.518,653.777a1.545,1.545,0,0,0,0-2.186l-7.567-7.567a.434.434,0,0,0-.613,0l-1.573,1.573a.434.434,0,0,0,0,.613l7.567,7.567A1.546,1.546,0,0,0,696.518,653.777Z" transform="translate(-340.973 -182.028)" fill="#ffbe55"/>
    <circle id="Ellipse_21" data-name="Ellipse 21" cx="8.376" cy="8.376" r="8.376" transform="matrix(0.998, -0.063, 0.063, 0.998, 221.664, 456.517)" fill="#ffbe55"/>
    <path id="Path_247" data-name="Path 247" d="M369.007,639.041l-1.44-.537a.465.465,0,0,0-.6.273l-1.956,5.245a.465.465,0,0,1-.585.278l-2.247-.761a.465.465,0,0,0-.589.291l-.493,1.455a.465.465,0,0,0,.291.589L365.9,647.4a.465.465,0,0,0,.585-.278l2.792-7.487A.465.465,0,0,0,369.007,639.041Z" transform="translate(-134.882 -178.596)" fill="#fff"/>
    <ellipse id="Ellipse_22" data-name="Ellipse 22" cx="25.321" cy="0.734" rx="25.321" ry="0.734" transform="translate(159.743 513.283)" fill="#005b8e"/>
    <ellipse id="Ellipse_23" data-name="Ellipse 23" cx="25.321" cy="0.734" rx="25.321" ry="0.734" transform="translate(197.174 521.356)" fill="#005b8e"/>
    <ellipse id="Ellipse_24" data-name="Ellipse 24" cx="25.321" cy="0.734" rx="25.321" ry="0.734" transform="translate(243.413 513.283)" fill="#005b8e"/>
    <ellipse id="Ellipse_25" data-name="Ellipse 25" cx="25.321" cy="0.734" rx="25.321" ry="0.734" transform="translate(280.844 521.356)" fill="#005b8e"/>
    <ellipse id="Ellipse_26" data-name="Ellipse 26" cx="25.321" cy="0.734" rx="25.321" ry="0.734" transform="translate(324.881 513.283)" fill="#005b8e"/>
    <ellipse id="Ellipse_27" data-name="Ellipse 27" cx="25.321" cy="0.734" rx="25.321" ry="0.734" transform="translate(362.312 521.356)" fill="#d3d3d3"/>
    <path id="Path_248" data-name="Path 248" d="M734.684,482.191a8.385,8.385,0,1,1-11.045-4.314,8.385,8.385,0,0,1,11.045,4.314Z" transform="translate(-361.217 -76.486)" fill="#005b8e" opacity="0.4"/>
    <path id="Path_249" data-name="Path 249" d="M726.1,486.871l6.515-2.855a1.232,1.232,0,0,1,1.618.632l2.855,6.514a1.232,1.232,0,0,1-.632,1.618l-6.515,2.855a1.232,1.232,0,0,1-1.618-.632l-2.855-6.515A1.232,1.232,0,0,1,726.1,486.871Zm5.686-1.332a.433.433,0,0,0-.222.568l.414.944a.432.432,0,0,0,.568.222l.99-.434a.432.432,0,0,0,.222-.568l-.414-.944a.432.432,0,0,0-.568-.222Zm2.586,2.124L733.6,488a2.794,2.794,0,0,1,.443.7,2.976,2.976,0,0,1-5.45,2.388,2.808,2.808,0,0,1-.217-.8l-.8.353,1.623,3.7a.381.381,0,0,0,.5.195l6.1-2.675a.38.38,0,0,0,.2-.5Zm-3.842.434a1.863,1.863,0,1,0,2.508.934A1.892,1.892,0,0,0,730.527,488.1Z" transform="translate(-365.486 -80.755)" fill="#fff"/>
    <circle id="Ellipse_28" data-name="Ellipse 28" cx="8.65" cy="8.65" r="8.65" transform="translate(190.286 414.645)" fill="#005b8e" opacity="0.4"/>
    <path id="Path_250" data-name="Path 250" d="M280,527l6.405,4.325L280,535.647Z" transform="translate(-83.56 -108.027)" fill="#fff"/>
    <g id="Group_56" data-name="Group 56" transform="translate(176.889 449.831)">
      <path id="Path_251" data-name="Path 251" d="M233.2,617.616v-6.522a6.248,6.248,0,0,0-1.883.324A6.649,6.649,0,0,0,227,619.631l6.2-2.015Z" transform="translate(-226.722 -611.094)" fill="#005b8e" opacity="0.4"/>
      <path id="Path_252" data-name="Path 252" d="M236.984,630.655l-2.95-.959-6.268,2.037a6.4,6.4,0,0,0,4.214,4.106,6.64,6.64,0,0,0,8.322-4.106l-3.317-1.078Z" transform="translate(-227.382 -622.869)" fill="#005b8e"/>
      <path id="Path_253" data-name="Path 253" d="M249.37,614.827l-3.768,5.186,6.1,1.981A6.541,6.541,0,0,0,249.37,614.827Z" transform="translate(-238.674 -613.457)" fill="#005b8e" opacity="0.1"/>
      <path id="Path_254" data-name="Path 254" d="M245.314,617.212l3.6-4.95a6.3,6.3,0,0,0-3.6-1.169Z" transform="translate(-238.491 -611.093)" fill="#005b8e" opacity="0.62"/>
    </g>
    <circle id="Ellipse_29" data-name="Ellipse 29" cx="9.946" cy="9.946" r="9.946" transform="translate(207.641 377.348)" fill="#005b8e" opacity="0.62"/>
    <path id="Path_255" data-name="Path 255" d="M333.3,427.469l-1.095-2.047-1.857,1.324-.854-1.2c-.387-.543-.5-1.021.279-1.575l.992-.708-1.2-1.677a16.312,16.312,0,0,0-1.5.957,2.774,2.774,0,0,0-.644,4.2l.986,1.383-1.619,1.154,1.337,1.875L329.747,430l3.429,4.811,1.936-1.38-3.429-4.811,1.615-1.151Z" transform="translate(-113.15 -41.301)" fill="#fff"/>
    <path id="Path_256" data-name="Path 256" d="M652.1,395.739a9.384,9.384,0,1,1-9.384-9.384A9.384,9.384,0,0,1,652.1,395.739Z" transform="translate(-307.23 -18.997)" fill="#005b8e" opacity="0.62"/>
    <g id="Group_57" data-name="Group 57" transform="translate(329.863 371.339)">
      <path id="Path_257" data-name="Path 257" d="M659.041,407.326a1.2,1.2,0,0,1-.466.381l-.484-4.559,4-.382a1.2,1.2,0,0,1-.222.632Zm-2.547-4.555,5.69-.544a1.221,1.221,0,0,0-.388-.47l-6.028-4.334a1.217,1.217,0,0,0-.57-.218Z" transform="translate(-650.935 -397.204)" fill="#fff"/>
      <path id="Path_258" data-name="Path 258" d="M650.245,403.422l-1.317.127a.311.311,0,0,1-.331-.238l-.3-1.289-4.637,1.028a1.221,1.221,0,0,0,.418.535l6.028,4.334a1.223,1.223,0,0,0,.64.226Zm-3.019-6a1.231,1.231,0,0,0-.54.422l-2.889,4.018a1.217,1.217,0,0,0-.219.575l4.578-1.015Z" transform="translate(-643.578 -397.339)" fill="#fff"/>
    </g>
    <path id="Path_259" data-name="Path 259" d="M772.165,634.7s1.867,1.989,3.547,3.638a27.723,27.723,0,0,0,3.931,3.077,15.957,15.957,0,0,0,2.158-1.063c1.354-.77,1.469-1.1,1.469-1.1s-.559-1.664-1.635-1.629c-.22-.655-.621-1.469-1.465-1.424-.137-.738-.832-2.19-1.932-2.329a2.929,2.929,0,0,0-.513-1.5Z" transform="translate(-395.114 -174.736)" fill="#005b8e"/>
    <path id="Path_260" data-name="Path 260" d="M768.383,626.6l1.155,2.093a1.357,1.357,0,0,1-.6.419c-.373.122-1.3-.786-1.566-1.251a11.683,11.683,0,0,1-.534-1.083l1.543-.178Zm-13.334-1.448a3.583,3.583,0,0,0,.138.947,2,2,0,0,0,1.669,3.388,3.6,3.6,0,0,0,.667.687l1.836-.4-1.437-2.916-1.437-2.916Z" transform="translate(-384.007 -169.395)" fill="#005b8e"/>
    <path id="Path_261" data-name="Path 261" d="M769.958,590.693c-1.742,3.5-5.684,5.758-7.513,6.755s-2.391,1.083-2.752,1.642,1.1,3.463,1.1,3.463,1.412,2.929,2.074,2.984,1.073-.338,2.979-1.182,6.1-2.592,9.934-1.843,5.809,1.271,5.809,1.271l-4.551-9.235-4.551-9.235S771.7,587.2,769.958,590.693Z" transform="translate(-387.183 -144.943)" fill="#cce9ff"/>
    <path id="Path_262" data-name="Path 262" d="M804.8,600.094a1.781,1.781,0,0,1-.794,2.339,1.75,1.75,0,0,1-2.339-.795s-.886-.759-4.286-7.657-3.461-8.063-3.461-8.063c-.142-1.13-.07-1.912.794-2.338s1.542-.145,2.339.794c0,0,1.158,1.31,4.285,7.657s3.462,8.063,3.462,8.063Z" transform="translate(-408.846 -143.723)" fill="#005b8e"/>
    <path id="Path_263" data-name="Path 263" d="M804.778,593.486a48.526,48.526,0,0,1,3.327,8.865,47.966,47.966,0,0,1-8.33-16.9A48.489,48.489,0,0,1,804.778,593.486Z" transform="translate(-412.592 -145.029)" fill="#fff"/>
    <path id="Path_264" data-name="Path 264" d="M817.33,567.873a.5.5,0,0,1-.4-.8l6.02-7.875a.5.5,0,0,1,.793.606l-6.02,7.875A.5.5,0,0,1,817.33,567.873Zm2.272,2.76a.5.5,0,0,1-.295-.9l6.5-4.744a.5.5,0,1,1,.589.807l-6.5,4.744A.5.5,0,0,1,819.6,570.633Zm1.658,3.907a.5.5,0,0,1-.156-.974l11.141-3.665a.5.5,0,1,1,.312.948l-11.141,3.665a.491.491,0,0,1-.156.025Zm1.86,4.884a.5.5,0,0,1-.052-1l8.482-.9a.5.5,0,1,1,.106.993l-8.482.9A.448.448,0,0,1,823.119,579.424Z" transform="translate(-423.389 -128.286)" fill="#005b8e"/>
  </g>
</svg>
