<svg xmlns="http://www.w3.org/2000/svg" width="25.343" height="26.077" viewBox="0 0 25.343 26.077">
  <g id="call" transform="translate(-6.675 -6)">
    <path id="Path_11607" data-name="Path 11607" d="M29.924,19.292a.541.541,0,0,0,.543.543,1.121,1.121,0,0,1,1.119,1.119.543.543,0,1,0,1.087,0,2.207,2.207,0,0,0-2.206-2.206A.545.545,0,0,0,29.924,19.292ZM38.768,21.5a.541.541,0,0,0,.543-.543,8.852,8.852,0,0,0-8.844-8.844.543.543,0,1,0,0,1.087,7.766,7.766,0,0,1,7.758,7.758A.545.545,0,0,0,38.768,21.5Z" transform="translate(-10.618 -2.791)" fill="#fff"/>
    <path id="Path_11608" data-name="Path 11608" d="M24.288,18.164a.543.543,0,1,0,1.087,0,5.53,5.53,0,0,0-5.525-5.525.543.543,0,1,0,0,1.087A4.444,4.444,0,0,1,24.288,18.164ZM19.849,6a.543.543,0,1,0,0,1.087A11.093,11.093,0,0,1,30.932,18.164a.543.543,0,1,0,1.087,0A12.179,12.179,0,0,0,19.849,6Zm5.308,17.89-.712.386a3.131,3.131,0,0,1-3.694-.538L15.014,18a3.138,3.138,0,0,1-.538-3.7l.386-.706a4.185,4.185,0,0,0,.462-2.608,4.188,4.188,0,0,0-4.156-3.6A4.183,4.183,0,0,0,8.19,8.613L7.913,8.9c-1.467,1.467-1.635,3.993-.478,7.122a26.394,26.394,0,0,0,6.182,9.116c4.406,4.406,9.312,6.943,12.832,6.943a4.658,4.658,0,0,0,3.406-1.233l.283-.283a4.2,4.2,0,0,0,1.233-2.977,4.208,4.208,0,0,0-6.215-3.694Z" transform="translate(0)" fill="#fff"/>
  </g>
</svg>
