<svg xmlns="http://www.w3.org/2000/svg" width="247.674" height="201.769" viewBox="0 0 247.674 201.769">
  <g id="undraw_envelope_re_f5j4" transform="translate(0 0)">
    <path id="Path_461" data-name="Path 461" d="M454.389,680.036a7.592,7.592,0,0,0,7.217,1.822c3.225-.916,5.413-3.825,7.356-6.557l5.748-8.079-4.844.888c-3.484.638-7.053,1.309-10.087,3.137s-5.464,5.091-5.271,8.627" transform="translate(-381.793 -489.897)" fill="#e6e6e6"/>
    <path id="Path_462" data-name="Path 462" d="M441.591,706.046a39.253,39.253,0,0,1,3.2-8.473,14.219,14.219,0,0,1,5.553-5.68,12.4,12.4,0,0,1,4.084-1.328c.372-.053.433.527.063.58a11.792,11.792,0,0,0-6.559,3.225,18.879,18.879,0,0,0-4.247,7.018c-.582,1.557-1.052,3.152-1.52,4.747a.3.3,0,0,1-.333.244.293.293,0,0,1-.244-.333Z" transform="translate(-373.497 -505.023)" fill="#f2f2f2"/>
    <path id="Path_11509" data-name="Path 11509" d="M701.851,402.854a3.885,3.885,0,0,1,4.788,3.544l13.289,3.736-5.422,4.7-11.788-4.268a3.906,3.906,0,0,1-.866-7.708Z" transform="translate(-540.219 -318.49)" fill="#ffb7b7"/>
    <path id="Path_11510" data-name="Path 11510" d="M545.829,533.776h-3.874l-1.843-14.941h5.717Z" transform="translate(-350.046 -336.256)" fill="#ffb7b7"/>
    <path id="Path_11511" data-name="Path 11511" d="M784.252,726.034h-12.49v-.158a4.861,4.861,0,0,1,4.861-4.861h7.629Z" transform="translate(-587.482 -524.759)" fill="#2f2e41"/>
    <path id="Path_11512" data-name="Path 11512" d="M610.331,533.776h-3.874l-1.843-14.941h5.717Z" transform="translate(-391.85 -336.256)" fill="#ffb7b7"/>
    <path id="Path_11513" data-name="Path 11513" d="M848.754,726.034h-12.49v-.158a4.862,4.862,0,0,1,4.861-4.861h7.629Z" transform="translate(-629.285 -524.759)" fill="#2f2e41"/>
    <path id="Path_11514" data-name="Path 11514" d="M536.854,313.877,531.148,353.4l1.422,41.642,8.568.682,2.679-37.345,6.82-20.823,4.01,29.684.165,27.8,8.848.682,3.086-58.451-2.27-25.42Z" transform="translate(-344.237 -202.112)" fill="#005b8e"/>
    <circle id="Ellipse_61" data-name="Ellipse 61" cx="9.027" cy="9.027" r="9.027" transform="translate(200.094 40.795)" fill="#ffb7b7"/>
    <path id="Path_11515" data-name="Path 11515" d="M808.189,341.318l-9.966,50.2s16.778,4.815,24.128.37,4.057-18.169,4.057-18.169l-1.346-23.351-2.488-5.905-2.11-4.875Z" transform="translate(-604.631 -277.56)" fill="#cbcbcb"/>
    <path id="Path_11516" data-name="Path 11516" d="M788.18,378.338l3.442-36.611-2.753,2.01-9.626,3.126-.659,25.775-6.734,33.9s4.813,9.392,10.778-6.146Z" transform="translate(-587.54 -278.943)" fill="#005b8e"/>
    <path id="Path_11517" data-name="Path 11517" d="M507.815,196.862l-4.632-3.855-10.412,22.617-11.618-2.545-.549,6.862,16.833,6.662,11.471-15.97Z" transform="translate(-311.479 -125.088)" fill="#005b8e"/>
    <path id="Path_11518" data-name="Path 11518" d="M609.144,204.8l1.3-29.8,4.775,3.7,8.527,2.377-1.25,23.722,1.8,36.809-8.94,2.831-2.509-23.227Z" transform="translate(-394.786 -113.42)" fill="#005b8e"/>
    <path id="Path_11519" data-name="Path 11519" d="M858.744,466.053a3.884,3.884,0,0,1,5.169-2.96l8.761-10.668,2.121,6.853-8.645,9.08a3.906,3.906,0,0,1-7.406-2.3Z" transform="translate(-643.812 -350.687)" fill="#ffb7b7"/>
    <path id="Path_11520" data-name="Path 11520" d="M630.872,195.573l5.709-3.307,14.365,28.367L636.94,240.081l-7.988-6.387,9.7-12.649-8.84-13.586Z" transform="translate(-407.624 -124.607)" fill="#005b8e"/>
    <path id="Path_11521" data-name="Path 11521" d="M832.867,275.152l.438-.881-2.2-1.094s-2.429-3.952-6.825-2.842-6.373,1.775-6.373,1.775l-2.2,1.105,1.1,1.1-1.978.665,1.321.656-1.537.884.828,4.529s1.375-3.435,4.017-2.123,7.476-.679,7.476-.679l4.2,8.126s.866-2.849,2.411-2.089C833.547,284.283,837.493,278,832.867,275.152Z" transform="translate(-615.257 -232.547)" fill="#2f2e41"/>
    <path id="Path_11522" data-name="Path 11522" d="M411.667,322.019h-.058l-33.1,14.135-45.293,19.34a1.461,1.461,0,0,1-1.119.006l-46.729-19.387-33.917-14.072-.052-.023h-.058a2.021,2.021,0,0,0-2.019,2.019V411.7a2.021,2.021,0,0,0,2.019,2.018H411.667a2.021,2.021,0,0,0,2.019-2.018V324.037A2.021,2.021,0,0,0,411.667,322.019Z" transform="translate(-248.888 -266.171)" fill="#fff"/>
    <path id="Path_11523" data-name="Path 11523" d="M414.2,219.74a.287.287,0,0,1-.165-.052l-79.749-55.539a1.446,1.446,0,0,0-1.652,0l-79.174,55.536a.288.288,0,0,1-.331-.472L332.3,163.68a2.025,2.025,0,0,1,2.313,0l79.749,55.539a.288.288,0,0,1-.165.525Z" transform="translate(-251.278 -163.315)" fill="#3f3d56"/>
    <path id="Path_11524" data-name="Path 11524" d="M19.063,62.812,94.617,6.817,170.744,66.8,98.509,109.617l-39.217-8.939Z" transform="translate(-12.355 -4.418)" fill="#e6e6e6"/>
    <path id="Path_11525" data-name="Path 11525" d="M318.924,531H281.6a1.744,1.744,0,0,1-.005-3.488h37.331a1.744,1.744,0,0,1,.005,3.488Z" transform="translate(-268.676 -399.35)" fill="#005b8e"/>
    <path id="Path_11526" data-name="Path 11526" d="M294.99,509.693H281.6a1.744,1.744,0,0,1-.005-3.488h13.4a1.744,1.744,0,0,1,.005,3.488h-.005Z" transform="translate(-268.676 -385.542)" fill="#005b8e"/>
    <path id="Path_11527" data-name="Path 11527" d="M397.536,266.8a2.182,2.182,0,0,1-.827-.162l-46.6-19.334v-60.52a2.021,2.021,0,0,1,2.019-2.019h89.391a2.021,2.021,0,0,1,2.019,2.019v60.562l-.088.037-45.065,19.245A2.2,2.2,0,0,1,397.536,266.8Z" transform="translate(-314.211 -177.215)" fill="#005b8e"/>
    <path id="Path_11528" data-name="Path 11528" d="M410.438,322.019h-.058l-33.1,14.135-45.293,19.34a1.461,1.461,0,0,1-1.119.006l-46.729-19.386-33.917-14.072-.052-.023h-.058a2.021,2.021,0,0,0-2.018,2.019V411.7a2.021,2.021,0,0,0,2.018,2.018H410.438a2.021,2.021,0,0,0,2.019-2.018V324.038A2.021,2.021,0,0,0,410.438,322.019Zm1.442,89.68a1.442,1.442,0,0,1-1.442,1.442H250.11a1.442,1.442,0,0,1-1.442-1.442V324.038a1.445,1.445,0,0,1,1.387-1.442l34.081,14.141,46.507,19.3a2.053,2.053,0,0,0,1.569-.009l45.065-19.245L410.5,322.6a1.446,1.446,0,0,1,1.384,1.442Z" transform="translate(-248.091 -266.171)" fill="#3f3d56"/>
    <path id="Path_11529" data-name="Path 11529" d="M401.594,240.552h-31.72a2.307,2.307,0,0,1,0-4.614h31.72a2.307,2.307,0,1,1,0,4.614Z" transform="translate(-325.524 -210.382)" fill="#fff"/>
    <path id="Path_11530" data-name="Path 11530" d="M385.158,212.691H369.874a2.307,2.307,0,1,1,0-4.614h15.283a2.307,2.307,0,0,1,0,4.614Z" transform="translate(-325.524 -192.325)" fill="#fff"/>
    <path id="Path_11531" data-name="Path 11531" d="M456.807,306.107H408.362a2.307,2.307,0,1,1,0-4.614h48.445a2.307,2.307,0,0,1,0,4.614Z" transform="translate(-350.468 -252.868)" fill="#fff"/>
    <path id="Path_11532" data-name="Path 11532" d="M456.807,336.427H408.362a2.307,2.307,0,0,1,0-4.614h48.445a2.307,2.307,0,0,1,0,4.614Z" transform="translate(-350.468 -272.518)" fill="#fff"/>
    <path id="Path_11533" data-name="Path 11533" d="M779.811,735.019h-92.55a.352.352,0,1,1,0-.7h92.55a.352.352,0,1,1,0,.7Z" transform="translate(-532.489 -533.379)" fill="#cbcbcb"/>
    <path id="Path_11534" data-name="Path 11534" d="M428.4,735.019H394.261a.352.352,0,0,1,0-.7H428.4a.352.352,0,1,1,0,.7Z" transform="translate(-342.596 -533.379)" fill="#cbcbcb"/>
    <path id="Path_461-2" data-name="Path 461" d="M425.514,662.273a7.592,7.592,0,0,0,6.4-3.8c1.641-2.923,1.141-6.529.592-9.836l-1.622-9.782-2.808,4.046c-2.02,2.909-4.078,5.9-4.94,9.337s-.284,7.462,2.346,9.834" transform="translate(-361.298 -471.513)" fill="#e6e6e6"/>
    <path id="Path_462-2" data-name="Path 462" d="M435.382,699.249a39.254,39.254,0,0,1-3.7-8.267,14.219,14.219,0,0,1-.068-7.944,12.4,12.4,0,0,1,1.959-3.822c.227-.3.679.068.453.367a11.791,11.791,0,0,0-2.376,6.912,18.876,18.876,0,0,0,1.938,7.971c.685,1.515,1.477,2.977,2.27,4.438a.3.3,0,0,1-.064.408.293.293,0,0,1-.408-.064Z" transform="translate(-366.683 -497.598)" fill="#f2f2f2"/>
  </g>
</svg>
