<svg xmlns="http://www.w3.org/2000/svg" width="31.782" height="22.704" viewBox="0 0 31.782 22.704">
  <g id="cooperation" transform="translate(0 -9.14)">
    <path id="Path_34" data-name="Path 34" d="M9.971,34.646H1.152A1.149,1.149,0,0,1,0,33.5v-1.39a5.562,5.562,0,1,1,11.124,0V33.5a1.149,1.149,0,0,1-1.152,1.147ZM2.3,32.347H8.819v-.238a3.258,3.258,0,1,0-6.515,0v.238ZM5.562,26.13a3.645,3.645,0,1,1,3.645-3.645A3.647,3.647,0,0,1,5.562,26.13Zm0-4.986A1.341,1.341,0,1,0,6.9,22.485,1.342,1.342,0,0,0,5.562,21.144Z" transform="translate(0 -4.883)" fill="#d3d3d3"/>
    <path id="Path_35" data-name="Path 35" d="M31.681,24.951H22.862A1.153,1.153,0,0,1,21.71,23.8v-1.39a5.562,5.562,0,1,1,11.124,0V23.8A1.153,1.153,0,0,1,31.681,24.951Zm-7.667-2.3h6.515v-.238a3.258,3.258,0,1,0-6.515,0Zm3.258-6.217a3.645,3.645,0,1,1,3.645-3.645A3.647,3.647,0,0,1,27.272,16.43Zm0-4.986a1.341,1.341,0,1,0,1.341,1.341A1.342,1.342,0,0,0,27.272,11.444Z" transform="translate(-10.929)" fill="#d3d3d3"/>
    <path id="Path_36" data-name="Path 36" d="M51.571,38.831H42.752A1.153,1.153,0,0,1,41.6,37.679v-1.39a5.562,5.562,0,0,1,11.124,0v1.39A1.154,1.154,0,0,1,51.571,38.831Zm-7.667-2.3h6.515v-.238a3.258,3.258,0,0,0-6.515,0Zm3.258-6.217a3.645,3.645,0,1,1,3.645-3.645A3.647,3.647,0,0,1,47.162,30.31Zm0-4.986A1.341,1.341,0,1,0,48.5,26.665,1.342,1.342,0,0,0,47.162,25.324Z" transform="translate(-20.942 -6.987)" fill="#d3d3d3"/>
  </g>
</svg>
