<svg xmlns="http://www.w3.org/2000/svg" width="15" height="18" viewBox="0 0 15 18">
  <path id="Fill_1166" data-name="Fill 1166" d="M10.658,18H4.343a2.248,2.248,0,0,1-2.237-2L.829,4.5H.75A.75.75,0,0,1,.75,3H4.5V2.25A2.253,2.253,0,0,1,6.75,0h1.5A2.253,2.253,0,0,1,10.5,2.25V3H14.25a.75.75,0,1,1,0,1.5h-.078L12.893,16A2.246,2.246,0,0,1,10.658,18ZM2.337,4.5,3.6,15.833a.749.749,0,0,0,.745.667h6.315a.749.749,0,0,0,.745-.667L12.662,4.5H2.337Zm4.413-3A.751.751,0,0,0,6,2.25V3H9V2.25a.751.751,0,0,0-.75-.75ZM9,14.25a.751.751,0,0,1-.75-.75v-6a.75.75,0,1,1,1.5,0v6A.751.751,0,0,1,9,14.25Zm-3,0a.751.751,0,0,1-.751-.75v-6a.75.75,0,0,1,1.5,0v6A.751.751,0,0,1,6,14.25Z" fill="#fff"/>
</svg>
