<svg xmlns="http://www.w3.org/2000/svg" width="25.18" height="25.18" viewBox="0 0 25.18 25.18">
  <g id="Group_8376" data-name="Group 8376" transform="translate(-0.5 -0.5)">
    <path id="Path_11611" data-name="Path 11611" d="M12.462,10.62l-1.513,5.046a1.219,1.219,0,0,0,1.167,1.568,1.2,1.2,0,0,0,.35-.052l5.046-1.513a1.215,1.215,0,0,0,.512-.305l9.251-9.251a1.218,1.218,0,0,0,0-1.723L23.742.857a1.218,1.218,0,0,0-1.723,0l-9.251,9.251A1.22,1.22,0,0,0,12.462,10.62Zm2.246.994L22.88,3.441l1.81,1.81-8.172,8.172-2.585.775Z" transform="translate(-1.952)" fill="#005b8e"/>
    <path id="Path_11612" data-name="Path 11612" d="M24.461,11.871a1.218,1.218,0,0,0-1.218,1.218v8.122a2.033,2.033,0,0,1-2.031,2.031H4.967a2.033,2.033,0,0,1-2.031-2.031V4.967A2.033,2.033,0,0,1,4.967,2.937H13.09A1.218,1.218,0,1,0,13.09.5H4.967A4.473,4.473,0,0,0,.5,4.967V21.212A4.473,4.473,0,0,0,4.967,25.68H21.212a4.473,4.473,0,0,0,4.467-4.467V13.09A1.218,1.218,0,0,0,24.461,11.871Z" fill="#005b8e"/>
  </g>
</svg>
