<svg xmlns="http://www.w3.org/2000/svg" width="22" height="17" viewBox="0 0 22 17">
  <g id="Group_8377" data-name="Group 8377" transform="translate(-330 -295)">
    <path id="Vector" d="M22,2.16V14.828A2.142,2.142,0,0,1,19.889,17H2.111A2.142,2.142,0,0,1,0,14.828V2.16A2.14,2.14,0,0,1,2.111,0H19.878A2.156,2.156,0,0,1,22,2.16Zm-20.516,0V14.828a.636.636,0,0,0,.627.645H19.878a.636.636,0,0,0,.627-.645V2.16a.636.636,0,0,0-.627-.645H2.1a.636.636,0,0,0-.627.645Z" transform="translate(330 295)" fill="#005b8e"/>
    <path id="Vector-2" data-name="Vector" d="M.093.355A.728.728,0,0,1,1.111.117c.011.011.022.011.033.023l6.4,4.413L13.948.14a.726.726,0,0,1,1.018.238.771.771,0,0,1-.2,1.018l-6.807,4.7a.721.721,0,0,1-.81,0L.345,1.4A.807.807,0,0,1,.093.355Z" transform="translate(333.461 300.219)" fill="#ffc93c"/>
  </g>
</svg>
