<svg xmlns="http://www.w3.org/2000/svg" width="26.682" height="16.92" viewBox="0 0 26.682 16.92">
  <path id="email_1_" data-name="email (1)" d="M17.151,32.46,9,37.767V27.153Zm10.38,0,8.151,5.307V27.153Zm-1.191.778L22.7,35.61a.656.656,0,0,1-.709,0l-3.644-2.372-8.8,5.73-.511.332a1.957,1.957,0,0,0,1.923,1.62H33.729a1.954,1.954,0,0,0,1.923-1.62l-.514-.332-8.8-5.73Zm-4,1.048,12.8-8.333.514-.332A1.954,1.954,0,0,0,33.729,24H10.952a1.957,1.957,0,0,0-1.923,1.62l.511.332Z" transform="translate(-9 -24)" fill="#fff"/>
</svg>
