<svg xmlns="http://www.w3.org/2000/svg" width="252" height="252" viewBox="0 0 252 252">
  <g id="noun-unfavorite-5657822" transform="translate(-2 -2)">
    <path id="Path_11632" data-name="Path 11632" d="M16.34,4.46A8.4,8.4,0,0,0,4.46,16.34L52.9,64.783l-25.819,8.53C3.484,81.111-5.489,109.907,9,130.025l22.867,31.756a20.352,20.352,0,0,1,3.817,11.762l.243,39.646C36.076,237.734,59.6,255.549,83.1,248.1l39.129-12.4a19.075,19.075,0,0,1,11.538,0L172.9,248.1a36.156,36.156,0,0,0,43.777-19.548L239.66,251.54A8.4,8.4,0,0,0,251.54,239.66ZM203.172,215.052,66.2,78.083,32.355,89.265c-12.59,4.159-17.726,19.831-9.724,30.943L45.5,151.964a37.15,37.15,0,0,1,6.983,21.476l.244,39.647c.084,13.631,12.976,22.907,25.3,19l39.129-12.4a35.875,35.875,0,0,1,21.689,0l39.129,12.4C189.7,235.8,201.933,227.592,203.172,215.052Z" transform="translate(0 0)" fill="#005b8e" fill-rule="evenodd"/>
    <path id="Path_11633" data-name="Path 11633" d="M151.257,148.764a37.121,37.121,0,0,0-6.87,18.788l16.6,16.6.085-13.811a20.351,20.351,0,0,1,3.817-11.762l22.867-31.756c14.487-20.118,5.514-48.914-18.087-56.712L131.685,57.564a19.554,19.554,0,0,1-9.58-6.969L97.838,17.751a36.046,36.046,0,0,0-58.167,0L20.514,43.68,32.527,55.692,53.184,27.734a19.247,19.247,0,0,1,31.143,0l24.268,32.844a36.352,36.352,0,0,0,17.821,12.938L164.4,86.065c12.59,4.159,17.726,19.831,9.724,30.943Z" transform="translate(59.245 3.2)" fill="#005b8e"/>
  </g>
</svg>
