<svg id="No_notifcations" data-name="No notifcations" xmlns="http://www.w3.org/2000/svg" width="309.011" height="198.242" viewBox="0 0 309.011 198.242">
  <path id="Vector" d="M309.011,0V.51H0V0Z" transform="translate(0 197.732)" fill="#dadaf7"/>
  <g id="Group" transform="translate(103.189 0.465)">
    <path id="Vector-2" data-name="Vector" d="M22.3,197.574A22.3,22.3,0,0,1,.052,175.326L0,22.3A22.3,22.3,0,0,1,22.246.052L125.386,0a22.3,22.3,0,0,1,22.246,22.246l.052,153.028a22.334,22.334,0,0,1-22.246,22.248Z" transform="translate(0 0)" fill="#7fadc6" opacity="0.998"/>
    <g id="Group-2" data-name="Group" transform="translate(33.01 32.072)">
      <path id="Vector-3" data-name="Vector" d="M2.974,6.16a3.055,3.055,0,0,1,0-6.108L78.317,0a3.055,3.055,0,0,1,0,6.108Z" transform="translate(0.162 0)" fill="#ccdee8"/>
      <path id="Vector-4" data-name="Vector" d="M2.974,6.16a3.055,3.055,0,0,1,0-6.108L78.317,0a3.055,3.055,0,0,1,0,6.108Z" transform="translate(0.162 29.883)" fill="#ccdee8"/>
      <path id="Vector-5" data-name="Vector" d="M2.974,6.16a3.055,3.055,0,0,1,0-6.108L78.317,0a3.055,3.055,0,0,1,0,6.108Z" transform="translate(0.162 59.766)" fill="#ccdee8"/>
      <path id="Vector-6" data-name="Vector" d="M3.136,6.16a3.055,3.055,0,1,1,0-6.108L78.479,0a3.055,3.055,0,0,1,0,6.108Z" transform="translate(0 89.597)" fill="#ccdee8"/>
    </g>
    <g id="Group-3" data-name="Group" transform="translate(3.259 159.85)">
      <path id="Vector-7" data-name="Vector" d="M5.549,2.189a7.469,7.469,0,0,1-3-.516A7.469,7.469,0,0,1,0,0,16.794,16.794,0,0,0,8.247,2.189Z" transform="translate(0 35.533)" fill="#7fadc6" opacity="0.533"/>
      <path id="Vector-8" data-name="Vector" d="M135.324,0a42.753,42.753,0,0,1,.9,8.654c0,14.255-7.155,26.116-16.581,28.567a9.511,9.511,0,0,1-2.889.458L0,37.73c11.128,0,20.13-12.988,20.13-29.025a39.628,39.628,0,0,0-.9-8.654L96.916,0h38.408Z" transform="translate(8.196 0)" fill="#7fadc6"/>
    </g>
  </g>
  <path id="Vector-9" data-name="Vector" d="M17.264,42.058c-6.364,0-18.531-2.6-17.157-12.371,1.172-8.806,11.047-9.112,11.047-9.112S8.914.314,27.95,0C46.943-.3,46.941,15.89,46.941,15.89a14.691,14.691,0,0,1,16.9-1.374c14.4,8.705,7.435,27.542-10.535,27.542Z" transform="translate(236.818 107.566)" fill="#ccdee8"/>
  <path id="Vector-10" data-name="Vector" d="M16.387,37.678c-16.138,0-22.349-16.85-9.46-24.639A13.115,13.115,0,0,1,22.046,14.26S21.986-.248,39.042,0,54.111,18.431,54.111,18.431s8.815.305,9.927,8.144c1.221,8.757-9.724,11.1-15.375,11.1Z" transform="translate(31.263 0)" fill="#ccdee8"/>
  <g id="Group-4" data-name="Group" transform="translate(0.591 63.947)">
    <path id="Vector-11" data-name="Vector" d="M12.625,0,39.1,10.182,21.788,50.908H12.625L0,31.562Z" transform="translate(47.008 83.183)" fill="#f9acc0"/>
    <path id="Vector-12" data-name="Vector" d="M39.1,31.513l-12.625,19.4H17.31L0,10.182,26.473,0Z" transform="translate(143.631 83.183)" fill="#f9acc0"/>
    <path id="Vector-13" data-name="Vector" d="M24.94,48.521,0,36.812s1.935-2.842,5.345-6.975c6.77-8.095,19.294-21.07,33.8-26.116C61.039-3.915,78.856,1.685,92.093,7.284c8.858,3.717,33.091,31.562,33.091,31.562L99.73,48.521l10.75,34.615H14.254Z" transform="translate(52.505 50.952)" fill="#005b8e"/>
    <path id="Vector-14" data-name="Vector" d="M44.38,14.458a20.307,20.307,0,0,1-8.654,17.819L21.981,40.421S18.417,45,7.727,37.366C1.058,32.58-1.742,20.517,1.109,14.458,5.181,5.8,16.985,2.188,28.09.21,36.746-1.323,44.025,5.753,44.38,14.458Z" transform="translate(87.49 0)" fill="#005b8e"/>
    <path id="Vector-15" data-name="Vector" d="M1.937,6.108A6.351,6.351,0,0,1,9.576,7.127c2.546,1.527,2.036,6.108,2.036,6.108a7.873,7.873,0,0,0,1.533-4.072,13.676,13.676,0,0,0,0-5.091L33.508,0a36.468,36.468,0,0,1,1.529,11.707A12.233,12.233,0,0,1,27.909,22.4l1.526,12.218a24.489,24.489,0,0,1-9.165,2.55,22.347,22.347,0,0,1-10.69-2.036V17.819A8.144,8.144,0,0,1,4.489,16.8C.927,15.265-2.128,8.654,1.937,6.108Z" transform="translate(91.747 19.549)" fill="#f9d2dd"/>
    <path id="Vector-16" data-name="Vector" d="M.169,21.344a.228.228,0,0,1-.153-.305L7.653.167a.228.228,0,0,1,.3-.153A.228.228,0,0,1,8.1.32L.474,21.192c0,.1-.1.153-.2.153Z" transform="translate(77.179 78.385)" fill="#dadaf7"/>
    <path id="Vector-17" data-name="Vector" d="M69.3,70.533c3,12.016-4.582,16.647-10.793,17.157-6.1.553-13.483-3.156-17.2-12.777-3.666-9.621-15.783-53-16.19-53.86A64.585,64.585,0,0,1,6.484,18.864C-1.864,16.218-.54,11.382,1.649,9.6S21.5,8.275,21.5,8.275a7.037,7.037,0,0,1-2.178-2.647A3.96,3.96,0,0,1,19.78.793c1.316-1.324,3.556-.866,5.745.458A22.992,22.992,0,0,0,34.8,5.222c5.753,1.322,8.4,11.047,8.4,11.047S53.428,40.145,56.33,45.032C60.4,51.854,69.305,70.537,69.3,70.533Z" transform="translate(0 46.398)" fill="#f9d2dd"/>
    <path id="Vector-18" data-name="Vector" d="M7.659,21.2.022.327A.215.215,0,0,1,.174.022.215.215,0,0,1,.48.174L8.116,21.047a.215.215,0,0,1-.159.305H7.912a.28.28,0,0,1-.254-.153Z" transform="translate(144.372 78.377)" fill="#dadaf7"/>
    <path id="Vector-19" data-name="Vector" d="M13.589,45.032c2.9-4.887,13.134-28.763,13.134-28.763s2.647-9.724,8.4-11.047A22.992,22.992,0,0,0,44.39,1.251C46.579-.073,48.819-.531,50.143.793A3.96,3.96,0,0,1,50.6,5.629a7.037,7.037,0,0,1-2.189,2.647S66.077,7.818,68.266,9.6s3.511,6.618-4.84,9.264A65.2,65.2,0,0,1,44.794,21.1c-.406.86-12.47,44.238-16.19,53.86s-11.1,13.33-17.2,12.777C5.3,87.232-2.289,82.6.655,70.585c0,0,8.862-18.679,12.934-25.553Z" transform="translate(159.72 46.297)" fill="#f9d2dd"/>
    <path id="Vector-20" data-name="Vector" d="M2.726,8.482a3.7,3.7,0,0,1-2.7-3.109A4.6,4.6,0,0,1,2.115,1C4.713-.528,27.976.138,28.99.183a.241.241,0,0,1,.247.245.273.273,0,0,1-.254.254C20.638.428,4.354.235,2.421,1.407A4.171,4.171,0,0,0,.537,5.277a3.12,3.12,0,0,0,2.341,2.7.228.228,0,0,1,.153.305.26.26,0,0,1-.254.2Z" transform="translate(2.385 56.578)" fill="#fff"/>
    <path id="Vector-21" data-name="Vector" d="M1.7,5.353A2.275,2.275,0,0,1,.02,3.369,2.842,2.842,0,0,1,1.342.619C2.869-.3,16,.06,17.532.11a.241.241,0,0,1,.254.256.273.273,0,0,1-.254.254c-5.8-.2-14.814-.2-15.884.409A2.425,2.425,0,0,0,.572,3.268,1.744,1.744,0,0,0,1.9,4.794a.228.228,0,0,1,.153.305c-.1.2-.2.254-.305.254Z" transform="translate(7.383 60.825)" fill="#fff"/>
    <path id="Vector-22" data-name="Vector" d="M.254.51A.273.273,0,0,1,0,.254.241.241,0,0,1,.254,0L9.368.51a.273.273,0,0,1,.254.254c.054.1-.052.256-.2.256Z" transform="translate(21.147 54.471)" fill="#fff"/>
    <path id="Vector-23" data-name="Vector" d="M26.218,8.3a.247.247,0,0,1,.153-.305,3.12,3.12,0,0,0,2.341-2.7,3.935,3.935,0,0,0-1.883-3.87C24.844.256,8.553.458.254.714A.241.241,0,0,1,0,.458.241.241,0,0,1,.254.2c.968-.052,24.284-.763,26.879.815A4.6,4.6,0,0,1,29.221,5.4a3.636,3.636,0,0,1-2.7,3.1h-.052a.26.26,0,0,1-.254-.2Z" transform="translate(197.797 56.508)" fill="#fff"/>
    <path id="Vector-24" data-name="Vector" d="M15.733,5.116a.247.247,0,0,1,.153-.305A1.8,1.8,0,0,0,17.2,3.284a2.425,2.425,0,0,0-1.075-2.24C15.07.381,6.06.429.255.644A.241.241,0,0,1,0,.381.241.241,0,0,1,.255.128C1.732.076,14.866-.33,16.444.644a2.939,2.939,0,0,1,1.324,2.75,2.275,2.275,0,0,1-1.679,1.984c-.052-.052-.052-.052-.1-.052a.26.26,0,0,1-.256-.211Z" transform="translate(204.314 60.809)" fill="#fff"/>
    <path id="Vector-25" data-name="Vector" d="M0,.764A.241.241,0,0,1,.254.51L9.368,0a.241.241,0,0,1,.254.254.241.241,0,0,1-.254.254L.254,1.019A.241.241,0,0,1,0,.764Z" transform="translate(198.612 54.37)" fill="#fff"/>
    <path id="Vector-26" data-name="Vector" d="M12.371.357l.916,7.329A24.187,24.187,0,0,1,0,0,17.183,17.183,0,0,0,12.524.254c.161-.049.254-.1.406-.153-.357.153-.559.256-.559.256Z" transform="translate(107.283 41.591)" fill="#f9acc0"/>
  </g>
</svg>
