<svg id="library_books_black_24dp" xmlns="http://www.w3.org/2000/svg" width="25.14" height="25.14" viewBox="0 0 25.14 25.14">
  <path id="Path_41" data-name="Path 41" d="M0,0H25.14V25.14H0Z" fill="none"/>
  <g id="Group_8147" data-name="Group 8147">
    <g id="video_1_" data-name="video (1)" transform="translate(2.095 2.095)">
      <path id="Path_11551" data-name="Path 11551" d="M0,0H20.95V20.95H0Z" fill="none"/>
      <path id="Path_11552" data-name="Path 11552" d="M3.492,5.237H1.746V17.458A1.745,1.745,0,0,0,3.492,19.2H15.712V17.458H3.492ZM17.458,1.746H6.983A1.745,1.745,0,0,0,5.237,3.492V13.967a1.745,1.745,0,0,0,1.746,1.746H17.458A1.745,1.745,0,0,0,19.2,13.967V3.492A1.745,1.745,0,0,0,17.458,1.746ZM10.475,12.657V4.8l5.237,3.928Z" fill="#d3d3d3"/>
    </g>
  </g>
</svg>
