<svg xmlns="http://www.w3.org/2000/svg" width="344" height="228.612" viewBox="0 0 344 228.612">
  <g id="Group_8380" data-name="Group 8380" transform="translate(-15.5 -120.351)">
    <g id="undraw_forgot_password_re_hxwm" transform="translate(15.499 120.351)">
      <path id="Path_11487" data-name="Path 11487" d="M440.9,434.7c11.789-20.738,34.277-36.661,58.081-35.127a109.907,109.907,0,0,0-28.906,69.7c-.391,10,.215,21.156-6.422,28.642-4.13,4.658-10.443,6.913-16.65,7.387s-12.413-.648-18.537-1.765l-1.485.456C426.412,480.143,429.108,455.434,440.9,434.7Z" transform="translate(-317.504 -303.128)" fill="#f0f0f0"/>
      <path id="Path_11488" data-name="Path 11488" d="M498.993,399.279a93.944,93.944,0,0,0-41.828,39.888,40.457,40.457,0,0,0-4.428,11.876,23.2,23.2,0,0,0,1.207,12.151c1.308,3.636,3.066,7.2,3.467,11.095a14.206,14.206,0,0,1-3.8,10.979c-3.323,3.724-7.786,6.031-12.229,8.136-4.933,2.337-10.094,4.686-13.588,9.048-.423.528-1.219-.159-.8-.687,6.079-7.588,16.484-9.015,23.7-15.128,3.367-2.852,5.895-6.737,5.735-11.288-.139-3.98-1.95-7.661-3.306-11.331a24.759,24.759,0,0,1-1.623-11.838,37.4,37.4,0,0,1,3.955-12,91.138,91.138,0,0,1,16.76-23.033,95.61,95.61,0,0,1,26.435-18.861c.608-.293.945.7.341.995Z" transform="translate(-317.484 -302.34)" fill="#fff"/>
      <path id="Path_11489" data-name="Path 11489" d="M507.9,463.646a14.094,14.094,0,0,1-4.253-17.748c.308-.6,1.258-.152.95.451a13.051,13.051,0,0,0,3.99,16.5C509.135,463.247,508.445,464.04,507.9,463.646Z" transform="translate(-365.519 -332.587)" fill="#fff"/>
      <path id="Path_11490" data-name="Path 11490" d="M498.4,555.376a27.165,27.165,0,0,0,17.2-9.8c.425-.527,1.221.16.8.687a28.256,28.256,0,0,1-17.919,10.165C497.807,556.521,497.734,555.472,498.4,555.376Z" transform="translate(-362.846 -396.277)" fill="#fff"/>
      <path id="Path_11491" data-name="Path 11491" d="M573.385,432.461A7.979,7.979,0,0,0,580.515,435c.669-.1.742.945.077,1.049a8.94,8.94,0,0,1-7.895-2.795.543.543,0,0,1-.054-.741.528.528,0,0,1,.741-.054Z" transform="translate(-410.459 -324.11)" fill="#fff"/>
      <path id="Path_11492" data-name="Path 11492" d="M544.722,557.589c-.416.077-.832.154-1.252.239a105.067,105.067,0,0,0-16.427,4.541c-.416.145-.835.3-1.245.454a110.76,110.76,0,0,0-34.836,21.2,107.549,107.549,0,0,0-11.283,11.823c-4.772,5.83-9.482,12.532-15.719,16.333a18.413,18.413,0,0,1-2.008,1.088l-35.924-14.9c-.065-.075-.133-.142-.2-.217l-1.462-.529c.163-.23.337-.465.5-.7.094-.134.2-.265.29-.4.065-.088.131-.176.184-.26.022-.029.044-.059.062-.08.054-.083.113-.155.163-.23q1.454-1.976,2.94-3.939c0-.008,0-.008.015-.013a158.161,158.161,0,0,1,25.682-27.177c.29-.235.583-.479.889-.707a102.638,102.638,0,0,1,13.874-9.385,90.731,90.731,0,0,1,8.23-4.07,75.457,75.457,0,0,1,22.861-5.83c15.706-1.458,31.7,2.123,43.75,11.99C544.117,557.079,544.418,557.328,544.722,557.589Z" transform="translate(-315.883 -395.728)" fill="#f0f0f0"/>
      <path id="Path_11493" data-name="Path 11493" d="M545.334,576.791a93.942,93.942,0,0,0-57.413,6.665,40.453,40.453,0,0,0-10.686,6.817,23.2,23.2,0,0,0-6.352,10.429c-1.145,3.691-1.889,7.6-3.912,10.946a14.208,14.208,0,0,1-9.646,6.477c-4.9.972-9.848.127-14.663-.867-5.346-1.1-10.881-2.336-16.3-.957-.656.167-.877-.861-.222-1.028,9.422-2.4,18.589,2.727,28.031,2.191,4.406-.25,8.763-1.83,11.375-5.56,2.285-3.262,3.055-7.291,4.183-11.038a24.758,24.758,0,0,1,5.831-10.429,37.391,37.391,0,0,1,10.384-7.2,91.135,91.135,0,0,1,27.249-8.3,95.606,95.606,0,0,1,32.463.856c.662.132.33,1.131-.327,1Z" transform="translate(-316.765 -414.508)" fill="#fff"/>
      <path id="Path_11494" data-name="Path 11494" d="M612.164,562.372a14.1,14.1,0,0,1,7.29-16.732c.608-.3,1.1.636.487.932a13.052,13.052,0,0,0-6.749,15.578C613.391,562.8,612.362,563.015,612.164,562.372Z" transform="translate(-435.38 -396.405)" fill="#fff"/>
      <path id="Path_11495" data-name="Path 11495" d="M550.03,642.429a27.166,27.166,0,0,0,19.635,2.528c.657-.165.878.863.222,1.028a28.257,28.257,0,0,1-20.427-2.672C548.867,642.985,549.44,642.1,550.03,642.429Z" transform="translate(-395.578 -458.182)" fill="#fff"/>
      <path id="Path_11496" data-name="Path 11496" d="M694.566,575.344a7.978,7.978,0,0,0,4.163,6.323c.6.32.024,1.2-.57.884a8.94,8.94,0,0,1-4.621-6.985.543.543,0,0,1,.4-.625A.528.528,0,0,1,694.566,575.344Z" transform="translate(-487.706 -415.138)" fill="#fff"/>
      <path id="Path_11497" data-name="Path 11497" d="M284.788,538.3c-5.031-24.326-11.32-32.436-11.32-32.436l-2.4-1.863-2.889-2.244.014-.289-.685-.233-.161-.125-.264-.2-.042.045-.09.093-13.074-4.444-16.586-5.634-7.68-9.983a13.284,13.284,0,0,0-10.627-5.184l-24.529.181a13.285,13.285,0,0,0-8.936,3.544l-16.123,14.955-25.122,12-.042-.042-.264.188-3.882,1.856.16.834-2.4,1.734s-6.289,7.547-11.32,30.182c-1.28,5.759-1.91,18.114-2.137,33.338a5.811,5.811,0,0,0,5.809,5.9H281.123a5.812,5.812,0,0,0,5.809-5.891C286.71,558.014,286.08,544.551,284.788,538.3Z" transform="translate(-124.382 -351.86)" fill="#005b8e"/>
      <path id="Path_11498" data-name="Path 11498" d="M580.8,191.732a19.684,19.684,0,0,0,0,39.368H727.5a19.684,19.684,0,1,0,0-39.368Z" transform="translate(-403.179 -170.518)" fill="#e5e5e5"/>
      <path id="Path_11499" data-name="Path 11499" d="M587.833,202.747a15.7,15.7,0,0,0,0,31.4H734.527a15.7,15.7,0,1,0,0-31.4Z" transform="translate(-410.211 -177.549)" fill="#fff"/>
      <circle id="ab6171fa-7d69-4734-b81c-8dff60f9761b" cx="32.136" cy="32.136" r="32.136" transform="translate(54.05 50.458)" fill="#9e616a"/>
      <path id="Path_11500" data-name="Path 11500" d="M339.247,444.367q-.206-.454-.411-.91c.053,0,.1.009.157.011Z" transform="translate(-261.282 -331.21)" fill="#2f2e41"/>
      <path id="Path_11501" data-name="Path 11501" d="M249.141,249.751c1.625-1.3,3.525-2.49,5.6-2.423s4.185,1.944,3.755,3.978a33.024,33.024,0,0,1,39.742-14.9c5.165,1.822,10.23,5.468,11.416,10.814.3,1.373.37,2.878,1.227,3.992a4.557,4.557,0,0,0,4.85,1.229l.051-.015a1.518,1.518,0,0,1,1.835,2.143l-1.461,2.725a11.711,11.711,0,0,0,5.579-.119,1.517,1.517,0,0,1,1.611,2.361,26.443,26.443,0,0,1-21.084,10.838c-5.839-.036-11.738-2.048-17.421-.705a15.132,15.132,0,0,0-10.178,21.242c-1.746-1.909-5.12-1.457-6.906.415s-2.248,4.666-2.068,7.247c.275,3.948,1.822,7.667,3.452,11.287a33.744,33.744,0,0,1-20-60.109Z" transform="translate(-195.985 -197.831)" fill="#2f2e41"/>
      <path id="Path_11502" data-name="Path 11502" d="M87.464,495.253l9.013,49.04,5.408.471Z" transform="translate(-55.834 -316.153)" opacity="0.2"/>
      <path id="Path_11503" data-name="Path 11503" d="M336.55,485.026l-9.013,52.7-5.408.506Z" transform="translate(-205.635 -309.624)" opacity="0.2"/>
      <path id="Path_11504" data-name="Path 11504" d="M260.652,168.484a3.2,3.2,0,0,1-4.288-1.88,3.253,3.253,0,0,1,1.705-4.439,3.417,3.417,0,0,1,2.583,6.319Zm-3.31-9.938-1.374.574a1.482,1.482,0,0,1-1.883-.691l-.068-.133c-1.479-2.666-1.648-5.907-.5-9.627,1.063-3.337,1.5-5.684.616-7.81-1.026-2.458-3.218-3.228-6.013-2.113a5.109,5.109,0,0,0-2.282,1.292,1.959,1.959,0,0,1-1.418.576,1.893,1.893,0,0,1-1.355-.594,1.934,1.934,0,0,1-.013-2.639,15.02,15.02,0,0,1,5.079-3.488c6.005-2.508,9.029,1.195,10.412,4.508,1.353,3.241.592,6.247-.631,10.141-1.025,3.236-.965,5.633.2,8.017a1.476,1.476,0,0,1-.769,1.986Z" transform="translate(-199.808 -133.069)" fill="#005b8e"/>
      <path id="Path_11505" data-name="Path 11505" d="M652.387,269.64H623.2a.7.7,0,0,1,0-1.406h29.187a.7.7,0,0,1,0,1.406Z" transform="translate(-442.362 -219.354)" fill="#005b8e"/>
      <path id="Path_11506" data-name="Path 11506" d="M754.768,270.288H725.582a.7.7,0,1,1,0-1.406h29.186a.7.7,0,0,1,0,1.406Z" transform="translate(-507.719 -219.768)" fill="#005b8e"/>
      <path id="Path_11507" data-name="Path 11507" d="M857.15,270.936H827.964a.7.7,0,0,1,0-1.406H857.15a.7.7,0,1,1,0,1.406Z" transform="translate(-573.076 -220.181)" fill="#005b8e"/>
      <path id="Path_11508" data-name="Path 11508" d="M959.528,271.584H930.342a.7.7,0,0,1,0-1.406h29.186a.7.7,0,0,1,0,1.406Z" transform="translate(-638.43 -220.595)" fill="#005b8e"/>
      <circle id="Ellipse_57" data-name="Ellipse 57" cx="5.425" cy="5.425" r="5.425" transform="translate(189.943 32.967)" fill="#005b8e"/>
      <circle id="Ellipse_58" data-name="Ellipse 58" cx="5.425" cy="5.425" r="5.425" transform="translate(227.191 32.967)" fill="#005b8e"/>
      <circle id="Ellipse_59" data-name="Ellipse 59" cx="5.425" cy="5.425" r="5.425" transform="translate(264.44 32.967)" fill="#005b8e"/>
      <circle id="Ellipse_60" data-name="Ellipse 60" cx="5.425" cy="5.425" r="5.425" transform="translate(301.688 32.967)" fill="#005b8e"/>
    </g>
  </g>
</svg>
