<svg xmlns="http://www.w3.org/2000/svg" width="375" height="275" viewBox="0 0 375 275">
  <g id="Group_8377" data-name="Group 8377" transform="translate(3 -175)">
    <rect id="Rectangle_7" data-name="Rectangle 7" width="375" height="275" transform="translate(-3 175)" fill="#f4f7fa"/>
    <path id="Vector" d="M.29,12.452,0,12.107A60.206,60.206,0,0,1,19.753,1.945C30.5-1.194,46.582-2.082,62.2,11.507l-.3.341C46.444-1.6,30.527-.728,19.894,2.375A59.727,59.727,0,0,0,.29,12.452Z" transform="translate(179.485 251.047)" fill="#dadada"/>
    <path id="Vector-2" data-name="Vector" d="M229.335,124.245,13.221,124.7A57.38,57.38,0,0,1,1.26,98.9C-1.884,82,.678,64.593,10.96,50.824,17.105,42.6,25.519,35.574,35.549,33.37c18.639-4.1,38.4,8.967,56.565,3.111,11.014-3.551,18.671-13.231,27.413-20.815C131.177,5.558,146.435-1.388,161.773.236s30,13.485,31.6,28.825c.624,5.98-.546,12.516,2.606,17.635,3.175,5.156,9.806,6.59,15.1,9.525,17.955,9.953,24.886,23.523,26.564,41.4.719,7.666-1.988,20.3-8.307,26.622Z" transform="translate(66.214 252.668)" fill="#f6f5f5"/>
    <path id="Vector-3" data-name="Vector" d="M33.4,16.7A16.7,16.7,0,1,1,16.7,0,16.7,16.7,0,0,1,33.4,16.7Z" transform="translate(132.315 247.984)" fill="#f6f5f5"/>
    <path id="Vector-4" data-name="Vector" d="M13.841,6.921A6.921,6.921,0,1,1,6.921,0,6.921,6.921,0,0,1,13.841,6.921Z" transform="translate(167.06 249.787) rotate(-45)" fill="#f6f5f5"/>
    <path id="Vector-5" data-name="Vector" d="M13.841,6.921A6.921,6.921,0,1,1,6.921,0a6.921,6.921,0,0,1,6.921,6.921Z" transform="translate(272.974 298.08) rotate(-45)" fill="#f6f5f5"/>
    <path id="Vector-6" data-name="Vector" d="M38.035,72.43l-.4-.212C45.754,56.917,46.614,40.467,40,27.09,33.036,13.026,18.832,3.563,0,.445L.074,0C19.053,3.142,33.375,12.691,40.4,26.89,47.084,40.4,46.223,57,38.036,72.429Z" transform="translate(264.784 304.74)" fill="#dadada"/>
    <path id="Vector-7" data-name="Vector" d="M19.7,93.849A73.089,73.089,0,0,1,1.038,57.173C-1.223,44.637.238,32.2,5.152,22.148,12.744,6.622,27.436-1.378,45.458.195l-.039.45C27.59-.913,13.062,7,5.557,22.346.686,32.311-.762,44.651,1.482,57.093a72.645,72.645,0,0,0,18.545,36.45l-.33.307Z" transform="translate(61 283.97)" fill="#dadada"/>
    <path id="Vector-8" data-name="Vector" d="M0,0H58.072V32.689H0Z" transform="translate(86.58 344.644)" fill="#ff9064"/>
    <path id="Vector-9" data-name="Vector" d="M0,0H20.807V32.689H0Z" transform="translate(86.58 344.644)" fill="#b25834" opacity="0.5"/>
    <path id="Vector-10" data-name="Vector" d="M0,0H7.963V5.416H0Z" transform="translate(118.399 352.607) rotate(-90)" fill="#fff" opacity="0.3"/>
    <path id="Vector-11" data-name="Vector" d="M0,0H95.927V68.3H0Z" transform="translate(133.181 309.031)" fill="#102048"/>
    <path id="Vector-12" data-name="Vector" d="M17.746,22.116H0V5.917a5.917,5.917,0,0,1,11.834-.054v.054l0,10.281c0,.05,0,.1,0,.154v.312l.018-.009a5.911,5.911,0,0,0,5.894,5.461Z" transform="translate(220.702 262.767)" fill="#86a7ff"/>
    <path id="Vector-13" data-name="Vector" d="M11.807,0V3.579A5.912,5.912,0,0,1,0,4.031L11.807,0Z" transform="translate(232.554 275.392)" fill="#d3dfff"/>
    <path id="Vector-14" data-name="Vector" d="M85,0c-.127,0-.248,0-.37.013-.081,0-.158.009-.235.018s-.167.018-.253.031c-.05,0-.1.013-.149.022s-.127.022-.185.036c-.09.018-.176.036-.266.059-.127.031-.253.068-.379.112-.063.018-.127.041-.185.063S82.856.4,82.8.423a2.451,2.451,0,0,0-.248.108,2.391,2.391,0,0,0-.217.1c-.018.009-.041.018-.063.031-.063.031-.127.068-.189.1a5.445,5.445,0,0,0-.709.474c-.063.05-.131.1-.189.154s-.136.117-.2.18-.131.127-.194.189a6.09,6.09,0,0,0-.5.573c-.068.09-.131.176-.194.266a6.673,6.673,0,0,0-.519.952c-.036.081-.068.167-.1.253a6.8,6.8,0,0,0-.239.794c-.018.095-.036.185-.054.275-.031.185-.059.375-.072.564v83H0V9.225A9.224,9.224,0,0,1,9.225,0Z" transform="translate(141.619 262.768)" fill="#d3dfff"/>
    <path id="Vector-15" data-name="Vector" d="M0,0H60.028V3.159H0Z" transform="translate(150.971 271.226)" fill="#adc3ff"/>
    <path id="Vector-16" data-name="Vector" d="M0,0H55.376V3.159H0Z" transform="translate(150.971 280.478)" fill="#adc3ff"/>
    <path id="Vector-17" data-name="Vector" d="M0,0H52.457V3.159H0Z" transform="translate(150.971 289.73)" fill="#adc3ff"/>
    <path id="Vector-18" data-name="Vector" d="M0,0H60.028V3.159H0Z" transform="translate(150.971 298.982)" fill="#adc3ff"/>
    <path id="Vector-19" data-name="Vector" d="M0,0H32.544V3.159H0Z" transform="translate(174.167 308.348)" fill="#adc3ff"/>
    <path id="Vector-20" data-name="Vector" d="M1.169,9.861a1.076,1.076,0,0,1-.917-.435A2.019,2.019,0,0,1,.007,8.164L.313,0,.763.017.457,8.181a1.614,1.614,0,0,0,.161.981c.384.529,1.306.071,1.487-.026A7.116,7.116,0,0,0,4.3,6.844,6.667,6.667,0,0,1,6.822,4.359c.651-.285,1.13.133,1.515.466a1.965,1.965,0,0,0,.643.433,3.217,3.217,0,0,0,1.75-.137,4.06,4.06,0,0,1,1.657-.2,4.487,4.487,0,0,1,1.346.487,2.518,2.518,0,0,0,1.868.37,10.547,10.547,0,0,0,2.922-1.407c.27-.165.537-.329.809-.487A5.992,5.992,0,0,1,23.5,2.873l-.1.44a5.589,5.589,0,0,0-3.846.964c-.268.155-.533.319-.8.481A10.877,10.877,0,0,1,15.7,6.219a2.956,2.956,0,0,1-2.174-.4,4.15,4.15,0,0,0-1.214-.445,3.734,3.734,0,0,0-1.475.187,3.611,3.611,0,0,1-1.992.134,2.3,2.3,0,0,1-.811-.525c-.4-.349-.668-.554-1.039-.394A6.245,6.245,0,0,0,4.663,7.105,7.44,7.44,0,0,1,2.317,9.533a2.539,2.539,0,0,1-1.15.328Z" transform="translate(179.549 316.228)" fill="#102048"/>
    <path id="Vector-21" data-name="Vector" d="M79.1,3.426V42.751H0V0L24.711,20.558a6.249,6.249,0,0,0,4.91,1.322,9.4,9.4,0,0,1,1.557-.086l16.844.474a9.519,9.519,0,0,1,1.724.212,6.193,6.193,0,0,0,5.014-1.034L79.1,3.425Z" transform="translate(141.619 308.465)" fill="#86a7ff" opacity="0.3"/>
    <path id="Vector-22" data-name="Vector" d="M36.067,28.317l-.659.731L5.638,62.059,0,68.306V0Z" transform="translate(133.183 309.029)" fill="#7d69ed"/>
    <path id="Vector-23" data-name="Vector" d="M36.068,68.3,0,28.315,36.068,0Z" transform="translate(193.04 309.031)" fill="#7d69ed"/>
    <path id="Vector-24" data-name="Vector" d="M35.407,1.183,5.637,34.193,0,35.434V23.3C14.88,12.633,31.576.266,35.389,0Z" transform="translate(133.184 336.895)" fill="#5b4dad"/>
    <path id="Vector-25" data-name="Vector" d="M.018,0C3.831.266,20.527,12.633,35.407,23.3V35.434L29.77,34.193,0,1.183Z" transform="translate(193.701 336.895)" fill="#5b4dad"/>
    <path id="Vector-26" data-name="Vector" d="M95.927,41.416H0l.018-8.985L33.072,2.445A9.426,9.426,0,0,1,39.406,0H56.257a9.432,9.432,0,0,1,6.259,2.377l33.5,29.744-.094,9.3Z" transform="translate(133.181 335.917)" fill="#7d69ed"/>
    <path id="Vector-27" data-name="Vector" d="M32.947,16.473A16.473,16.473,0,1,1,16.473,0,16.474,16.474,0,0,1,32.947,16.473Z" transform="translate(199.436 360.859) rotate(-45)" fill="#5b4dad" opacity="0.4"/>
    <path id="Vector-28" data-name="Vector" d="M32.947,16.473A16.473,16.473,0,1,1,16.473,0,16.474,16.474,0,0,1,32.947,16.473Z" transform="translate(204.4 360.859) rotate(-45)" fill="#eb5d60"/>
    <path id="Vector-29" data-name="Vector" d="M8.246,17.853a2.784,2.784,0,0,1-2.067-.919L.35,10.5A1.354,1.354,0,0,1,2.357,8.68l5.828,6.435a.083.083,0,0,0,.079.028.076.076,0,0,0,.065-.051L14.6.81A1.354,1.354,0,0,1,17.082,1.9L10.808,16.181a2.8,2.8,0,0,1-2.564,1.671Z" transform="translate(219.099 351.933)" fill="#fff"/>
    <path id="Vector-30" data-name="Vector" d="M5.341,0,7.823,2.407,8.2,6.319l6.319,5.191H.527L0,2.407Z" transform="translate(113.359 333.134)" fill="#102048"/>
    <path id="Vector-31" data-name="Vector" d="M6.093,0,8.951,3.761,8.124,7.221l3.386,7.673L0,9.854,2.257,1.73Z" transform="translate(94.328 329.749)" fill="#102048"/>
    <path id="Vector-32" data-name="Vector" d="M4.474,0l6.921,2.934,3.221,9.825a12.156,12.156,0,0,1,.041,7.444c-1.534,6.856-4.419,14.354-7.926,22.148L.036,40.32c-.451-8.35,3.536-22.266,3.536-22.266C3.12,5.642,4.474,0,4.474,0Z" transform="translate(96.549 291.159)" fill="#1f3c88"/>
    <path id="Vector-33" data-name="Vector" d="M24.084,31.1l-1.06,26.069H15.2a116.439,116.439,0,0,1-3.064-20.595c-.221-4.094-.095-6.486-.095-6.486a85.558,85.558,0,0,1-9.754-13.4C-.292,11.987-.134,9.722.154,8.124a25.24,25.24,0,0,1,2.7-6.572C3.382.613,3.765,0,3.765,0L16.854,4.216,15.292,9.862l-.027.095a3.307,3.307,0,0,0,.32,2.523l6.865,11.956A12.385,12.385,0,0,1,24.085,31.1Z" transform="translate(98.159 278.37)" fill="#3a6bea"/>
    <path id="Vector-34" data-name="Vector" d="M8.574,56.155H8.564a.168.168,0,0,1-.158-.179c.016-.262,1.63-26.183-.286-30.308a30.115,30.115,0,0,0-1.567-2.721C3.788,18.465-.84,10.964.132.154A.167.167,0,0,1,.316,0,.169.169,0,0,1,.469.185C-.492,10.882,4.1,18.322,6.841,22.767a30.294,30.294,0,0,1,1.587,2.756c1.951,4.2.384,29.4.316,30.472a.169.169,0,0,1-.169.159Z" transform="translate(109.599 279.556)" fill="#1f3c88"/>
    <path id="Vector-35" data-name="Vector" d="M14,4.216,12.434,9.862A39.491,39.491,0,0,1,0,1.552C.524.613.907,0,.907,0Z" transform="translate(101.017 278.37)" fill="#1f3c88" opacity="0.6"/>
    <path id="Vector-36" data-name="Vector" d="M.133,2.339,0,.078,4.313,0a.161.161,0,0,1,.172.166.169.169,0,0,1-.166.172L.359.41.452,1.985,4.46,1.8a.172.172,0,0,1,.177.162.169.169,0,0,1-.162.177Z" transform="translate(117.092 337.479)" fill="#fff"/>
    <path id="Vector-37" data-name="Vector" d="M3.765,3.355a.174.174,0,0,1-.052-.008L0,2.161.927,0,4.2,1.183a.169.169,0,1,1-.115.319L1.112.428.459,1.953,3.817,3.024a.169.169,0,0,1-.052.33Z" transform="translate(98.687 333.786)" fill="#fff"/>
    <path id="Vector-38" data-name="Vector" d="M7.745,2.821,7.5,3.733,6.526,7.42,5.867,9.894,0,7.786,2.83,2,4.211,0Z" transform="translate(111.894 254.788)" fill="#f9b384"/>
    <path id="Vector-39" data-name="Vector" d="M2.381.533,1.406,4.22A5.5,5.5,0,0,1,.03,0Z" transform="translate(117.015 257.988)" fill="#102048"/>
    <path id="Vector-40" data-name="Vector" d="M8.726,2.031s-.376,8.35-4.589,7.635S0,1.767,0,1.767L5.492,0Z" transform="translate(115.314 250.389)" fill="#f9b384"/>
    <path id="Vector-41" data-name="Vector" d="M1.29,9.139C-2.772,2.341,4.055.846,4.055.846c3.809-3.1,8.66,3.329,8.66,3.329-.593,1.241-2.107.6-2.107.6A5.741,5.741,0,0,0,4.76,6.037Z" transform="translate(113.432 247.643)" fill="#102048"/>
    <path id="Vector-42" data-name="Vector" d="M2.592,1.485A1.4,1.4,0,0,1,1.3,2.971,1.4,1.4,0,0,1,0,1.485,1.4,1.4,0,0,1,1.3,0,1.4,1.4,0,0,1,2.592,1.485Z" transform="matrix(0.988, -0.157, 0.157, 0.988, 116.753, 252.605)" fill="#f9b384"/>
    <path id="Vector-43" data-name="Vector" d="M1.5.752A.752.752,0,1,1,.752,0,.752.752,0,0,1,1.5.752Z" transform="matrix(0.16, -0.987, 0.987, 0.16, 122.573, 257.253)" fill="#f9b384"/>
    <path id="Vector-44" data-name="Vector" d="M2.6,1.3A1.3,1.3,0,1,1,1.3,0,1.3,1.3,0,0,1,2.6,1.3Z" transform="translate(119.226 254.563)" fill="#eb5d60" opacity="0.4"/>
    <path id="Vector-45" data-name="Vector" d="M7.3,3.366S8.075,4.431,6.49,5.5c0,0,1.26.862-3.082,2.283-.483.158-1.034.32-1.666.492L0,1.944S7.75-.674,7.944.166,6.558,2.139,6.558,2.139s2.776-.681.74,1.227Z" transform="translate(137.579 266)" fill="#f9b384"/>
    <path id="Vector-46" data-name="Vector" d="M39.306,7.384l1.744,6.331-8.561,1.953a9.022,9.022,0,0,1-5.472-.466l-5.839-2.429s-1.548,10.561-2.9,11.885C16.139,26.765.116,18.453,0,17.437s2.37-1.8,2.37-1.8S11.514.963,14.222.061s15.909,8.5,15.909,8.5l9.176-1.176Z" transform="translate(98.273 260.557)" fill="#fbc343"/>
    <path id="Vector-47" data-name="Vector" d="M1.65,5.411l.291,1.141-.33.075c-.1-.378-.193-.757-.289-1.133C1.007,4.261.7,3.057.419,1.9.339,1.575.268,1.243.2.91.133.621.068.331,0,.043L.337,0C.4.279.466.56.527.839c.071.33.143.659.22.981.279,1.157.587,2.359.9,3.591Z" transform="translate(135.35 268.185)" fill="#fff"/>
    <path id="Vector-48" data-name="Vector" d="M12.2.746c.14.085.278.17.417.256-.255.055-.511.112-.766.165a21.8,21.8,0,0,1-8.049.511A10.59,10.59,0,0,1,0,.265C.072.174.143.087.214,0A10.259,10.259,0,0,0,3.862,1.344,21.506,21.506,0,0,0,11.785.835L12.2.745Z" transform="translate(109.086 263.679)" fill="#fff"/>
    <path id="Vector-49" data-name="Vector" d="M15.478,7.373c.113-.009.226-.014.338-.023-.026.115-.052.23-.079.345l-.231.016a13.735,13.735,0,0,1-2.381.057A11.46,11.46,0,0,1,7.386,5.047c-.466-.37-.923-.753-1.379-1.137A23.905,23.905,0,0,0,2.365,1.223,9.056,9.056,0,0,0,0,.3C.063.2.126.1.193,0A9.431,9.431,0,0,1,2.53.927,24.162,24.162,0,0,1,6.223,3.65c.454.382.909.763,1.372,1.131A11.145,11.145,0,0,0,13.157,7.43a13.359,13.359,0,0,0,2.322-.057Z" transform="translate(102.296 273.309)" fill="#fff"/>
    <path id="Vector-50" data-name="Vector" d="M1.753,4.316C.607,3.776,0,0,0,0L2.377,1.043Z" transform="translate(117.076 272.289)" fill="#e49b31"/>
    <path id="Vector-51" data-name="Vector" d="M3.408,5.836c-.483.158-1.034.32-1.666.492L0,0,3.407,5.836Z" transform="translate(137.579 267.944)" fill="#e28b6d"/>
    <path id="Vector-52" data-name="Vector" d="M4.253,0l5.4,1.418L5.529,14.981,0,12.5A81.1,81.1,0,0,1,4.252,0Z" transform="translate(245.413 299.459)" fill="#e28b6d"/>
    <path id="Vector-53" data-name="Vector" d="M0,11.243C4.436-.743,10,.009,10,.009L5.4,12.662,0,11.243Z" transform="translate(249.665 288.217)" fill="#102048"/>
    <path id="Vector-54" data-name="Vector" d="M17.9,5.266,14.894,16.7,0,10.982,3.986,0Z" transform="translate(239.132 307.257)" fill="#102048"/>
    <path id="Vector-55" data-name="Vector" d="M4.866,5.112a1.105,1.105,0,0,1-1.572.174A3.883,3.883,0,0,1,.731,4.179,1.08,1.08,0,0,1,.112,2.687C.659,1.59,1.506.044,1.91.105c.506.077.14,1.638.14,1.638S2.893-.238,3.693.024c.357.117-.5,2-.588,2.2C3.24,2.046,4.31.606,4.72.909S4.131,2.917,4.026,3.1c.116-.145,1.055-1.277,1.513-.9.2.166-.113,1.317-.672,2.917Z" transform="translate(243.152 316.78)" fill="#e28b6d"/>
    <path id="Vector-56" data-name="Vector" d="M2.257.452,10.268,0C7.221,6.657,0,7.447,0,7.447Z" transform="translate(275.991 352.241)" fill="#102048"/>
    <path id="Vector-57" data-name="Vector" d="M9.787,4.314,3.113,8.861,0,4.288,6.921,0Z" transform="translate(277.044 352.316)" fill="#e28b6d"/>
    <path id="Vector-58" data-name="Vector" d="M.46,15.131l.677-8.914L0,4.547,6.673,0l4.28,6.443Z" transform="translate(280.158 356.63)" fill="#102048"/>
    <path id="Vector-59" data-name="Vector" d="M0,0H3.393V.451H0Z" transform="translate(281.279 362.63) rotate(-2.91)" fill="#fff"/>
    <path id="Vector-60" data-name="Vector" d="M8.173,5.633,0,6.152V0L7.6.452Z" transform="translate(256.659 364.05)" fill="#e28b6d"/>
    <path id="Vector-61" data-name="Vector" d="M13.89,0l.853,7.681H0L5.717,1.965V.519Z" transform="translate(250.941 369.683)" fill="#102048"/>
    <path id="Vector-62" data-name="Vector" d="M0,0H.452V3.744H0Z" transform="translate(256.368 371.948) rotate(-59.86)" fill="#fff"/>
    <path id="Vector-63" data-name="Vector" d="M12.5,16.465c-.117,2.8-.14,5.75-.09,8.725.046,2.581.14,5.182.275,7.722.65,12.624,2.153,23.8,2.153,23.8L3.106,58.223C-2.459,19.408,1.152,3.006,1.152,3.006L6.266,1.964l4.541-.926L15.9,0c-.063.095-.127.194-.185.3a17.255,17.255,0,0,0-1.864,4.96A61.793,61.793,0,0,0,12.5,16.465Z" transform="translate(251.37 308.763)" fill="#3a6bea"/>
    <path id="Vector-64" data-name="Vector" d="M3.413,18.771C-1.507,8.314.339,0,.339,0L3.228,2.324c-.117,2.8-.14,5.75-.09,8.725.046,2.581.14,5.182.275,7.722Z" transform="translate(260.646 322.904)" fill="#1f3c88"/>
    <path id="Vector-65" data-name="Vector" d="M28.66,43.554C23.018,45.7,18.392,51,18.392,51A183.691,183.691,0,0,1,6.183,25.266,113.449,113.449,0,0,1,.42,4.532C.279,3.7.149,2.866.036,2.041.022,1.964.009,1.883,0,1.806l4.577-.691L9.482.375,11.96,0c.266,1.58.623,3.231,1.052,4.933C17.281,21.921,28.66,43.553,28.66,43.553Z" transform="translate(257.599 308.687)" fill="#3a6bea"/>
    <path id="Vector-66" data-name="Vector" d="M6.012,14.2a15.586,15.586,0,0,1-3.028-2.323,10.754,10.754,0,0,1-2.9-8.717A10.341,10.341,0,0,1,1.043,0c.047.164.094.328.142.493A9.973,9.973,0,0,0,.42,3.2a10.407,10.407,0,0,0,2.807,8.436A14.293,14.293,0,0,0,5.8,13.662c.071.179.143.357.214.536Z" transform="translate(270.318 316.403)" fill="#fff"/>
    <path id="Vector-67" data-name="Vector" d="M12.39.3a13.864,13.864,0,0,1-4.408.72,14.867,14.867,0,0,0-4.492.711A6.858,6.858,0,0,0,.175,4.567L0,4.208A7.139,7.139,0,0,1,3.367,1.417a15.091,15.091,0,0,1,4.6-.733A13.6,13.6,0,0,0,12.249,0c.047.1.095.2.142.3Z" transform="translate(269.845 343.779)" fill="#fff"/>
    <path id="Vector-68" data-name="Vector" d="M3.426,1.612A15.526,15.526,0,0,0,.021.354L0,0A15.832,15.832,0,0,1,3.579,1.31c3.669,1.862,6.649,4.92,9.284,7.842l.046.557c-2.688-3-5.729-6.191-9.482-8.1Z" transform="translate(251.773 341.182)" fill="#fff"/>
    <path id="Vector-69" data-name="Vector" d="M12.268,2.371a6.679,6.679,0,0,1-2.93-.039,19.214,19.214,0,0,1-2.631-.894A17.96,17.96,0,0,0,3.989.529,8.778,8.778,0,0,0,.041.6C.028.489.013.375,0,.263A9.11,9.11,0,0,1,4.061.2a18.107,18.107,0,0,1,2.77.925A18.955,18.955,0,0,0,9.416,2a6.3,6.3,0,0,0,2.814.031c.012.112.025.228.038.337Z" transform="translate(253.351 358.172)" fill="#fff"/>
    <path id="Vector-70" data-name="Vector" d="M2.717,5.844A7.807,7.807,0,0,0,0,.426C.005.283.011.14.016,0A8.167,8.167,0,0,1,3.055,5.827,8.209,8.209,0,0,1,.021,12.506c-.005-.145-.011-.292-.015-.435A7.849,7.849,0,0,0,2.718,5.845Z" transform="translate(251.465 322.585)" fill="#fff"/>
    <path id="Vector-71" data-name="Vector" d="M18.09,4.934a28.02,28.02,0,0,1-5.393.4,41.126,41.126,0,0,1-7.2-.8A41.263,41.263,0,0,1,0,3.083L5.114,2.041c-.013-.077-.027-.158-.036-.235l4.577-.691L14.745.077c-.063.095-.127.194-.185.3L17.039,0c.266,1.58.623,3.231,1.052,4.933Z" transform="translate(252.521 308.687)" fill="#1f3c88" opacity="0.4"/>
    <path id="Vector-72" data-name="Vector" d="M7.5,12.1a.226.226,0,0,1-.212-.15L4.027,2.784.109.418A.226.226,0,0,1,.343.033L4.4,2.481,7.713,11.8a.226.226,0,0,1-.212.3Z" transform="translate(256.282 322.077)" fill="#1f3c88"/>
    <path id="Vector-73" data-name="Vector" d="M20.536,22.512C12.976,25.387,0,23.772,0,23.772.528,18.279.564,2.031,9.027,0l3.782.4c1.982.777,3.529,3.737,4.694,7.253a57.813,57.813,0,0,1,1.7,6.535c.93,4.491,1.332,8.327,1.332,8.327Z" transform="translate(250.941 287.926)" fill="#1f3c88"/>
    <path id="Vector-74" data-name="Vector" d="M4.311,6.738C.75,4.667,0,0,0,0L2.609.2a57.813,57.813,0,0,1,1.7,6.535Z" transform="translate(265.835 295.372)" fill="#102048"/>
    <path id="Vector-75" data-name="Vector" d="M9.34,3.886l-1.573,7.54L0,7.278.508,0s2-.149,8.833,3.886Z" transform="translate(263.24 288.32)" fill="#1f3c88"/>
    <path id="Vector-76" data-name="Vector" d="M7.538,15.2a5.23,5.23,0,0,1-.628.781,5.152,5.152,0,0,1-1.485,1.074,5.273,5.273,0,0,1-4.789-.1L0,16.624,1.575,9.082c.42.253.858.514,1.322.8,0,0,6.148-8.688,6.6-8.517.406.149-.285,1.494-.424,1.76C9.338,2.732,11.333-.193,11.866.01c.424.158-.112,1.458-.18,1.616.122-.176,1.192-1.751,1.837-1.372.3.176-.853,1.882-.966,2.054.14-.136,1.417-1.372,1.733-1s-.916,1.85-1.056,2.017c.127-.112,1.218-1.065,1.567-.605.456.591-5.132,9.234-7.262,12.484Z" transform="translate(271.007 283.122)" fill="#e28b6d"/>
    <path id="Vector-77" data-name="Vector" d="M4.167,1.134A5.152,5.152,0,0,1,2.681,2.207a5.258,5.258,0,0,1-2.623.519A2.078,2.078,0,0,1,0,2.225,2.227,2.227,0,0,1,4.166,1.133Z" transform="translate(273.751 297.972)" fill="#eb5d60" opacity="0.4"/>
    <path id="Vector-78" data-name="Vector" d="M8.131,2.046C4.8,2.046,1.806,1.832.34,1.706.24,1.7.179,1.692.163,1.692A.171.171,0,0,1,0,1.519a.167.167,0,0,1,.168-.165c.012,0,.08.005.2.016C3.711,1.656,15.009,2.4,20.124.016a.169.169,0,0,1,.143.307C17.339,1.689,12.446,2.047,8.132,2.047Z" transform="translate(250.944 308.123)" fill="#86a7ff"/>
    <path id="Vector-79" data-name="Vector" d="M2.627,1.464A3.142,3.142,0,0,1,.027.26.169.169,0,0,1,.311.077C.369.167,1.786,2.248,5.354.321A.171.171,0,0,1,5.583.39a.169.169,0,0,1-.069.229,6.119,6.119,0,0,1-2.888.845Z" transform="translate(258.22 291.593)" fill="#86a7ff"/>
    <path id="Vector-80" data-name="Vector" d="M2.241.4A2.79,2.79,0,0,1,5.309.513c.438.36.719.876,1.126,1.271.872.847,2.228,1.06,3.064,1.943a3.456,3.456,0,0,1,.811,2.614,9.042,9.042,0,0,1-.744,2.7,8.843,8.843,0,0,1-2.072,3.4,3.046,3.046,0,0,1-1.326.743,1.772,1.772,0,0,1-1.463-.27A1.941,1.941,0,0,1,4.028,11.5,5.789,5.789,0,0,1,4.22,9.9a.856.856,0,0,0,1.3-.83c-.064-.538-.6-.877-1.071-1.137l-2.365-1.3A4.532,4.532,0,0,1,.8,5.725,3.291,3.291,0,0,1,.14,2.777,5.435,5.435,0,0,1,2.24.4Z" transform="translate(264.546 273.768)" fill="#fbb81d"/>
    <path id="Vector-81" data-name="Vector" d="M0,4.175S-.048-1.173,6.593.237A4.925,4.925,0,0,1,9.422,1.975c1.081,1.337,1.773,6.959-1.317,8.519C4.231,12.45,0,4.175,0,4.175Z" transform="translate(257.429 274.385)" fill="#fbc343"/>
    <path id="Vector-82" data-name="Vector" d="M5.39,0,5.237,5.371A2.623,2.623,0,0,1,2.754,7.912c-.046,0-.09,0-.136,0A2.623,2.623,0,0,1,.01,5.069l.009-.086L.37.9.817.822,5.389,0Z" transform="translate(258.92 283.073)" fill="#e28b6d"/>
    <path id="Vector-83" data-name="Vector" d="M3.1,1.1A6.239,6.239,0,0,1,0,4.161L.352.081.8,0Z" transform="translate(258.938 283.895)" fill="#102048"/>
    <path id="Vector-84" data-name="Vector" d="M.4,2.652l1.636-1.58L5.537,0l2.2,3.159L7.286,7.164a5.147,5.147,0,0,1-5.021,2.877C-1.29,9.7.4,2.65.4,2.65Z" transform="translate(257.026 275.91)" fill="#e28b6d"/>
    <path id="Vector-85" data-name="Vector" d="M.62,1.58,3.385,0,8.011,1.185s1.015,4.062-.226,4.626-2.5-.377-3.329-2.088C3.27,1.268,0,3.1,0,3.1Z" transform="translate(257.429 275.458)" fill="#fbc343"/>
    <path id="Vector-86" data-name="Vector" d="M3.09,1.277A1.431,1.431,0,0,1,1.545,2.555,1.431,1.431,0,0,1,0,1.277,1.431,1.431,0,0,1,1.545,0,1.431,1.431,0,0,1,3.09,1.277Z" transform="translate(262.39 282.123) rotate(-60)" fill="#e28b6d"/>
    <path id="Vector-87" data-name="Vector" d="M.113,1.278H.1A.114.114,0,0,1,0,1.158C.029.757.282,0,1.034,0a.112.112,0,1,1,0,.225c-.73,0-.806.91-.81.949a.113.113,0,0,1-.112.1Z" transform="translate(263.805 280.761)" fill="#102048"/>
    <path id="Vector-88" data-name="Vector" d="M.577.288A.288.288,0,1,1,.288,0,.288.288,0,0,1,.577.288Z" transform="translate(257.392 280.804)" fill="#102048"/>
    <path id="Vector-89" data-name="Vector" d="M.639.32A.32.32,0,1,1,.32,0,.32.32,0,0,1,.639.32Z" transform="translate(259.564 280.751)" fill="#102048"/>
    <path id="Vector-90" data-name="Vector" d="M.56,1.6a.524.524,0,0,1-.5-.234C-.168.96.349.2.455.047A.113.113,0,0,1,.64.178c-.275.386-.5.88-.387,1.079.047.087.171.124.363.115H.623A.113.113,0,0,1,.629,1.6l-.069,0Z" transform="translate(258.011 281.249)" fill="#102048"/>
    <path id="Vector-91" data-name="Vector" d="M2.017,1.009A1.009,1.009,0,1,1,1.009,0,1.009,1.009,0,0,1,2.017,1.009Z" transform="translate(260.167 281.815) rotate(-22.5)" fill="#eb5d60" opacity="0.4"/>
    <path id="Vector-92" data-name="Vector" d="M.592.612A1.239,1.239,0,0,1,.061.5a.113.113,0,0,1,.1-.2A1.131,1.131,0,0,0,1.429.029.113.113,0,1,1,1.582.2a1.438,1.438,0,0,1-.99.416Z" transform="translate(258.119 283.213)" fill="#102048"/>
    <path id="Vector-93" data-name="Vector" d="M1.221.439a2.821,2.821,0,0,0-.584-.1A.755.755,0,0,0,.38.364,1.48,1.48,0,0,0,.1.467l-.011,0A.069.069,0,0,1,0,.433a.067.067,0,0,1,0-.053A.6.6,0,0,1,.26.093.759.759,0,0,1,.649,0,.9.9,0,0,1,1.3.333a.068.068,0,0,1-.013.1A.067.067,0,0,1,1.23.442l-.01,0Z" transform="translate(257.091 280.017)" fill="#102048"/>
    <path id="Vector-94" data-name="Vector" d="M.01.5A1.018,1.018,0,0,1,.791,0,.865.865,0,0,1,1.275.11a.9.9,0,0,1,.334.328.068.068,0,0,1-.023.094.07.07,0,0,1-.062,0l-.007,0A2.488,2.488,0,0,0,1.155.381.792.792,0,0,0,.813.337a1.674,1.674,0,0,0-.706.25L.1.591A.067.067,0,0,1,.008.564.068.068,0,0,1,.009.5Z" transform="translate(259.139 279.86)" fill="#102048"/>
    <path id="Vector-95" data-name="Vector" d="M0,0H250.492V.452H0Z" transform="translate(62.508 377.139)" fill="#102048"/>
  </g>
</svg>
