<svg xmlns="http://www.w3.org/2000/svg" width="16" height="19.105" viewBox="0 0 16 19.105">
  <g id="Group_8363" data-name="Group 8363" transform="translate(-329 -222)">
    <path id="Vector" d="M8,19.105l-.555-.476C6.68,17.989,0,12.22,0,8A8,8,0,0,1,16,8c0,4.22-6.68,9.989-7.442,10.633ZM8,1.73A6.277,6.277,0,0,0,1.73,8c0,2.651,4.11,6.886,6.27,8.824,2.16-1.939,6.27-6.177,6.27-8.824A6.277,6.277,0,0,0,8,1.73Z" transform="translate(329 222)" fill="#005b8e"/>
    <path id="Vector-2" data-name="Vector" d="M3.171,6.342A3.171,3.171,0,1,1,6.342,3.171,3.171,3.171,0,0,1,3.171,6.342Zm0-4.757A1.586,1.586,0,1,0,4.757,3.171,1.586,1.586,0,0,0,3.171,1.586Z" transform="translate(333.829 226.829)" fill="#ffc93c"/>
  </g>
</svg>
