<svg id="notifications_1_" data-name="notifications (1)" xmlns="http://www.w3.org/2000/svg" width="20" height="20" viewBox="0 0 20 20">
  <path id="Path_11604" data-name="Path 11604" d="M0,0H20V20H0Z" fill="none"/>
  <path id="Path_11605" data-name="Path 11605" d="M10.736,18.75A1.672,1.672,0,0,0,12.4,17.083H9.069A1.666,1.666,0,0,0,10.736,18.75Zm5-5V9.583a5.077,5.077,0,0,0-3.75-5.267V3.75a1.25,1.25,0,1,0-2.5,0v.567c-2.392.567-3.75,2.7-3.75,5.267V13.75L4.661,14.825a.833.833,0,0,0,.583,1.425H16.219a.836.836,0,0,0,.592-1.425Z" transform="translate(-0.736 -0.417)" fill="#fff"/>
</svg>
