<svg xmlns="http://www.w3.org/2000/svg" width="17.99" height="18" viewBox="0 0 17.99 18">
  <path id="Path_11595" data-name="Path 11595" d="M15.32,3H8.68a1.009,1.009,0,0,0-.7.29L3.29,7.98a1.009,1.009,0,0,0-.29.7v6.63a1.033,1.033,0,0,0,.29.71L7.97,20.7a1.017,1.017,0,0,0,.71.3h6.63a1.033,1.033,0,0,0,.71-.29l4.68-4.68a.99.99,0,0,0,.29-.71V8.68a1.033,1.033,0,0,0-.29-.71L16.02,3.29a1.009,1.009,0,0,0-.7-.29ZM12,17.3A1.3,1.3,0,1,1,13.3,16,1.3,1.3,0,0,1,12,17.3ZM12,13a1,1,0,0,1-1-1V8a1,1,0,0,1,2,0v4a1,1,0,0,1-1,1Z" transform="translate(-3 -3)" fill="red"/>
</svg>
