<svg id="word-file" xmlns="http://www.w3.org/2000/svg" width="40.313" height="40.313" viewBox="0 0 40.313 40.313">
  <path id="Path_11574" data-name="Path 11574" d="M0,0H40.313V40.313H0Z" fill="none"/>
  <path id="Path_11575" data-name="Path 11575" d="M11.146,54.149,7.99,51h3.156Zm23.936,0L38.238,51H35.082Z" transform="translate(-2.957 -18.875)" fill="#a3313a"/>
  <path id="Path_11576" data-name="Path 11576" d="M48.043,10.043H43.01V5.01Z" transform="translate(-15.918 -1.854)" fill="#b2b2b2"/>
  <path id="Path_11577" data-name="Path 11577" d="M31.9,5H14a1,1,0,0,0-1,1V38.126a1.008,1.008,0,0,0,1,1.008H35.934a1.008,1.008,0,0,0,1-1.039V10.039H31.9Z" transform="translate(-4.811 -1.851)" fill="#f1f1f1"/>
  <path id="Path_11578" data-name="Path 11578" d="M8.63,33H37.605a.63.63,0,0,1,.63.63V44.338H8V33.63A.63.63,0,0,1,8.63,33Z" transform="translate(-2.961 -12.213)" fill="#ff000a"/>
  <path id="Path_11579" data-name="Path 11579" d="M22.93,41.162V42.97H21.67V37.817h2.016a1.946,1.946,0,0,1,1.4.46,1.606,1.606,0,0,1,.485,1.26,1.72,1.72,0,0,1-.214.85,1.505,1.505,0,0,1-.63.592,2.211,2.211,0,0,1-1.027.214Zm1.386-1.657q0-.68-.756-.68h-.63v1.342h.63Q24.316,40.167,24.316,39.505Zm6.186,2.2a2.287,2.287,0,0,1-.932.913,2.961,2.961,0,0,1-1.43.328H26.193V37.817h1.946a2.992,2.992,0,0,1,1.43.321,2.23,2.23,0,0,1,.932.907,2.709,2.709,0,0,1,.321,1.342A2.746,2.746,0,0,1,30.5,41.71Zm-1.342-.258a1.663,1.663,0,0,0,0-2.173,1.575,1.575,0,0,0-1.134-.384H27.44v2.942h.586a1.575,1.575,0,0,0,1.134-.365Zm5.732-3.634v1H32.775V39.94h1.631v.945H32.775V42.97h-1.26V37.817Z" transform="translate(-8.02 -13.995)" fill="#fff"/>
  <path id="Path_11580" data-name="Path 11580" d="M29.135,9.946a3.238,3.238,0,0,1-.126,1.3c-.561,1.934-2.438,8.982-3.855,9.984-2.022,1.436-3.074-.2-2-1.354s7.578-2.7,9.65-2.7c2.7,0,2.35,2.387.819,2.242-1.726-.164-6.041-3.105-6.3-8.7-.113-1.99,1.613-2.362,1.808-.768Z" transform="translate(-8.412 -3.313)" fill="none" stroke="#ff000a" stroke-miterlimit="10" stroke-width="1"/>
</svg>
