<svg id="microsoft-powerpoint" xmlns="http://www.w3.org/2000/svg" width="40.215" height="40.215" viewBox="0 0 40.215 40.215">
  <path id="Path_84" data-name="Path 84" d="M23.5,2.952A17.645,17.645,0,0,0,5.9,20.546l22.29,4.7Z" transform="translate(-0.878 -0.439)" fill="#ed6c47"/>
  <path id="Path_85" data-name="Path 85" d="M26.571,2.952A17.645,17.645,0,0,1,44.165,20.546l-8.8,5.979-8.8-5.979Z" transform="translate(-3.95 -0.439)" fill="#ff8f6b"/>
  <path id="Path_86" data-name="Path 86" d="M23.5,41.213A17.645,17.645,0,0,0,41.093,23.619H5.905A17.645,17.645,0,0,0,23.5,41.213Z" transform="translate(-0.878 -3.512)" fill="#d35230"/>
  <path id="Path_87" data-name="Path 87" d="M21.825,10.333H10.06A17.486,17.486,0,0,0,11.228,34.21h10.6A1.681,1.681,0,0,0,23.5,32.535V12.008a1.681,1.681,0,0,0-1.676-1.675Z" transform="translate(-0.878 -1.536)" opacity="0.1"/>
  <path id="Path_88" data-name="Path 88" d="M20.566,11.809H9.1a17.476,17.476,0,0,0,3.576,23.877h7.894a1.681,1.681,0,0,0,1.675-1.675V13.484a1.681,1.681,0,0,0-1.676-1.675Z" transform="translate(-0.878 -1.756)" opacity="0.2"/>
  <path id="Path_89" data-name="Path 89" d="M20.565,11.809H9.1a17.452,17.452,0,0,0,.963,21.368H20.566A1.681,1.681,0,0,0,22.242,31.5V13.484a1.681,1.681,0,0,0-1.676-1.675Z" transform="translate(-0.878 -1.756)" opacity="0.2"/>
  <path id="Path_90" data-name="Path 90" d="M19.308,11.809H9.093a17.452,17.452,0,0,0,.966,21.368h9.25A1.681,1.681,0,0,0,20.985,31.5V13.484a1.681,1.681,0,0,0-1.676-1.675Z" transform="translate(-0.877 -1.756)" opacity="0.2"/>
  <path id="Path_91" data-name="Path 91" d="M1.675,11.809H18.432a1.675,1.675,0,0,1,1.675,1.675V30.241a1.675,1.675,0,0,1-1.675,1.675H1.675A1.675,1.675,0,0,1,0,30.241V13.484a1.675,1.675,0,0,1,1.675-1.675Z" transform="translate(0 -1.756)" fill="#c43e1c"/>
  <path id="Path_92" data-name="Path 92" d="M10.928,16.231a5.238,5.238,0,0,1,3.462,1.011,3.616,3.616,0,0,1,1.2,2.929,3.426,3.426,0,0,1-.6,2,3.977,3.977,0,0,1-1.684,1.495,5.743,5.743,0,0,1-2.539.533H8.37V28.8H5.905V16.231ZM8.368,22.12h2.12a2.757,2.757,0,0,0,1.873-.558,1.391,1.391,0,0,0,.633-1.29q0-2.085-2.429-2.085h-2.2Z" transform="translate(-0.878 -2.411)" fill="#f9f7f7"/>
  <path id="Path_93" data-name="Path 93" d="M0,0H40.215V40.215H0Z" fill="none"/>
</svg>
