<svg xmlns="http://www.w3.org/2000/svg" width="194" height="193" viewBox="0 0 194 193">
  <g id="Group_8123" data-name="Group 8123" transform="translate(-92 -105)">
    <ellipse id="Ellipse_69" data-name="Ellipse 69" cx="97" cy="96.5" rx="97" ry="96.5" transform="translate(92 105)" fill="#f5f5f5"/>
    <g id="password-unlock" transform="translate(-18.398 -27.101)">
      <path id="Path_11543" data-name="Path 11543" d="M425.612,180.335a5.215,5.215,0,1,1,10.43,0v1.285a8.156,8.156,0,0,0,16.312,0v-1.285a21.527,21.527,0,1,0-43.053,0v15.422h16.312Zm5.223,41.966a5.858,5.858,0,1,0-5.816-5.816A5.815,5.815,0,0,0,430.835,222.3Z" transform="translate(-224.929)" fill="#005b8e"/>
      <path id="Path_11544" data-name="Path 11544" d="M184.256,443.446H227.54a8.164,8.164,0,0,0,8.156-8.156V407.956a8.164,8.164,0,0,0-8.156-8.156H184.256a8.164,8.164,0,0,0-8.156,8.156V435.29A8.164,8.164,0,0,0,184.256,443.446Zm21.65-34.321a8.6,8.6,0,0,1,1.384,17.086v6.525a1.368,1.368,0,1,1-2.735,0v-6.525a8.6,8.6,0,0,1,1.351-17.086Zm47.238,39.231H158.668a18.668,18.668,0,1,0,0,37.336h94.46a18.668,18.668,0,0,0,.016-37.336Zm-75.792,22.837a1.363,1.363,0,0,1,0,1.944,1.393,1.393,0,0,1-1.944,0l-4.169-4.169-4.169,4.169a1.393,1.393,0,0,1-1.944,0,1.363,1.363,0,0,1,0-1.944l4.169-4.169-4.169-4.169a1.375,1.375,0,1,1,1.944-1.944l4.169,4.169,4.169-4.169a1.375,1.375,0,0,1,1.944,1.944l-4.169,4.169Zm23.117,0a1.363,1.363,0,0,1,0,1.944,1.393,1.393,0,0,1-1.944,0l-4.169-4.169-4.169,4.169a1.393,1.393,0,0,1-1.944,0,1.363,1.363,0,0,1,0-1.944l4.169-4.169-4.169-4.169a1.375,1.375,0,0,1,1.944-1.944l4.169,4.169,4.169-4.169a1.375,1.375,0,1,1,1.944,1.944l-4.169,4.169Zm23.1,0a1.363,1.363,0,0,1,0,1.944,1.393,1.393,0,0,1-1.944,0l-4.169-4.169-4.169,4.169a1.393,1.393,0,0,1-1.944,0,1.363,1.363,0,0,1,0-1.944l4.169-4.169-4.169-4.169a1.375,1.375,0,1,1,1.944-1.944l4.169,4.169,4.169-4.169a1.375,1.375,0,0,1,1.944,1.944l-4.169,4.169,4.169,4.169Zm23.1,0a1.363,1.363,0,0,1,0,1.944,1.393,1.393,0,0,1-1.944,0l-4.169-4.169-4.169,4.169a1.393,1.393,0,0,1-1.944,0,1.363,1.363,0,0,1,0-1.944l4.169-4.169-4.169-4.169a1.375,1.375,0,0,1,1.944-1.944l4.169,4.169,4.169-4.169a1.375,1.375,0,0,1,1.944,1.944l-4.169,4.169,4.169,4.169Z" transform="translate(0 -201.291)" fill="#005b8e"/>
    </g>
  </g>
</svg>
