<svg xmlns="http://www.w3.org/2000/svg" width="76.395" height="109.875" viewBox="0 0 76.395 109.875">
  <g id="undraw_coding_re_iv62" transform="translate(-61.991)">
    <circle id="Ellipse_276" data-name="Ellipse 276" cx="16.116" cy="16.116" r="16.116" transform="translate(84.652 6.51)" fill="#feb8b8"/>
    <path id="Path_1461" data-name="Path 1461" d="M555.777,217.222a18.613,18.613,0,0,0-10.589-8.094l-1.978,1.444V208.7a17.132,17.132,0,0,0-3.2-.186l-1.707,1.544v-1.416a18.435,18.435,0,0,0-12.717,7.564c-3.707,5.344-4.333,12.778-.687,18.165,1-3.076,2.216-5.962,3.217-9.037a9.1,9.1,0,0,0,2.372.012L531.7,222.5l.34,2.721c3.774-.329,9.372-1.051,12.95-1.712l-.348-2.088,2.082,1.735c1.1-.252,1.747-.481,1.693-.656,2.661,4.29,5.918,7.03,8.578,11.32C558.011,227.772,559.174,222.742,555.777,217.222Z" transform="translate(-439.957 -208.5)" fill="#2f2e41"/>
    <path id="Path_11641" data-name="Path 11641" d="M525.9,412.644c-.554-3.334-1.126-6.732-2.675-9.735-1.018-1.967-2.635-3.842-4.814-4.231a4.657,4.657,0,0,1-1.254-.29c-.639-.308-9.219-5.206-10.583-6.059-1.171-.732-3.02-2.089-3.952-2.089-.938-.021-4.533.816-18.567-.281a50.688,50.688,0,0,0-6.838,3.362c-.045-.03-14.566,7.768-15.111,7.747a3.173,3.173,0,0,0-2.586,1.451,9.386,9.386,0,0,0-1.161,2.861c3.172,7.063,6.073,14.135,9.245,21.2a1.808,1.808,0,0,1,.229.87,2.123,2.123,0,0,1-.395.87c-1.555,2.5-1.506,5.641-1.336,8.578s.38,6.039-.932,8.671c-.357.723-.821,1.384-1.161,2.107-.8,1.637-1.082,6.872-.618,8.63l58.182,1.667C520.327,454.531,525.9,412.644,525.9,412.644Z" transform="translate(-390.476 -348.576)" fill="#005b8e"/>
    <path id="Path_1421" data-name="Path 1421" d="M435.982,538.532a10.271,10.271,0,0,0-.035,2.533l.834,11.976c.078,1.129.155,2.255.261,3.381.2,2.185.5,4.353.87,6.517a1.161,1.161,0,0,0,1.19,1.129,42.561,42.561,0,0,0,11.21.534c5.717-.319,20.342-.923,21.236-2.083a3.042,3.042,0,0,0-.792-3.977c-1.165-.939-20.465-3.227-20.465-3.227a19.017,19.017,0,0,1,1.3-4.321,22.441,22.441,0,0,0,1.892-7.812,8.5,8.5,0,0,0-3.207-7.075,10.6,10.6,0,0,0-6.369-1.451c-1.611.046-4.393-.34-5.865.29C436.875,535.459,436.2,537.392,435.982,538.532Z" transform="translate(-373.124 -460.216)" fill="#fbbebe"/>
    <path id="Path_1430" data-name="Path 1430" d="M438.238,452.261a3,3,0,0,0-.644,1.03,48.71,48.71,0,0,0-4.092,16.72,1.672,1.672,0,0,1-.189.81,3.542,3.542,0,0,1-.427.461,1.6,1.6,0,0,0,.192,2.257q.04.033.081.064a3.123,3.123,0,0,1,2.644-1.274c4.878-.386,9.643,1.883,14.535,1.712-.345-1.193-.842-2.339-1.123-3.546-1.245-5.36,1.86-11.2-.043-16.358a4.219,4.219,0,0,0-2.017-2.5,5.371,5.371,0,0,0-1.291-.342c-1.236-.223-3.7-1.178-4.892-.8-.441.142-.615.557-.981.808A9.226,9.226,0,0,0,438.238,452.261Z" transform="translate(-370.518 -395.241)" fill="#005b8e"/>
    <path id="Path_1421-2" data-name="Path 1421" d="M639.72,534.947c-1.471-.63-4.254-.244-5.865-.29a10.6,10.6,0,0,0-6.369,1.451,8.5,8.5,0,0,0-3.207,7.075,22.44,22.44,0,0,0,1.892,7.812,19.015,19.015,0,0,1,1.3,4.321s-19.3,2.288-20.465,3.227a3.042,3.042,0,0,0-.792,3.977c.893,1.161,28.775,2.326,32.445,1.549a1.161,1.161,0,0,0,1.19-1.129c.371-2.165.67-4.332.87-6.517.106-1.126.183-2.252.261-3.381l.834-11.976a10.274,10.274,0,0,0-.035-2.533C641.559,537.392,640.885,535.459,639.72,534.947Z" transform="translate(-504.258 -460.216)" fill="#fbbebe"/>
    <path id="Path_1430-2" data-name="Path 1430" d="M699.661,451.308c-.366-.251-.54-.666-.981-.808-1.2-.383-3.656.572-4.892.8a5.373,5.373,0,0,0-1.291.342,4.218,4.218,0,0,0-2.017,2.5c-1.9,5.162,1.2,11-.043,16.357-.281,1.207-.778,2.353-1.123,3.546,4.892.171,9.657-2.1,14.535-1.712a3.123,3.123,0,0,1,2.644,1.274q.042-.031.081-.064a1.6,1.6,0,0,0,.192-2.257,3.542,3.542,0,0,1-.427-.461,1.67,1.67,0,0,1-.189-.81,48.711,48.711,0,0,0-4.091-16.72,3,3,0,0,0-.644-1.03A9.227,9.227,0,0,0,699.661,451.308Z" transform="translate(-568.756 -395.242)" fill="#005b8e"/>
    <circle id="Ellipse_108" data-name="Ellipse 108" cx="4.35" cy="4.35" r="4.35" transform="translate(91.645 95.724)" fill="#fbbebe"/>
    <circle id="Ellipse_109" data-name="Ellipse 109" cx="4.35" cy="4.35" r="4.35" transform="translate(101.276 95.724)" fill="#fbbebe"/>
    <path id="Path_11642" data-name="Path 11642" d="M530.392,549.761H470.634A2.635,2.635,0,0,1,468,547.129V510.876a2.635,2.635,0,0,1,2.632-2.631h59.758a2.635,2.635,0,0,1,2.632,2.631v36.253A2.635,2.635,0,0,1,530.392,549.761Z" transform="translate(-397.917 -439.886)" fill="#373737"/>
    <circle id="Ellipse_263" data-name="Ellipse 263" cx="1.741" cy="1.741" r="1.741" transform="translate(100.71 87.376)" fill="#fff"/>
    <path id="Path_11644" data-name="Path 11644" d="M521.685,291.149h0A4.89,4.89,0,0,1,517,286.08h0v-2.535a4.89,4.89,0,0,1,4.689-5.07h0v12.674Z" transform="translate(-435.737 -262.517)" fill="#005b8e"/>
    <path id="Path_11645" data-name="Path 11645" d="M668.779,278.476h0a4.89,4.89,0,0,1,4.689,5.07v2.535a4.89,4.89,0,0,1-4.689,5.07h0Z" transform="translate(-552.905 -262.518)" fill="#005b8e"/>
    <path id="Path_11646" data-name="Path 11646" d="M558.685,237.109h-.744c0-10.2-7.676-18.5-17.11-18.5s-17.11,8.3-17.11,18.5h-.744c0-10.645,8.009-19.3,17.854-19.3S558.685,226.464,558.685,237.109Z" transform="translate(-440.354 -215.682)" fill="#005b8e"/>
  </g>
</svg>
