<svg xmlns="http://www.w3.org/2000/svg" width="15.813" height="16.544" viewBox="0 0 15.813 16.544">
  <path id="_21._Verified" data-name="21. Verified" d="M15.7,9.5a2.07,2.07,0,0,1,0-2.428l.524-.724a.69.69,0,0,0,.1-.621.7.7,0,0,0-.442-.442l-.849-.276A2.061,2.061,0,0,1,13.6,3.042v-.9a.69.69,0,0,0-.9-.655l-.855.276a2.07,2.07,0,0,1-2.311-.752L9,.289a.715.715,0,0,0-1.118,0l-.524.724a2.07,2.07,0,0,1-2.311.752L4.2,1.489a.69.69,0,0,0-.9.655v.9A2.061,2.061,0,0,1,1.865,5.008l-.849.276a.7.7,0,0,0-.442.442.69.69,0,0,0,.1.621l.524.724A2.07,2.07,0,0,1,1.2,9.5l-.524.724a.69.69,0,0,0-.1.621.7.7,0,0,0,.442.442l.849.276a2.061,2.061,0,0,1,1.428,1.966v.9a.69.69,0,0,0,.9.655l.849-.276a2.066,2.066,0,0,1,2.318.752l.524.724a.693.693,0,0,0,1.118,0l.524-.724a2.07,2.07,0,0,1,2.318-.752l.849.276a.69.69,0,0,0,.9-.655v-.9a2.061,2.061,0,0,1,1.428-1.966l.849-.276a.7.7,0,0,0,.442-.442.69.69,0,0,0-.1-.621Zm-4-2.106L8.246,10.842a.69.69,0,0,1-.976,0L5.2,8.773A.69.69,0,1,1,6.176,7.8l1.58,1.582,2.962-2.962a.69.69,0,1,1,.976.976Z" transform="translate(-0.54 -0.02)" fill="#ffc93c"/>
</svg>
