<svg xmlns="http://www.w3.org/2000/svg" width="25.185" height="25.336" viewBox="0 0 25.185 25.336">
  <path id="whatsapp" d="M20.472,17.189c-.253-.127-1.9-.886-2.151-1.012a.6.6,0,0,0-.759.127c-.253.253-.759,1.012-1.012,1.265-.127.253-.38.253-.633.127a10.343,10.343,0,0,1-2.53-1.518,14.564,14.564,0,0,1-1.771-2.151.556.556,0,0,1,.127-.633c.127-.127.253-.38.506-.506a.959.959,0,0,0,.253-.506.385.385,0,0,0,0-.506A22.49,22.49,0,0,1,11.489,9.6c-.127-.886-.38-.886-.633-.886h-.633a1.443,1.443,0,0,0-.759.38,3.641,3.641,0,0,0-1.139,2.657,6.628,6.628,0,0,0,1.265,3.29A13.489,13.489,0,0,0,14.9,19.719a9.916,9.916,0,0,0,1.771.633,3.614,3.614,0,0,0,2.024.127,3.278,3.278,0,0,0,2.151-1.518,2.116,2.116,0,0,0,.127-1.518l-.506-.253M23.635,5.676A12.611,12.611,0,0,0,3.771,20.858L2,27.311l6.706-1.771A12.5,12.5,0,0,0,27.177,14.532a12.323,12.323,0,0,0-3.543-8.856M20.219,23.388a10.618,10.618,0,0,1-5.567,1.645,11.1,11.1,0,0,1-5.314-1.392l-.38-.253L5.036,24.4l1.012-3.8-.253-.38A10.623,10.623,0,0,1,9.212,5.676a10.292,10.292,0,0,1,14.3,3.29,10.44,10.44,0,0,1-3.29,14.423" transform="translate(-2 -1.975)" fill="#fff"/>
</svg>
