<svg id="microsoft-word" xmlns="http://www.w3.org/2000/svg" width="36.17" height="36.432" viewBox="0 0 36.17 36.432">
  <path id="Path_73" data-name="Path 73" d="M37.353,2.933H13.24a1.512,1.512,0,0,0-1.507,1.518V10.9L25.3,14.888,38.86,10.9V4.451A1.512,1.512,0,0,0,37.353,2.933Z" transform="translate(-2.691 -0.656)" fill="#41a5ee"/>
  <path id="Path_74" data-name="Path 74" d="M38.86,13.2H11.733v7.969L25.3,25.154,38.86,21.169Z" transform="translate(-2.691 -2.953)" fill="#2b7cd3"/>
  <path id="Path_75" data-name="Path 75" d="M38.86,23.466H11.733v7.969L25.3,35.421,38.86,31.436Z" transform="translate(-2.691 -5.249)" fill="#185abd"/>
  <path id="Path_76" data-name="Path 76" d="M38.86,33.732H11.733v6.452A1.512,1.512,0,0,0,13.24,41.7H37.353a1.512,1.512,0,0,0,1.507-1.518Z" transform="translate(-2.691 -7.546)" fill="#103f91"/>
  <path id="Path_77" data-name="Path 77" d="M21.529,10.266h-9.8V31.9h9.8a1.517,1.517,0,0,0,1.507-1.518v-18.6a1.517,1.517,0,0,0-1.507-1.518Z" transform="translate(-2.691 -2.297)" opacity="0.1"/>
  <path id="Path_78" data-name="Path 78" d="M20.4,11.733H11.733V33.365H20.4a1.517,1.517,0,0,0,1.507-1.518v-18.6A1.517,1.517,0,0,0,20.4,11.733Z" transform="translate(-2.691 -2.625)" opacity="0.2"/>
  <path id="Path_79" data-name="Path 79" d="M20.4,11.733H11.733V31.088H20.4a1.517,1.517,0,0,0,1.507-1.518V13.251A1.517,1.517,0,0,0,20.4,11.733Z" transform="translate(-2.691 -2.625)" opacity="0.2"/>
  <path id="Path_80" data-name="Path 80" d="M19.269,11.733H11.733V31.088h7.536a1.517,1.517,0,0,0,1.507-1.518V13.251a1.517,1.517,0,0,0-1.507-1.518Z" transform="translate(-2.691 -2.625)" opacity="0.2"/>
  <path id="Path_81" data-name="Path 81" d="M1.507,11.733H16.578a1.512,1.512,0,0,1,1.507,1.518V28.432a1.512,1.512,0,0,1-1.507,1.518H1.507A1.512,1.512,0,0,1,0,28.432V13.251a1.512,1.512,0,0,1,1.507-1.518Z" transform="translate(0 -2.625)" fill="#185abd"/>
  <path id="Path_82" data-name="Path 82" d="M14.2,27.518H12.162L9.789,19.662,7.3,27.518H5.267L3.007,16.133H5.042L6.624,24.1,9,16.36h1.7l2.26,7.742,1.582-7.969h1.92Z" transform="translate(-0.69 -3.609)" fill="#fff"/>
  <path id="Path_83" data-name="Path 83" d="M0,0H36.168V36.432H0Z" fill="none"/>
</svg>
