<svg xmlns="http://www.w3.org/2000/svg" width="10" height="10" viewBox="0 0 10 10">
  <path id="Path_358" data-name="Path 358" d="M8.534,1.466A5,5,0,1,1,5,0,5.006,5.006,0,0,1,8.534,1.466Zm.22,5.1A.406.406,0,0,1,8.624,6.4c-.087-.165-.122-.41-.274-.53-.176-.139-.414-.085-.613-.155a1.015,1.015,0,0,1-.632-.735c-.1-.4-.055-.989-.466-1.215a5.808,5.808,0,0,1-.9-.528,2.721,2.721,0,0,1-.737-.844A1.025,1.025,0,0,1,5.382.883a1.9,1.9,0,0,1,.367-.1A4.277,4.277,0,0,0,1.944,2a1.239,1.239,0,0,0,.6.374,13.283,13.283,0,0,1,1.342.2c.221.076.561.223.552.508-.021.671-1.031.556-1.465.6-.23.021-.4.112-.4.366a3.625,3.625,0,0,1-.011.487.543.543,0,0,1-.474.5,1.828,1.828,0,0,1-.424-.009A1.2,1.2,0,0,0,1.2,5.016c-.144.047-.238.167-.371.233a.543.543,0,0,1-.1.039A4.254,4.254,0,0,0,1.452,7.4,6.208,6.208,0,0,0,2.166,6.15c.131-.24.269-.448.575-.46a3.342,3.342,0,0,1,.684.11c.239.041.479.029.72.051a.936.936,0,0,1,.778.379,1.637,1.637,0,0,1,.129.7c.019.266.085.517.375.591a3.374,3.374,0,0,0,.6.057,3.4,3.4,0,0,1,.69.1c.14.04.326.106.359.27.046.221-.235.4-.377.519a1.409,1.409,0,0,0-.4.515q-.031.063-.064.124A4.3,4.3,0,0,0,8.952,6.65a.406.406,0,0,1-.2-.081Z" fill="#99a1be"/>
</svg>
