<svg xmlns="http://www.w3.org/2000/svg" width="92.5" height="37" viewBox="0 0 92.5 37">
  <g id="ZainCash_Logo" data-name="ZainCash Logo" transform="translate(-2.105 -9.979)">
    <g id="Group_3" data-name="Group 3" transform="translate(2.105 9.979)">
      <g id="Group_1" data-name="Group 1" transform="translate(52.697 25.552)">
        <path id="Path_2" data-name="Path 2" d="M50.77,35.495a3.052,3.052,0,0,0-1.167-.922,3.486,3.486,0,0,0-1.462-.322,3.917,3.917,0,0,0-1.669.347,3.832,3.832,0,0,0-1.278.947,4.358,4.358,0,0,0-.823,1.407,5.022,5.022,0,0,0-.292,1.729,4.7,4.7,0,0,0,.278,1.63,4.128,4.128,0,0,0,.8,1.355,3.733,3.733,0,0,0,1.278.922,4.116,4.116,0,0,0,1.707.339,3.376,3.376,0,0,0,1.647-.385,3.548,3.548,0,0,0,1.2-1.077l1.245.939a5.066,5.066,0,0,1-.43.485,4.366,4.366,0,0,1-.815.631,5.889,5.889,0,0,1-1.222.553,5.2,5.2,0,0,1-1.652.24,5.371,5.371,0,0,1-2.329-.493,5.707,5.707,0,0,1-3.268-5.135,6.357,6.357,0,0,1,.416-2.329,5.506,5.506,0,0,1,1.162-1.845A5.172,5.172,0,0,1,45.886,33.3a6.01,6.01,0,0,1,2.307-.43,5.617,5.617,0,0,1,2.115.416,3.952,3.952,0,0,1,1.7,1.278l-1.231.939Z" transform="translate(-42.516 -32.862)"/>
        <path id="Path_3" data-name="Path 3" d="M54.837,33.072h1.338l4.659,10.89H59.11l-1.093-2.69H52.835l-1.077,2.69H50.035l4.8-10.89Zm2.646,6.905-2.029-5h-.03l-2.062,5h4.122Z" transform="translate(-39.922 -32.794)"/>
        <path id="Path_4" data-name="Path 4" d="M59.67,41.756a2.444,2.444,0,0,0,1.021.884,3.051,3.051,0,0,0,1.283.284,2.618,2.618,0,0,0,.754-.116,2.277,2.277,0,0,0,.7-.347,1.889,1.889,0,0,0,.515-.57,1.526,1.526,0,0,0,.2-.785,1.172,1.172,0,0,0-.4-.961,3.472,3.472,0,0,0-.991-.553c-.394-.149-.826-.292-1.291-.43a5.214,5.214,0,0,1-1.291-.575,3.154,3.154,0,0,1-.991-.991,3.089,3.089,0,0,1-.4-1.685,2.857,2.857,0,0,1,.206-1.016,2.816,2.816,0,0,1,.653-.983,3.637,3.637,0,0,1,1.145-.746,4.24,4.24,0,0,1,1.685-.3,5.924,5.924,0,0,1,1.707.245,2.95,2.95,0,0,1,1.429,1l-1.2,1.093a1.986,1.986,0,0,0-.785-.691,2.5,2.5,0,0,0-1.154-.262,2.717,2.717,0,0,0-1.021.162,1.788,1.788,0,0,0-.653.416,1.452,1.452,0,0,0-.347.545,1.692,1.692,0,0,0-.1.54,1.365,1.365,0,0,0,.4,1.06,3.145,3.145,0,0,0,.991.6,12.084,12.084,0,0,0,1.291.416,5.572,5.572,0,0,1,1.291.515,3.011,3.011,0,0,1,.991.892,2.619,2.619,0,0,1,.4,1.545,3.242,3.242,0,0,1-.3,1.415,3.128,3.128,0,0,1-.807,1.06,3.6,3.6,0,0,1-1.2.661,4.628,4.628,0,0,1-1.476.231,5.408,5.408,0,0,1-1.985-.369A3.26,3.26,0,0,1,58.451,42.8l1.214-1.046Z" transform="translate(-37.018 -32.865)"/>
        <path id="Path_5" data-name="Path 5" d="M65.475,33.072H66.95v4.521h5.644V33.072h1.476v10.89H72.595V38.978H66.95v4.984H65.475Z" transform="translate(-34.596 -32.794)"/>
      </g>
      <g id="Group_2" data-name="Group 2">
        <path id="Path_6" data-name="Path 6" d="M67.554,37.019V22.673a3.233,3.233,0,0,0-.845-2.43,3.412,3.412,0,0,0-2.5-.916,1.946,1.946,0,0,0-.256.011V33.683a3.221,3.221,0,0,0,.845,2.425,3.421,3.421,0,0,0,2.489.919c.083,0,.179,0,.264-.008Zm.328-21.168a2.127,2.127,0,1,0-2.128,2.138,2.127,2.127,0,0,0,2.128-2.138ZM57.1,30.067v3.614a3.221,3.221,0,0,0,.845,2.425,3.434,3.434,0,0,0,2.495.919c.083,0,.179,0,.262-.008V29.308a10.044,10.044,0,0,0-2.508-7.286A9.374,9.374,0,0,0,51.2,19.208a9,9,0,0,0-9.3,9.286c0,5.253,3.527,8.6,8.1,8.6,3.527,0,5.644-2.1,5.644-4.566a5.11,5.11,0,0,0-.914-2.842C54.217,32.34,52.755,33.8,50.4,33.8c-2.514,0-4.725-1.909-4.725-5.393s2.216-5.766,5.537-5.766a5.517,5.517,0,0,1,4.009,1.578C56.411,25.4,57.1,27.2,57.1,30.064h0Zm28.1,2.213a.138.138,0,0,1-.11-.069c-2.583-3.371-7.324-9.581-8.354-10.936-1.088-1.418-1.938-1.884-3.064-1.884a2.631,2.631,0,0,0-1.966.8,3.474,3.474,0,0,0-.776,2.381V33.681a3.2,3.2,0,0,0,.845,2.425,3.327,3.327,0,0,0,2.434.919,1.611,1.611,0,0,0,.2-.008V24.276c0-.091.041-.143.1-.143s.074.019.11.074c1.514,1.975,7.263,9.507,8.365,10.922s1.936,1.893,3.053,1.893a2.631,2.631,0,0,0,1.969-.792,3.466,3.466,0,0,0,.779-2.381V22.736a3.272,3.272,0,0,0-.845-2.436,3.344,3.344,0,0,0-2.437-.913c-.072,0-.124,0-.2.006V32.138c0,.091-.044.138-.1.138h0Zm-56.628,1.33c-.143,0-.223-.047-.223-.143a.275.275,0,0,1,.121-.179c1.107-.9,8.42-6.809,9.535-7.727,1.938-1.564,2.346-2.328,2.346-3.44a2.343,2.343,0,0,0-.812-1.768,4.274,4.274,0,0,0-2.883-.77H24.2v.2a3.344,3.344,0,0,0,.46,1.813A3.179,3.179,0,0,0,27.4,22.734h8.177c.146,0,.223.044.223.119s-.036.108-.127.177c-1.156.941-7.908,6.4-9.593,7.747-1.944,1.564-2.332,2.342-2.332,3.451a2.339,2.339,0,0,0,.812,1.76,4.271,4.271,0,0,0,2.891.778H40.48v-.124a2.938,2.938,0,0,0-.815-2.229c-.636-.588-1.459-.8-3-.8H28.566Z" transform="translate(3.707 -13.726)"/>
        <path id="Path_7" data-name="Path 7" d="M22.776,22.64A3.42,3.42,0,0,0,18.9,19.164c-4.835.372-5.457,5.882-2.31,6.232,3.29.37,4.469-3.117,4.532-3.313h0c.008.237.182,5.032-4.7,5.032a3.8,3.8,0,0,1-3.844-3.876c0-2.668,2.591-5.322,6.245-5.462a5.479,5.479,0,0,1,4.452,1.465c2.153,2.157,1.534,6.2-.209,8.2A8.523,8.523,0,0,1,12.8,29.788C9.172,28.16,7.875,23.448,10.07,19.5a10.228,10.228,0,0,1,8.78-4.682c6.4,0,9.642,4.544,9.059,9.885a15.047,15.047,0,0,1-4.078,8.3c-5.05,5.5-12.473,6.6-17.151,3.735a7.815,7.815,0,0,1-3.739-7.6,7.819,7.819,0,0,0,3.345,5.614,11.307,11.307,0,0,0,14.835-2.119c-4.642,3.476-10.069,3.424-13.775,1C3.946,31.427,3.013,27,4.676,22.615c-.834,3.906.507,7.529,3.455,9.416,4.6,2.941,11.292,1.25,15.512-3.487a8.8,8.8,0,0,0,2.236-5.78c-.044-3.313-2.349-6.287-7-6.287s-8.056,3.7-8.056,6.778a5.075,5.075,0,0,0,5.394,5.369c3.053,0,6.559-1.909,6.559-5.984Z" transform="translate(-2.896 -13.348)"/>
      </g>
    </g>
  </g>
</svg>
